<?xml version="1.0" encoding="utf-8"?>
<!-- Generator: Adobe Illustrator 21.1.0, SVG Export Plug-In . SVG Version: 6.00 Build 0)  -->
<svg version="1.1" id="Layer_1" xmlns="http://www.w3.org/2000/svg" xmlns:xlink="http://www.w3.org/1999/xlink" x="0px" y="0px"
	 viewBox="0 0 640 400" style="enable-background:new 0 0 640 400;" xml:space="preserve">
<style type="text/css">
	.st0{fill:#FCFCFD;}
	.st1{fill:#0F3C96;}
	.st2{fill:#C01D2F;}
	.st3{fill:#571F48;}
	.st4{fill:#1B0E57;}
	.st5{fill:#598EDC;}
	.st6{fill:#B02A98;}
	.st7{fill:#DF6E81;}
	.st8{fill:#D63C57;}
	.st9{fill:#F7EEF8;}
	.st10{fill:#2866D0;}
	.st11{fill:#F1BAEE;}
	.st12{fill:#CA95D8;}
	.st13{fill:#762E7C;}
	.st14{fill:#3B58AB;}
	.st15{fill:#463074;}
	.st16{font-family:'CenturyGothic';}
	.st17{font-size:33px;}
</style>
<g>
	<g>
		<path class="st0" d="M202.2,201c0-38.7,0-77.4-0.1-116.2c0-2.5,0.5-3,3.1-3c76.2,0.1,152.4,0.1,228.5,0c2.6,0,3.1,0.5,3.1,3
			c-0.1,77.7-0.1,155.4,0,233c0,2.5-0.5,3-3.1,3c-76.2-0.1-152.4-0.1-228.5,0c-2.6,0-3.2-0.5-3.1-3
			C202.2,278.9,202.2,239.9,202.2,201z M403.3,163.4c0.5-0.3,0.9-0.6,1.3-0.9h0c3.9-1.4,6.5-4.5,9.8-6.6c3.8-2.4,7.7-4.8,11.5-7.2
			c-0.2-0.3-0.4-0.6-0.6-0.9c-4.8,1.3-9.7,2.6-14,5c-3.8,0.1-7.3,1.3-10.6,3.1c-0.8,0.2-1.5,0.4-2.3,0.5c-0.2,0.1-0.5,0.3-0.7,0.4
			c-0.5,0.1-1.1,0.1-1.6,0.2c-0.4-0.3-0.5-0.1-0.5,0.2c-4.7,1.5-9.4,3.1-14.1,4.6c-2.9-0.2-5.1,0.9-6.8,3.1l-0.3,0v0.3
			c-0.2,0.5-0.3,1-0.5,1.5c-1.2,1.2-0.7,2.9-1.4,4.3c-0.2,1.6-0.2,3.1,1.8,3.9c1.7,0.6,3.3,1.5,5,2.2c3.3,0.6,5.6-0.9,7.7-3.1
			c5.2-2.8,10.2-5.9,14.6-9.8C402.4,164.6,403.1,164.4,403.3,163.4l-0.2-0.1C403.2,163.3,403.3,163.4,403.3,163.4z M320.1,274.3
			L320.1,274.3c0.2,0.8,0,1.7,1.1,2c0.1,0.2,0.2,0.5,0.3,0.7c-0.3,0.4-0.2,0.7,0.2,0.9l0,0.1c0.8,2.1,0.5,4.6,2.7,6.5
			c1.1-2,2.1-3.8,1.9-6c0.2-1.6,0.5-3.1,1-4.6c1.5-4.3,2.5-8.7,3.8-13.1c0.1-1,0.1-1.9,0.2-2.9c2.6-1.9,1.9-4.9,2.8-7.4
			c1.1-1.1,0.9-2.4,0.9-3.7l0,0c0.9-0.5,0.9-1.4,0.8-2.3c1.7-1.1,0.7-3,1.6-4.4c1.5-5.4,3.1-10.7,4.5-16.2c1.2-4.8,2.9-6.2,8-6.3
			c5.7-0.1,11.5,0.4,17.2-0.3c0.8-0.2,1.7-0.4,2.5-0.7c11.7,0,23.4,0,35.1,0c2.3,0.1,4.6,0.2,6.8,0.3c0.7,0,1.7,0.2,1.9-0.8
			c0.2-1-0.8-1.1-1.4-1.5c-4.3-2.9-8.8-5.6-13.5-7.7l-0.2-0.1c0-0.4-0.1-0.4-0.2,0c-0.6-0.3-1.1-0.6-1.7-0.9c-0.9-1.9-3.1-2-4.6-3
			c-10.9-6.7-21.9-13.3-32.8-19.9c-0.9-0.8-1.9-1.5-3.2-1.6c-0.8-1.4-1.8-2.7-2-4.4c0.4-0.6,1.2-1.1,0.8-2c0-0.7,0.1-1.5,0.1-2.2
			c1.4-1.5,0.9-3.5,1.5-5.3c2.5-4.1,2.4-8.9,3.7-13.3c2.3-7.6,4.3-15.4,6.4-23c1.8-0.9,1.2-2.5,0.7-3.5c-0.8-1.4-1.9,0.1-2.9,0.3
			c-0.5,0.1-1,0.2-1.5,0.3c0.1-1.6,0.2-3.2,0.4-4.9c-6.2,2.5-9.5,8.4-15.6,10.4c-0.1,0-0.1,0.4-0.2,0.7c-0.1,0.1-0.2,0.3-0.4,0.4
			c-1.1,0.1-2,0.4-2.6,1.5c-1.4,0.9-3.1,1.5-3.8,3.2c-1.1,0-2,0.2-2.4,1.3c-0.3,0.3-0.6,0.6-0.8,0.9l0-0.1c-0.8,0.4-1.7,0.6-2.4,1.1
			c-5.6,3.8-11.2,7.6-16.8,11.4c-1.9,1.3-3.7,2.5-6.1,1c-2.8-1.8-5.7-3.5-8.5-5.2c-1.3-0.7-2.5-1.4-3.8-2.2c-3.2-2-6-4.6-9.9-5.4
			c-1.1-1.4-3.4-0.6-4.5-2.2c-0.3-0.3-0.6-0.6-0.8-1c-0.6-3-2.9-2.9-5.2-2.7c-0.1-0.2-0.2-0.4-0.2-0.6c-0.2-0.3-0.4-0.5-0.6-0.8
			c-0.5,0-0.9-0.1-1.3-0.1l-0.2-0.1c-0.2-1.3-0.9-2-2.3-2.1c-0.4-2-1.7-1.4-2.8-0.8c-4,2.4-4.5,6.2-1.3,9.8c0.8-0.7,0.8-2.1,2.2-2.3
			c0.4,0.3,0.7,0.6,1.1,0.9c0.1,3.5-2.6,6.8-0.6,10.4c0.2,1.8,0.7,4.4,2.1,4.6c4.2,0.7,2.2,2.8,1.6,4.7c-0.2,0.1-0.2,0.2-0.1,0.4
			c-0.1,0-0.1,0-0.2,0.1c0.1,0.1,0.1,0.2,0.2,0.3c1.1,3,2.1,6,3.2,9c0.8,2,0.9,4.2,2.3,5.9v0c0.1,0.3,0.2,0.5,0.2,0.8
			c0,0.5,0,1,0,1.5c-0.2,0.6,0,0.9,0.6,0.9c0.2,0.6,0.3,1.3,0.5,1.9c-0.5,0.5-0.9,1-1.3,1.5c-2.4,2.3-5,4.3-7.8,6.1
			c-15,11.2-29.9,22.5-45.1,33.9c9.9,0.6,19.5-1,29.1-0.6c3.1-0.3,6.2-0.5,9.2-0.8c6.2,0.3,12.3,0.4,18.4-0.7c1.8,0,3.6,0.1,5.3,0.1
			c6.7,0,6.3,0.2,9.2,6.1c3.3,6.8,5.3,14.1,9.2,20.7c2.7,8.8,6.5,17.2,10.2,25.7C319.4,273.3,319.4,273.9,320.1,274.3z M418.7,223.1
			c0.2,0.2,0.4,0.3,0.5,0.5c0.2,0.2,0.5,0.4,0.7,0.6c1.2,1.5,2.7,2.1,4.6,1.7c0.5,0,1.1,0,1.5,0c0.5,0.1,0.7-0.1,0.9-0.5
			c4.5-2.1,4.6-3.3,1.4-8.9c-2.3-3-5.2-2.9-7.9-1c-2.3,1.6-4.1,3.8-1.9,6.9C418.6,222.7,418.6,222.9,418.7,223.1z M229.8,309
			c0,0.8,0,1.6,0.1,2.4c0,0.3-0.1,0.5-0.3,0.6c-0.7,0.5-0.5,1,0.1,1.4c0.7,2.4-1.2,2.6-2.8,2.8c-1.2,0.2-2.4,0-3.6,0
			c0.9,0.9,1.8,1.1,2.6,1.1c5.4,0.2,9-5.3,6.5-9.9c-0.3-0.5-0.6-0.7-1.2-0.7c-2,0-4.1-0.2-6.1,0.1c-2.2,0.3-3.9,1.7-3.6,4
			c0.3,2.1,1.9,3.1,4.3,3.2c0-1.7-2.4-1.9-2-3.5c0.2-0.5,0.4-1,0.6-1.4c0.3-0.2,0.6-0.5,0.8-0.7C226.8,308.5,228.3,308.7,229.8,309
			L229.8,309z M399.2,133.6c0.3,0.5,0.6,1,0.8,1.5c0,1.4,2,2,1.5,3.5c-0.8,0.2-1.4,0.8-1.7,1.6c-0.5,0.6-1.1,1.1-1.3,1.8
			c-1.9,5.1-5.9,8.4-10.3,11.4c-1.3,0.9-3.2,1-4,2.8c5.7-1.8,12-2.1,17-5.4c1.6-1,5.4-1.6,4.2-5.2c1.6-0.2,3.1-0.5,3.3-2.4
			c0-0.2,0.1-0.4,0.1-0.6c0-0.3,0-0.5,0.1-0.8c1.8-0.4,2-1.7,1.8-3.1c-0.3-1.8-1.5-1-2.6-0.9c-1.1,0.1-1.2-0.7-0.9-1.5
			c0.3-0.9,0.9-1.8-0.2-2.6c0-0.5-0.1-1-0.1-1.6c0-0.4,0-0.9,0-1.4c0.1-0.9-0.2-1.5-1.2-1.7c-0.3-0.2-0.6-0.5-0.9-0.7
			c0-0.2,0-0.4,0-0.6c1.7-1.7,2-3.4-0.3-4.8c-1.5-1-3.3-2-3.8,1.1c-0.1,0.9-1.2,0.9-1.9,0.4c-0.9-0.6-1.1-1.3,0.2-1.8
			c1.1-0.4,0.9-1,0.2-1.6c-0.7-0.5-0.3-2-1.6-1.7c-3.4,0.7-6.7,0.1-10.1-0.3c-1.4-0.2-2.6,0.4-3.4,1.3c-1.3,1.3-1,3.1-0.5,4.5
			c0.4,1.1,1.4,0.8,2,0c1.7-0.2,3.5-0.5,5.2-0.7c2.4,0.7,5.3-0.4,7.1,2.4c0.6,1-0.2,3,2,2.9c-0.1,0.7-0.1,1.3-0.2,2
			c-0.8,0.3-1.1,0.9-1.1,1.7C398.8,133.1,399,133.4,399.2,133.6z M255.8,285.2c1.2-0.5,3.2,1.1,3.6-1.4c0.4-0.1,1.1-0.2,1.1-0.2
			c-0.6-3.9,3-3.8,5.1-5.4c0.8-0.6,1.9-1.3,1.9-2.6c2.6-2.4,5.6-4.5,7-7.9c2.3-0.9,3.6-2.7,4.5-4.7c0.7-0.6,1.3-1.2,2-1.8
			c1.5-0.7,2.4-1.9,2.6-3.5c0.7-0.7,1.4-1.4,2.1-2.1c5.6-5.4,6.1-7.6,3.2-13.3c0-3-1.4-4.9-4.6-4.1c-3.5,0.9-8.5-1.4-10,4.1
			c-0.8,1.4-2.2,2.6-2,4.4c-0.3,0.7-0.6,1.5-0.8,2.2c-0.4,0.7-0.7,1.4-1,2c-2.6,2.8-3.3,6.4-4.9,9.6c-1.4,3.5-2.9,7-4.3,10.5
			c-3.4,3.3-2.7,8.6-5.8,12.1c0,0.6,0,1.1,0,1.7c0,0.4-0.4,0.9,0.2,1.1C255.6,285.8,255.7,285.5,255.8,285.2z M305.8,282.2
			c-0.7-1.1-1.6-1.7-3.3-1.5c0.7,1.7,1,3.5,0.8,5.3c-2,2.9-4.8,5-7.9,6.6c-1.4,0.8-2.1,1.5-2,3c-0.5,0.1-1.2,0-1.5,0.2
			c-1.4,1.1-2.8,1.9-4.4,0.8c-1.5-1-1.2-2.8-0.8-4.1c0.7-2.2,0.2-3.2-1.7-4.7c-4.3-3.5-4-3.7-8.6-1c-2.6,1.5-3.1,2.5,0.1,3.8
			c1.2,0.5,3.6,1.1,0.8,3.1c-1.6,1.2-0.1,2.7,1.2,3.5c1.8,1,3.7,1.5,5.8,1.4c2.4,0,4.6-0.2,6.8,1.5c2.1,1.6,7.9-0.6,9.2-3
			c1,0,2.1,0.1,2.7-0.9c1.7-3,4.2-5.7,4.1-9.4c-0.2-1-0.4-2-0.6-3C306.3,283.3,306.1,282.8,305.8,282.2z M355.5,242.3
			c-0.6,2.6-3.4,5.2,0.1,7.7c1.1,1.3,1.8,3,3.9,3.2l0.2,0.2c0.1,0.6,0.6,0.9,1.2,0.9c2.8,4.1,7.6,6,11.2,9.3
			c6.2,5.5,13.1,10.3,19.7,15.3c0.8,0.6,1.5,1.5,2.6,0.7c1.4-1,0.1-2.1-0.4-2.7c-2.4-2.8-3.7-6.2-5.7-9.3c-2.3-2.9-3.7-6.5-6.5-9
			c-0.9-1.1-0.6-2.8-2-3.6c-1.9-4.9-5.9-8.7-8.3-13.3c-1.3-2.9-3.1-4.9-6.7-5.5c-2.4-0.4-4.7-0.1-7.1-0.3
			C354.7,237.3,355.8,240,355.5,242.3z M325.1,109.3c-0.5,4.6,3.8,7.3,4.8,11.3c-1.1-1.3-0.8-2.8-0.7-4.3c0.2-1.8-1.7-3.1-1.1-4.9
			c1.4-3.8,1.8-8.1,5.1-11.1c3-1.3,5.5-3.9,9.2-3c4.1,2.1,7.2,5.1,8.3,9.6c0.4,1.4,1,1.6,2.1,0.5c4.5-4.5,5.8-11.2-0.5-15.3
			c-1.3-1.8-3.1-2.9-5.2-3.5c-12.3-3.5-23.2,5.2-22.2,17.7C325.1,107.4,325.1,108.3,325.1,109.3z M253.6,259.4l-0.1,0
			c-1.9,0.3-3.9,0.4-5.5,1.7c-1.8,0-3.6,0-5.3,0c-0.1-0.2-0.3-0.2-0.5-0.3c-0.6-0.2-1.1-0.4-1.7-0.6c-3.1-0.9-6.2-1.6-7.7-4.8
			c-2.3-4.9-0.2-9.2,5.3-11.4c0.8-0.3,2-0.4,2-1.4c0-1-1.1-1.2-1.9-1.4c-2.6-0.8-5.2-0.8-7.8,0.2c-6.3,2.6-9.6,10.7-7.3,18
			c0.9,3.5,3,6.2,5.9,8.4c1.2,3.8,3.9,1.1,5.1,0.5c4.7-2,4.9-2.1,5,3l-0.1,0.1c-0.1,0-0.2,0-0.3,0c0.1,0.1,0.2,0.2,0.3,0.2
			c4.8,1,9.2,0,13.3-2.7c2.2-2.2,4.4-4.5,6.6-6.7c0.3-0.2,0.6-0.4,0.9-0.6c4.3-4.8,6.6-10.4,7.7-16.6c-2,4.8-5.5,8.3-9.6,11.4
			c-1.2,0.7-2.5,1.5-3.7,2.2C254.1,258.9,253.9,259.2,253.6,259.4z M316.5,95.9c1.3-1.8,0.5-3.4-0.4-5.1c-0.8-1.6-0.1-4.7-2.9-4.2
			c-2.8,0.4-0.8,3.2-1.4,4.9c-0.2,1.3,0.5,2,1.4,2.8c2.1,1.8,2.5,3.5-0.7,4.5c-1.5,0.5-1.3,1.2-0.5,2.1c0.8,0.9,0.2,1.6-0.1,2.4
			c-1.3,2.6-1.4,5.3-1.5,8.1c-0.1,3.9-0.3,7.8-1.1,11.6c-1.3,6,0,9.4,5.1,13.1c2.9,2.1,4.3,1.2,5.4-1.5c1.9-2.1,6.7-1.6,5.8-6.1
			c0-5.7-2.3-10.8-3.9-16.2c0.2-1.1,0.2-2.1-1.2-2.5c0.2-4.6-2-8.8-2.6-13.3C317.7,96.3,316.9,96.1,316.5,95.9L316.5,95.9z
			 M258.3,169.8l0.2-0.1l-0.1-0.2c-2-3.5-5.6-2.4-8.7-2.5c-6.9,1-13.8,0.1-20.6,1.4l0,0c-3.9-1.7-7.7-0.5-11.5,0.1
			c-4.3,0-8.7-0.1-13-0.1c-0.6,0-1.4-0.1-1.5,0.7c-0.2,0.8,0.4,1,1.1,1.2c9.6,2.1,19.2,4.3,28.7,6.4c1.9,1.7,4.6,1.3,6.8,2.3
			c2.3,1.6,5.2,1.4,7.7,2.2l0,0c0.3,0.2,0.6,0.3,0.9,0.5c1.3,0.2,2.6,0.5,3.9,0.7c1.7,0,3.5,0.6,4.5-1.4c2.3-0.1,2.2-2.5,3.5-3.5
			c3.2-2.5,1.8-4.5-0.9-6.2C258.9,170.8,259.5,169.8,258.3,169.8z M358.5,313.4c1.1-0.5,2.8,2.1,3.2-0.4c0.2-1.9,1-4.4-1.3-5.8
			c-2-1.2-4.2-0.8-6.3,0.1c1.7,0.7,3.8-0.7,5.2,1.4c-1.3,1.4-3.2,0.6-4.6,1.3c-1.1,0.5-2.2,1.1-2,2.4c0.2,1.2,1.3,1.8,2.5,1.8
			c1.2,0,2.6,0.6,3.4-0.8L358.5,313.4z M280.5,271.3c1.2-2.6,2.4-5.1,3.6-7.6c-3.2,1.4-5.2,3.3-6.2,6.1c-1.5,1.6-3,3.1-3.7,5.2
			c-0.7,1.9-2.1,3.7-1.4,6c0,0.5,0,1-0.1,1.5c-1,1.1-0.9,2.2-0.1,3.4c1.3-0.8,0.7-1.9,0.9-2.7c6.9-2.1,6.9-2.1,6.9-9.6
			C280.4,272.7,280.4,272,280.5,271.3z M423.4,171.1c-1.4-1.4-3.2-1.6-5.1-1.8c-9.8-2.4-18.4,0.5-26.1,6.4c-0.7,0.5-1.8,1.1-1.2,2
			c0.7,1,1.8,0.3,2.6-0.3c2.4-1.8,5.2-2.1,8.2-2.4c3.7-0.3,6.9,1.4,10.4,1.7c1.1,1,2.5,1.6,4,2.1c1.9,0.5,2.4,2.9,4.5,3.1
			c0.3,3,3.7,4.8,3.3,8c0.8,1.5,0.2,3-0.2,4.5c-0.7,1.7-1.7,3.2-3.2,4.4c-2.3,1.2-4.7,1.6-7.6,1.6c2.9,3.6,7,4.8,10.8,3.6
			c7.5-1.5,10.5-9.3,11.4-15.6c0.2-2,0.7-4.1-0.7-6c-1-4.8-4.1-7.9-8.5-10C425.5,171.3,424.7,170.8,423.4,171.1z M415.7,237
			L415.7,237c-5-4.2-10-2.8-15.2-0.6c-0.8,0.3-1.9,0.2-1.8,1.3c0.2,1.2,1.2,1.3,2.4,1.1c3.5-0.6,6.4,0.5,8.8,3
			c1.1,2.4,1,4.8,0.7,7.3c-1.8,2.8-4.2,4.7-7.7,5.1c-1.4,0-2.8,0-4.2,0c-0.3-0.2-0.7-0.3-1-0.5c-3.4-1.8-7.4-1.9-10.8-3.7
			c-3.5-2-4.8-5.9-8.4-9.1c0.2,2.6,0.8,4,1.4,5.4c3.1,7.1,8.6,11.9,15,16.1c2.7,1.8,5.5,3.4,9,3c8.2,0.6,15.5-6.1,15.3-14
			c1.8-4.2,0.4-8.1-1.6-11.9c-0.2-0.3-0.4-0.7-0.5-1.1c0-0.2-0.2-0.3-0.4-0.4C416.4,237.7,416,237.3,415.7,237z M218.4,209.1
			c7.4,2.4,12.2,0,13.6-6.9c-3.3,1.5-6.6,2.2-9.9,0.4c-1.9-0.6-2.2-2.4-3.2-3.7c-1.5-4.1,0.9-9.2,4.6-11.5
			c4.8-2.8,10.3-2.7,15.5-4.2c1.8,2.3,4.3,3.2,7.7,3.6c-2.4-2.5-4.1-5-7.7-3.5c0-1.3-0.8-1.4-1.9-1.6c-4.4-0.7-8.8-0.7-13.2-0.7
			c-1.7,0-3.4,0.3-4.9,1.5c-3.2,0.6-5.3,2.5-6.6,5.2c-4.3,7.2-3.4,14.4,2.1,19.3C215.3,208.4,217,208.3,218.4,209.1z M210,225.5
			c0,0.4,0,0.7-0.1,1.1c-0.9,2.8,0.3,4.6,2.9,5.5c3.1,1.1,5.9,1.1,8.2-1.7c1.7-2.1,2.7-4.2,0.3-6.5c-1.2-4-4.5-4-7.7-3.5
			C211,220.8,209.5,222.7,210,225.5z M328.6,301.4c3.4-4.7,1.5-7.6-1.8-9.8c-2.5-1.6-5.9-0.6-8.1,2.3c-1.9,2.6-0.7,6.2,2.5,8.2
			C323.7,303,326.3,303.7,328.6,301.4z M295,104.1c3.8-2.9,6.5,0.5,9.7,1.9c-1.8-2.2-1.1-4.7-1.8-7c-0.5-1.7-0.6-2.2-2.6-1.2
			c-2.4,1.2-4.6,1.3-5.5-2.4c-1.1-4.5-6.9-5.8-11.2-3c-1.7,1.1-2.2,1.9-0.2,3.2c2.6,1.7,1.2,3.8-0.5,4.7c-1.5,0.7-3.5,3.3-5.7,0.5
			c-0.6-0.8-1.5-0.1-2.3,0.5c-2.3,1.8-2.8,5.1-1.2,8.7c1.2,2.6,5.8,6.1,7.8,5.8c1.3-0.2,1.4-0.8,0.8-1.8c-2.7-4.5-2.3-6.7,1.1-11.1
			c1.1-1.4,1.9-1.7,3.4-1.1c2.5,1,4.9,2.9,7.9,1.3C294.7,103.4,294.8,103.7,295,104.1c-0.2,0.2-0.4,0.5-0.6,0.8
			c0.1,0.1,0.2,0.1,0.3,0.2C294.8,104.7,294.9,104.4,295,104.1z M229.1,149.9c-1.3-6.4,1.1-11.7,6.5-13.9c2.5-1,5.4-1.3,7.9-2.4
			c0.9-0.4,2.1-0.4,2.1-1.7c0-1.1-1-1.6-1.9-2.1c-3.6-1.9-7.6-2.4-11.4-1.6c-4.6,0.9-8.9,3.3-10.7,7.5c-3.7,9-2.9,17.5,5.7,23.9
			c5.6,5.1,21.3,5.2,25,0.2c-2.4-1.4-4.7,0.7-7.3,0.2C238.4,158.5,233.6,154.6,229.1,149.9z M370.4,268.6c-0.2-0.7-0.1-1.5-1.1-1.8
			c-0.2-0.1-0.4-0.3-0.5-0.4c-1.5-3.7-4.9-5.8-7.9-8c-0.8-0.6-1.7-1.2-2.7-0.3c-1.6,1.6,0.7,1.2,1.1,1.9c1.2,2.2,2.5,4.4,3.3,6.8
			c1.3,5.4,0.8,10.7-0.7,15.8c-0.7,2.4-2.7,4.4-5.2,4.8c-3.8,0.6-7.2,0.1-10.3-3.1c-2.6-2.8-1.6-5.1,0.1-7.9
			c-7.1,2.4-9,11.3-4.3,16.9c5.6,6.7,13.5,5.8,22.1,2.5c2.3-1,4.4-2.1,6.2-3.9c3.4-3.9,4.9-8.4,3.8-13.4
			C373.3,275,372.2,271.7,370.4,268.6z M257.4,112c0.1-1.5-0.1-2.7-1.6-3.5c-4.4-2.6-8.8-1.3-10.2,3.4c-0.5,1.6,0.7,3.2,1.8,4.1
			c1.5,1.2,1.3-0.7,1.8-1.3c1.9-2,2,0.1,2.3,1.1c0.8,3,2.5,2.3,3.9,0.7C256.5,115.2,257.8,113.8,257.4,112z M383.5,317.5
			c0.4-0.2,0.8-0.3,1.2-0.5c0-3,0-6,0-9c0-0.9-0.3-1.4-1.3-1.3c-1.7,0-3.3-0.2-5-0.1c-2.4,0.2-4.4,1.3-4.3,3.8
			c0,2.7,2.2,3.9,4.7,3.7C381.5,313.9,383.4,314,383.5,317.5z M264.4,309.9c0,0.9,0,1.6,0,2.4c0,0.9-0.1,1.9,1.2,1.9
			c1.4,0,1.1-1.2,1.1-1.9c-0.1-2.2-0.1-4.5,3-4.5c3.3,0,2.6,2.7,2.7,4.7c0.1,0.7-0.1,1.6,0.9,1.7c0.5,0.1,1.1,0,1.2-0.6
			c0.1-1.9,0.7-4.1-0.7-5.7c-2.4-2.8-5.7-0.4-8.5-0.9C263.7,306.7,264.8,308.9,264.4,309.9z M404.6,308.6c-0.7,1.3-2,0.9-3.1,1.1
			c-1.7,0.3-3.7,0.6-3.5,2.6c0.2,2.2,2.5,2,4.3,2c0.6,0,1.2-0.2,1.8-0.4c1.2-0.3,3.1,1.7,3.6-0.9c0.3-1.5-0.1-2.9-0.8-4.2
			c-1.3-2.4-3.9-2.9-7.2-1.2C401.2,307.9,403,306.9,404.6,308.6z M318.8,314.1c-1.4-2.1-4-0.2-5.5-1.8c1.8-1.7,3.6-3.3,5.6-5.2
			c-3.3,0-6.1,0-9.5,0c2.1,1.2,3.9,0.2,5.4,1.2c-1.3,2.4-4.4,3-5.3,5.8C312.7,314.1,315.5,314.1,318.8,314.1z M337,308.8
			c-0.7,0.8-1.6,0.6-2.4,0.8c-1.8,0.3-4.4,0.4-4,2.8c0.4,2.3,2.8,1.9,4.7,1.8c0.9-0.1,1.8-0.8,2.9-0.2c1.3,0.6,1.3-0.4,1.4-1.4
			c0.6-5.4-1.8-7.2-7.5-5.2C333.6,308.2,335.9,306.5,337,308.8z M294.1,308.6c-0.2,0.3-0.3,0.5-0.4,0.5c-2.5,0.6-6.9,0.5-6.5,3.1
			c0.4,2.7,4.4,1.6,7.1,1.7c2.5,0.1,2.3-0.5,2.3-2.2c0-5-2.5-6.4-7.5-4.3C290.7,308,292.8,306.7,294.1,308.6z M426.9,307.1
			c-1.3-0.4-2.7-0.4-2.9-0.9c-1.2-2.6-1.3-1.7-2.9,0c-2,2,1.1,2.4,0.6,4.1c-1.1,3.3,1.2,4.5,4.7,3.4c-2.6-0.4-2.7-2.1-2.8-4
			C423.5,307.7,425.1,307.8,426.9,307.1z M251.9,307.1c-1.3-0.4-2.5-0.4-2.7-0.9c-1.2-2.8-1.4-1.5-2.9,0c-1.9,2,1,2.7,0.6,4.4
			c-0.8,3.3,1.5,3.9,4.8,2.9c-3.7-0.2-2.6-2.6-2.8-4.4C248.7,307.1,250.6,308,251.9,307.1z M306,110.3c-1.5-0.7-2.8-1.4-4.1-2
			c-0.8-0.4-1.7-0.7-2.1,0.4c-0.4,0.9,0,1.6,0.8,2.1C302.5,112,304.1,111.2,306,110.3z M305.2,121.1c1.7-1.8,1.1-3.6,1.7-5
			c0.2-0.5,0.3-2-0.7-2.1c-1.1-0.1-2.2,0.8-2,2.1C304.4,117.6,304.8,119,305.2,121.1z M349.5,112.9c1.2,0,1.7-1,1.9-1.9
			c0.1-0.7-0.5-1.1-1.2-0.9c-1,0.2-1.9,0.9-2,1.9C348.1,112.7,348.9,112.9,349.5,112.9z M410.3,130.9c0.3-0.3,0.6-0.5,0.7-0.8
			c0.2-0.5,0.7-1.4-0.4-1.2C409.8,129.1,409.9,130,410.3,130.9z M290.1,291c-0.2-0.1-0.5-0.3-0.6-0.2c-0.1,0.1-0.2,0.4-0.3,0.6
			c0.2,0.1,0.5,0.3,0.6,0.2C289.9,291.5,290,291.2,290.1,291z"/>
		<path class="st1" d="M285.8,220.1c-6.1,1.2-12.2,1-18.4,0.7c1.2-2.3-0.1-4.6-1.6-5.5c-2.5-1.5,0.1-2.2,0.1-3.2
			c0-1.8,1.3-0.8,2.1-0.6c0.9,0.2,6.4-1,6.7-1.4c0.8-1.3-0.3-7.9-1.6-9.4c0.9-4.1,2.3-8.2,1-12.4c2.8-1.7,5.4-3.7,7.8-6
			c0.9-0.1,2,0.7,2.6-0.4c0.2-0.4-0.6-0.9-1.2-1.1c-0.2-0.6-0.3-1.3-0.5-1.9c-0.2-0.3-0.4-0.6-0.6-0.9c0-0.5,0-1,0-1.5
			c0.5-0.4,0.3-0.7-0.2-0.8v0c0.2-1.9,1.3-1.2,2.4-0.8c0.6,0.2,1.4,0.9,2,0c0.4-0.7,0.4-2.3-0.2-2.3c-2.6,0-3.7-3.2-6.4-2.8
			c-1.1-3-2.1-6-3.2-9c0.1-0.1,0.1-0.3,0-0.4c-0.1-0.2,0-0.3,0.1-0.4c1.5-0.2,1.7-2.7,3.7-2.1c2.2,0.2,5.9-0.9,3.7,3.5
			c-1.1,2.1,0.3,3.4,1.7,4.3c0.9,0.5,2.4-0.3,2.7-1.4c0.5-1.6,1.5-3.6-1.3-4.8c5.2,1.3,4.7-2.7,5.8-5.3c1.1,0,1.4-0.7,1.4-1.6l0,0
			c3.4,0.4,5.5,2.1,7,5.4c1.5,3.3,0.9,6.5,1.3,9.7c-2.1,0-1-3.8-3.8-3c-2.8,1.4-4.9,4.3-8.8,3.9c-1.3-0.2-1.8,1.3-1.9,2.4
			c-0.2,2.4-0.7,4.9,1.3,7c1.3,1.3,0.9,2.6,0.4,4.3c-0.9,2.9-4.1,4.4-4.2,7.6c-0.4,0.2-1.1,0.3-1.1,0.6c-0.2,0.8,0.6,0.8,1.2,0.9
			c0.2,1.5-2.1,3.1-1,4c2.7,2.2,1.3,4.6,1,7.1c2.1-0.5,3.4-1.6,4.1-3.4c0.3-0.7,1.4-1.5-0.3-1.8c-2.2-0.4-1.4-2-1.4-3.2
			c0.1-1.9,2-0.1,2.7-1.2c-0.9-1.4-3.8-2.9-0.4-4.3c1.7-0.6,4.1-0.9,5.4,1.3c0.1,1.9,0.9,3.1,3.1,3c0.3,2.9,0.4,5.8,0.1,8.7
			c-0.2,0.1-0.5,0.3-0.8,0.4c0.2,0.1,0.5,0.3,0.8,0.4c1.1,1.7-1.5,5.2,2.8,5.5c0,2.6-2.8-1.3-3.4,1.5c-0.5,2.6-3.7,2.6-5.8,0.3
			c-0.5-2.3,1.8-1.8,2.8-2.6c-2.6-0.8-4.6-0.7-4.3,2.7c-1.2,1.6-2,4.2-3.5,4.5C282.9,215.3,284.7,217.7,285.8,220.1z"/>
		<path class="st2" d="M404.6,216.8c-11.7,0-23.4,0-35.1,0c-0.2-1.5-0.7-2.6-2.6-2.4c-1.4-0.6-2.5-1.6-2.9-3.1
			c-1.1-4.3-3.7-5.9-8.2-4.8c-5.4,1.3-8.5-3.6-13.3-4.1c-1-0.1-0.6-1.9-0.7-3c0-0.9,0.8-2.1-1-2.1c0.1-0.5,0.1-1,0.2-1.5
			c1.6-0.3,2.8-2.3,4.8-1.3c3.3,1.8,3.2-0.6,3.2-2.5c0-0.9-0.3-1.7,0.7-2.2c0.9-0.3,1.1,1.2,2.3,0.8c2.3-0.8,2.8,1.5,2.6,2.3
			c-1,3.6,1,3.3,3.5,3c4.8-0.7,8.9,0.7,13,3.1c2.1,1.2,3.2,5.2,7,3.2c0.1,0,0.7,1.2,1.3,1.6c1.1,0.7,1.9,0.2,1.7-1.2
			c0-0.3-0.2-0.5,0.2-0.8c3.2-2.4,5.3,0.5,7.6,1.5c1.4,0.6,2.6,2.1,2.4,3.9c0,0.5-0.9,1-1,1.5c-0.2,1.6-0.4,3.2,2.3,2.3
			c0.8-0.3,1.7-0.4,2.6-0.7c-2.6-2.8-2.5-3.3,1.3-4.1c0.6,0.3,1.1,0.6,1.7,0.9h0.2l0.2,0.1c0.3,3.4,1.1,6.4,5.2,7.2
			C405,214.7,404.6,215.9,404.6,216.8z M385.8,214.9c0,0.1-0.1,0.2-0.1,0.3c0,0,0.1,0.1,0.2,0.1c0-0.1,0.1-0.2,0.1-0.3
			C386,214.9,385.9,214.9,385.8,214.9z M396.5,208.1c0,0.1-0.1,0.2-0.1,0.3c0,0,0.2,0.1,0.2,0.1c0-0.1,0.1-0.2,0.1-0.3
			C396.8,208.2,396.6,208.2,396.5,208.1z"/>
		<path class="st3" d="M340.8,197.2c1.8,0.1,1,1.3,1,2.1c0,1.1-0.3,2.9,0.7,3c4.7,0.5,7.9,5.4,13.3,4.1c4.5-1.1,7.1,0.5,8.2,4.8
			c0.4,1.5,1.5,2.5,2.9,3.1c0,1,0,2,0.1,3c-5.7,0.6-11.5,0.2-17.2,0.3c-5.1,0.1-6.9,1.5-8,6.3c-1.3,5.4-3,10.8-4.5,16.2
			c-3.1-0.9-5,1.8-7.7,2.2c-2-2.1-4.5-3.4-7.5-3.8c-1.9-0.2-2.2-1-1.2-2.5c0.5-0.7,1.1-1.4,1.7-2c3.1,1.3,4.2-0.3,4.6-2.9
			c0.8-4.4,1.8-5.2,6-4.5c-0.2-1.3-0.5-2.6-0.6-4c0-0.9-0.3-2,0.9-2.6c0.9-0.4,3-0.1,2.2-1.6c-0.7-1.4-1.8-3.2-3.6-3.6
			c-4.1-1-5.6-2.7-5.6-7C332.1,205.7,337.9,203.2,340.8,197.2z"/>
		<path class="st4" d="M302.6,167.7c-0.4-3.2,0.3-6.4-1.3-9.7c-1.5-3.2-3.5-4.9-7-5.4c0.2-0.4,0.4-0.9,0.5-1.3c2.9,0,5.4-2,8.4-1.4
			c2.8,1.7,5.7,3.4,8.5,5.2c2.4,1.5,4.3,0.3,6.1-1c2,1.7,4.4,1.9,6.9,1.6c1.4,1.2,3.3,1.3,4.9,2c4,1.7,7.8,3.1,9.9,7.8
			c3.3,7.4,4.7,7.6,12.1,6.5c0.9,0.3,1.8,0.6,2.7,0.9c0,0.7-0.1,1.5-0.1,2.2c-2.3,0-4.6-0.1-6.8-0.1c-2.3-0.1-5.2,0-6.3-1.8
			c-1.9-3.1-4.6-3.2-7.6-3.4c-1.5-3-4.3-0.9-6.4-1.4c-1.7-0.7-3.4-1.5-4.5-3c-2-3-4.2-1.8-6.8-0.8c-2.8,1-1.5,3-1.7,4.5
			c-0.1,1,0.4,2.1,0.6,3.2c-1.3,1-3,1-4.6,1.3c-0.2,0.2-0.4,0.3-0.7,0.5c-0.8,0-1.5,0-2.3,0C307.3,171,302.8,170.8,302.6,167.7z"/>
		<path class="st5" d="M274.1,188.4c1.3,4.3-0.1,8.4-1,12.4c-3.6,1.7-5.9,4.2-7.6,7.9c-1.6,3.6-1.9,9.1-8.9,8.8
			c4.4,0.9,0.8,2.9,1.6,4.2c-9.6-0.3-19.2,1.3-29.1,0.6C244.2,210.9,259.2,199.7,274.1,188.4z"/>
		<path class="st6" d="M364.1,295.8c-8.5,3.3-16.5,4.2-22.1-2.5c-4.7-5.6-2.8-14.5,4.3-16.9c-1.7,2.8-2.7,5.1-0.1,7.9
			c3,3.2,6.5,3.7,10.3,3.1c2.6-0.4,4.5-2.5,5.2-4.8c1.5-5.2,2-10.5,0.7-15.8c0.5-1.3-0.8-3,0.9-4.4c1.2,2.3,2,4.9,5.3,4.1
			c0.2,0.1,0.4,0.3,0.5,0.4c0.1,0.7,0,1.6,1.1,1.8c1.9,3,2.9,6.4,3.6,9.8c1.1,5-0.3,9.5-3.8,13.5c-1.9-3.4-4.2-0.2-5.9,0.1
			C362.4,292.2,363,294.4,364.1,295.8z"/>
		<path class="st4" d="M322.6,234.2c-0.6,0.7-1.1,1.3-1.7,2c-1,1.4-0.7,2.2,1.2,2.5c3,0.3,5.5,1.7,7.5,3.8c0,0.4,0,0.9,0,1.4
			c0,1-0.1,2-0.1,2.9c-1,0.5-4-0.9-2.3,2.2l0,0c-1.9,0.4-2.7-1.9-4.5-1.5c-0.5,0-0.9-0.1-1.4-0.1l0,0c-0.1-1-0.7-1.3-1.6-1.4
			c-2.7-3.6-4.2-3.7-7.3-0.9c-0.8,0.7-1.9,1.2-2.8,1.8c-3.8-6.6-5.8-13.9-9.2-20.7c-2.9-5.9-2.5-6-9.2-6.1c-1.8,0-3.6-0.1-5.3-0.1
			c-1.1-2.4-2.9-4.8,1.9-5.7c1.4-0.3,2.3-2.9,3.5-4.5c0.5,0,0.9-0.1,1.4-0.1c2,2.3,5.3,2.3,5.8-0.3c0.6-2.8,3.4,1.1,3.4-1.5
			c2-1.6,4.9-0.5,6.9-2c0,1.8,0.3,3.7-1.3,5.1c-0.5,0.4-0.8,0.9-0.5,1.6c1.5,3.5-1.3,4.8-3.7,5.8c-1.4,0.5-3.1,0.4-3.2,2.3
			c-0.1,1.8,0.7,3.4,2.5,4.2c2.1,0.9,3.1,2.5,3.1,4.6c0,3,1.5,3.8,4.2,2.6c3.4-1.6,7-0.7,10.5-0.8
			C322.2,231.4,322.6,232.8,322.6,234.2z M292.6,215.8c0-0.8-0.3-1.5-1.3-1.4c-1,0.1-1.6,0.7-1.7,1.6c0,1,0.5,1.7,1.5,1.6
			C292.3,217.6,292.6,216.7,292.6,215.8z"/>
		<path class="st7" d="M366,131.4c-2.1,7.7-4,15.4-6.4,23c-1.3,4.4-1.2,9.2-3.7,13.3c-2.3-1.3-3.7-3.8-6.5-4.4
			c-2.3-2.7-6.4-4.2-6.3-8.5l-0.2-0.3c0.6-1.7,0-2.8-1.9-3.1c-0.3-0.2-0.6-0.4-0.9-0.6c0.3-1.5-0.8-3.8,2.3-3.7
			c0.9,1.4,1.8,3.5,3.6,3.3c4.1-0.3,8.2-1,12.4-0.6c1.1,0.1,1.7-0.8,1.6-1.7c-0.1-1.8-0.2-3.7-0.9-5.3c-0.7-1.5-2.5,0.1-3.8-0.1
			c-1.3-0.2-2.8-0.1-4.2-0.1l-0.1-0.1c-0.1-1.1-0.1-2.1-1.7-1.9c-2.5,0-5,0.1-7.5,0.1c-0.6-0.1-1.3-0.2-1.7-0.9
			c0.7-1.7,2.4-2.2,3.8-3.2c1.1-0.2,2.9,0.9,2.6-1.5c0.2-0.1,0.3-0.2,0.4-0.4c2.9,0.2,4.9,2.2,7.2,3.6c1.2,0.7,2.1,1.2,2.7-0.1
			c0.8-2.1,3.2-3.4,3-5.9c0.4-0.8,0.8-1.6,1.2-2.5c0.4,0,0.9,0,1.3,0C362.9,131.7,364.7,131,366,131.4z"/>
		<path class="st6" d="M309.5,247c0.9-0.6,2-1.1,2.8-1.8c3.1-2.9,4.6-2.7,7.3,0.9c0,1.1,0.5,1.6,1.6,1.4l0,0
			c-0.2,1.1,0.2,1.6,1.3,1.7c0.1,0.2,0.1,0.4,0.2,0.6c-0.3,0.6-0.6,1.3-0.9,2c-1.4,3.3,0.3,6.1,3.7,6.3l0.1,0.1
			c-0.4,2.6,3.1,1.8,3.1,2.5c0.3,3.6,1.5,0.7,2.3,0.4c-1.2,4.4-2.3,8.8-3.8,13.1c-0.5,1.5-0.8,3-1,4.6c-1.5-0.2-3.1-0.3-4.6-0.5
			l0-0.1c0-0.1,0.1-0.2,0.1-0.3c-0.1-0.2-0.2-0.4-0.3-0.6c-0.1-0.2-0.2-0.5-0.3-0.7c0-0.8,0-1.6-1-1.9l-0.1-0.1
			c0.1-0.6,0.1-1.2-0.5-1.6C316,264.2,312.2,255.8,309.5,247z"/>
		<path class="st3" d="M333.7,169.9c3,0.1,5.7,0.3,7.6,3.4c1.1,1.8,4,1.7,6.3,1.8c2.3,0.1,4.6,0.1,6.8,0.1c0.4,0.9-0.4,1.4-0.8,2
			c-1.3,0.6-3.9-1-3.9,1.4c0.1,1.9,2.1,3.2,4.4,3c0.5,0,1,0,1.5-0.1c1.3,0.1,2.3,0.8,3.2,1.6c-1.6,0.3-0.7,2.1-2.1,3
			c-2.4,1.5-5.2,0.8-7.5,2.1c-2.8-0.6-3.6,2.5-5.9,3c-0.5-0.8,0.2-2-1.3-2.7c-0.3,2.1-1.1,3.4-3.3,3.9c-2.3,0.4-2.8,2.2-2.3,4.2
			c-1.1,1.8-3.2,2.7-4.7,4c-0.6,0.5-1.3,0.7-2,0.4c-1.1-0.4-0.9-1.5-0.7-2.2c0.7-2.6,0.9-5.4,2.6-7.7c0.9,0.3,1.7,0.6,2.8,0.2
			c2.6-0.7,0.8-3.3,2.3-4.3c1.8-1.1,3.1-3.4,2.7-4.6c-0.7-1.8-3.4-0.6-5.2-0.9c-0.5-2.2,1.5-4.5-0.2-6.6c0.6-1,2.6-0.7,2.3-2.5
			c-0.3-1.6-1.7-1.1-2.7-1.4C333.6,170.8,333.7,170.3,333.7,169.9z"/>
		<path class="st5" d="M242.8,261.2c1.8,0,3.6,0,5.3,0c2,2.4,3.6,4.9,4.3,7.9c-4,2.7-8.5,3.6-13.3,2.7v-0.3l0.1-0.1
			c4.4-1.1,1.2-4.5,2.2-6.7c0.2-0.6-5.4-2.5-6.3-2c-0.6,0.3-1.1,0.6-1.2,1.3c-0.2,3.1-2.4,3.2-4.8,3.1c2.6-5.5,1.4-7.5-4.4-7.5
			c-0.5,0-1,0-1.5,0.1c-2.4-7.3,0.9-15.4,7.3-18c2.5-1,5.2-1,7.8-0.2c0.8,0.3,2,0.4,1.9,1.4c0,1-1.1,1.1-2,1.4
			c-5.6,2.2-7.6,6.5-5.3,11.4c1.4,3.1,4.6,3.9,7.7,4.8c0.6,0.2,1.2,0.4,1.7,0.6l0.2,0.3L242.8,261.2z"/>
		<path class="st5" d="M227.4,159.6c-8.6-6.5-9.4-14.9-5.7-23.9c1.7-4.2,6.1-6.6,10.7-7.5c3.9-0.7,7.8-0.2,11.4,1.6
			c0.9,0.5,1.9,1,1.9,2.1c0,1.2-1.2,1.3-2.1,1.7c-2.6,1.2-5.4,1.4-7.9,2.4c-5.4,2.1-7.8,7.5-6.5,13.9c-2.8,1.6-2.8,1.6-0.9,3.8
			c0.2,0.2,0.3,0.8,0.2,0.9C226.5,156,228.2,158,227.4,159.6z"/>
		<path class="st8" d="M349.3,188.3c2.3-1.3,5-0.6,7.5-2.1c1.5-0.9,0.6-2.7,2.1-3c10.9,6.6,21.9,13.2,32.8,19.9c1.5,1,3.7,1.1,4.6,3
			c-3.8,0.9-3.9,1.3-1.3,4.1c-0.9,0.2-1.8,0.4-2.6,0.7c-2.6,0.9-2.5-0.7-2.3-2.3c0.1-0.5,0.9-1,1-1.5c0.2-1.8-1-3.2-2.4-3.9
			c-2.4-1.1-4.5-3.9-7.6-1.5c-0.4,0.3-0.2,0.4-0.2,0.8c0.1,1.4-0.7,1.9-1.7,1.2c-0.6-0.4-1.2-1.6-1.3-1.6c-3.8,2.1-4.9-2-7-3.2
			c-4.2-2.4-8.2-3.8-13-3.1c-2.5,0.4-4.5,0.7-3.5-3c0.2-0.8-0.3-3.1-2.6-2.3c-1.1,0.4-1.3-1.1-2.3-0.8
			C349.4,189.3,349.4,188.8,349.3,188.3z"/>
		<path class="st6" d="M388.5,267.6c1.9,3.1,3.3,6.4,5.7,9.3c0.5,0.6,1.8,1.7,0.4,2.7c-1.1,0.7-1.8-0.2-2.6-0.7
			c-6.6-5.1-13.5-9.8-19.7-15.3c-3.7-3.2-8.4-5.2-11.2-9.3c-0.2-0.6-0.7-0.8-1.2-0.9l-0.2-0.2c-0.7-2.9,0.9-5.8,0-8.7
			c2.5,0.2,3.8,1.2,3.8,4c0,3.5,3.5,6.5,7.3,6.5c3.1,0,6.2,0,9.3-0.1c1.4,0.8,1.1,2.6,2,3.6c-0.7,0.2-2,0.7-1.6,1.1
			c2.7,2.5-0.8,2.4-1.5,3.4C381.6,265.8,384.4,267.8,388.5,267.6z M361.6,252.5c0.2-0.1,0.5-0.1,0.6-0.3c0.1-0.1-0.1-0.4-0.2-0.6
			c-0.2,0.1-0.5,0.2-0.7,0.4C361.4,252.2,361.5,252.3,361.6,252.5z"/>
		<path class="st9" d="M295,104.1c-0.1-0.3-0.2-0.7-0.4-1c-3,1.6-5.3-0.3-7.9-1.3c-1.5-0.6-2.4-0.3-3.4,1.1
			c-3.4,4.4-3.7,6.6-1.1,11.1c0.6,1,0.5,1.6-0.8,1.8c-2,0.3-6.6-3.2-7.8-5.8c-1.6-3.6-1.1-6.9,1.2-8.7c0.8-0.6,1.7-1.3,2.3-0.5
			c2.2,2.8,4.2,0.3,5.7-0.5c1.7-0.9,3.2-2.9,0.5-4.7c-2-1.3-1.4-2.1,0.2-3.2c4.3-2.8,10.1-1.5,11.2,3c0.9,3.7,3.2,3.6,5.5,2.4
			c2-1.1,2-0.5,2.6,1.2c0.7,2.2,0.1,4.7,1.8,7C301.5,104.6,298.8,101.2,295,104.1L295,104.1z"/>
		<path class="st10" d="M239.6,178.9c-2.2-1-4.9-0.6-6.8-2.3c1.4-2.5,0.4-4.3-1.8-5.9c-0.8-0.6-2.1-1-1.9-2.5
			c6.8-1.3,13.8-0.3,20.6-1.4c-0.2,1.5-1.5,3.3,0.4,4.4c1.9,1.1,4.1,1.3,6.2,0.1c0.8-0.5,1.4-1.4,2.1-2l0.1,0.2l-0.2,0.1
			c-0.2,0.7,0,1.3,0.9,1.6c2.7,1.7,4.1,3.6,0.9,6.2c-1.3,1-1.2,3.3-3.5,3.5c-0.7-1.5-2-1.8-3.4-1.2c-1,0.4-2.1,1.2-1.1,2.6
			c-1.3-0.2-2.6-0.5-3.9-0.7c-0.3-0.2-0.6-0.3-0.9-0.5l0,0c-1.5-2.6,1.1-3.9,2.1-5.5c0.6-1,1.1-1.5,0.2-2.5c-1.1-1.1-1.3,0.4-2,0.5
			C244.3,174.5,241.8,176.5,239.6,178.9z"/>
		<path class="st10" d="M398.5,156.5c0.8-0.2,1.5-0.4,2.3-0.5c-0.4,3.1,2.3,4.5,3.9,6.5h0c-0.7-0.1-1.2,0.1-1.3,0.9l-0.2-0.1
			l0.1,0.1c-0.8,0-1.4,0.3-1.7,1.1c-4.4,3.9-9.4,7-14.6,9.8c-5.6-3.2-7.6-9.2-5.4-12.3c4.7-1.5,9.4-3.1,14.1-4.6
			c0.2,0,0.4,0,0.5-0.2c0.5-0.1,1.1-0.1,1.6-0.2C398.3,157.3,398.4,157,398.5,156.5z"/>
		<path class="st5" d="M239,183.2c-5.1,1.4-10.7,1.4-15.5,4.2c-3.8,2.2-6.1,7.4-4.6,11.5c-1.7,2.6-3.2,5.2-4.4,8
			c-5.6-4.8-6.4-12-2.1-19.3c3.8,0.2,5.8-1.8,6.6-5.2c1.4-1.2,3.1-1.5,4.9-1.5c4.4,0,8.8,0,13.2,0.7C238.2,181.8,239,182,239,183.2
			L239,183.2z"/>
		<path class="st11" d="M325.1,106.4c-1-12.5,9.9-21.2,22.2-17.7c2.1,0.6,3.9,1.7,5.2,3.5c-0.2,2.3-1.9,2.2-3.6,2.2
			c-2.6,0-5.1,0.1-6.3,2.9c-3.7-0.9-6.3,1.7-9.2,3c-1.3,0-2.2,0.4-3.1,1.6C328.8,103.7,327.3,105.5,325.1,106.4z"/>
		<path class="st2" d="M403.9,265.2c-3.5,0.5-6.3-1.2-9-3c-6.4-4.2-11.9-9-15-16.1c-0.6-1.4-1.2-2.8-1.4-5.4
			c3.6,3.2,4.9,7.1,8.4,9.1c3.4,1.9,7.5,1.9,10.8,3.7c0.3,0.2,0.7,0.3,1,0.5c1.4,0,2.8,0,4.2,0c0.2,0.5,2.4-0.5,1,1.3
			c-0.6,0.8-2.8,1.4-1.1,3C405.1,260.5,404.7,262.8,403.9,265.2z M401.6,258.8c-1.9,0.4-3.2,0.3-3.7,1.7c-0.2,0.4,0.1,1,0.7,1
			C400.1,261.5,400.6,260.3,401.6,258.8z"/>
		<path class="st12" d="M319.7,134.6c-1.1,2.7-2.5,3.6-5.4,1.6c-5.1-3.7-6.4-7.1-5.1-13.1c0.8-3.8,1-7.7,1.1-11.6
			c0.1-2.8,0.3-5.6,1.5-8.1c0.5,0,1,0,1.5,0.1c0.9,1.2,1.1,2.6-0.1,3.6c-2,1.9-0.4,2.2,1.1,2.7c0.1,0,0.1,0.4,0.1,0.5
			c-0.4,1.2-2.2,0.9-2.3,2.8c2-0.4,3.8,0.7,5.7,0.8c0.1,1.1-0.7,1.6-1.1,2.5c-1.6,2.7-3.6,5.6-1.3,8.9c-0.8,2.1-0.1,3.9,2.1,4.1
			c3.5,0.4,3.3,1.8,1.4,3.7C318,134,318.3,134.4,319.7,134.6z"/>
		<path class="st8" d="M379.9,254.9c-3.1,0-6.2,0.1-9.3,0.1c-3.8,0-7.3-3-7.3-6.5c0-2.7-1.2-3.8-3.8-4c-0.2-0.2-0.5-0.5-0.7-0.7
			c0-0.5,0-1-0.1-1.4c0-0.2,0-0.3-0.1-0.5c1.1-0.7,2.2-1.6,3.4-2.3c1-0.5,1.1-2.9,2.6-1.9c1.1,0.7,2.3,2.9,1.9,3.7
			c-1.2,2.6,0.7,1.5,1.7,1.7c1.5,0.3,2.1-1.3,3.3-1.5C374,246.3,377.9,250,379.9,254.9z"/>
		<path class="st9" d="M300.4,297.1c-1.3,2.5-7.1,4.7-9.2,3c-2.2-1.7-4.4-1.5-6.8-1.5c-2.1,0-4.1-0.4-5.8-1.4
			c-1.3-0.7-2.8-2.3-1.2-3.5c2.8-2.1,0.4-2.6-0.8-3.1c-3.2-1.3-2.7-2.3-0.1-3.8c4.6-2.7,4.3-2.5,8.6,1c1.9,1.6,2.4,2.6,1.7,4.7
			c-0.4,1.3-0.7,3.1,0.8,4.1c1.6,1.1,3.1,0.3,4.4-0.8c0.3-0.3,1-0.2,1.5-0.2c0.7,0,1.8,0.2,2.2-0.2C298.3,293,299.4,295,300.4,297.1
			z"/>
		<path class="st8" d="M403.9,265.2c0.8-2.4,1.2-4.7-0.9-6.7c-1.8-1.6,0.5-2.2,1.1-3c1.3-1.8-0.8-0.8-1-1.3c3.5-0.4,5.9-2.3,7.7-5.1
			c3.2-0.5,4,1.7,4.6,4.4c1.3-1.4,2.3-2.5,4-2.2C419.4,259.1,412.1,265.8,403.9,265.2z"/>
		<path class="st13" d="M340.2,150.7c0.3,0.2,0.6,0.4,0.9,0.6c0.3,1.1,0.6,2.1,0.8,3.1c0.1,1.9-1,3.4-1.8,5.1
			c-2.4,0.1-3.3-2-4.3-3.3c-2.6-3.1-8.2-3.5-11-0.4c-2.5,0.3-4.9,0.1-6.9-1.6c5.6-3.8,11.2-7.6,16.8-11.4c0.7-0.5,1.6-0.7,2.4-1.1
			c-2.2,2.7-0.1,5.4,0.2,8.1C337.6,151.5,338.9,151.4,340.2,150.7z"/>
		<path class="st10" d="M412.3,176.7c-3.5-0.3-6.7-2-10.4-1.7c-3,0.2-5.8,0.5-8.2,2.4c-0.8,0.6-1.9,1.4-2.6,0.3
			c-0.6-0.8,0.5-1.4,1.2-2c7.7-5.9,16.2-8.7,26.1-6.4c1.2,1.5,2.7,2.9,0.8,4.9c-0.3,0.1-0.6,0.2-0.8,0.3
			C415.6,173.4,414.4,176.4,412.3,176.7z"/>
		<path class="st10" d="M227.4,159.6c0.8-1.6-0.9-3.6,0.9-5c0.1-0.1,0-0.7-0.2-0.9c-1.9-2.2-1.9-2.2,0.9-3.8
			c4.4,4.7,9.3,8.6,16,10.1c2.6,0.5,4.9-1.6,7.3-0.2C248.8,164.8,233,164.7,227.4,159.6z"/>
		<path class="st6" d="M288.8,242.5c2.9,5.7,2.4,7.9-3.2,13.3c-1.2-0.9-0.5-3.9-2-3.3c-2.1,1-4.4-0.4-6.2,1.1
			c-0.6-0.1-1.2-0.2-1.8-0.2c-0.2-0.5-0.7-0.6-1.2-0.6c-0.1-0.5-0.2-1.1-0.3-1.6c-0.2-1.6-1.5-1.8-2.8-2c0.3-0.7,0.6-1.5,0.8-2.2
			c2.4-0.8,4.3-3.6,7.4-0.3c1.6,1.7,6.1-0.9,6.9-3.5C287.1,242.4,287.9,242.4,288.8,242.5z"/>
		<path class="st14" d="M258.1,221.7c-0.8-1.2,2.8-3.3-1.6-4.2c7,0.3,7.3-5.1,8.9-8.8c1.7-3.7,4-6.2,7.6-7.9c1.3,1.4,2.4,8,1.6,9.4
			c-0.2,0.4-5.8,1.6-6.7,1.4c-0.8-0.2-2.1-1.3-2.1,0.6c0,1-2.5,1.7-0.1,3.2c1.5,0.9,2.8,3.2,1.6,5.5
			C264.3,221.1,261.2,221.4,258.1,221.7z"/>
		<path class="st9" d="M342.5,97.4c1.2-2.8,3.7-2.9,6.3-2.9c1.7,0,3.4,0.1,3.6-2.2c6.3,4.1,5.1,10.8,0.5,15.3
			c-1.1,1.1-1.7,0.9-2.1-0.5C349.7,102.5,346.6,99.5,342.5,97.4z"/>
		<path class="st13" d="M424,189.8c0.4-3.2-3-5-3.3-8c1.5-0.7,1.9-3.3,2.3-3.3c4.7-0.4,2.7-3.8,3.1-6.1c4.4,2.1,7.5,5.2,8.5,10
			c-1.8,0-3.1,0.7-3.8,2.4c-1.1-0.2-1.7,0.3-2.3,1.1c-1.8,0.1-3.3,0.7-3.1,2.8C425.6,190,424.6,189.6,424,189.8z"/>
		<path class="st5" d="M315.5,125c-2.3-3.3-0.3-6.2,1.3-8.9c0.5-0.8,1.3-1.4,1.1-2.5l0,0c1.4,0.1,2-1.9,3.6-1.4
			c1.7,5.3,3.9,10.5,3.9,16.2c-2.7-1.2-6.6,0.3-8.2-3.4C317.2,124.8,316.1,125,315.5,125z"/>
		<path class="st5" d="M405.4,145.6c1.2,3.6-2.6,4.2-4.2,5.2c-5,3.2-11.3,3.6-17,5.4c0.8-1.8,2.7-1.9,4-2.8c4.4-3,8.4-6.2,10.3-11.4
			c0.2-0.6,0.9-1.2,1.3-1.8C400.4,143.2,402.9,144.4,405.4,145.6z"/>
		<path class="st2" d="M419.2,251.3c-1.7-0.3-2.7,0.9-4,2.2c-0.6-2.8-1.4-5-4.6-4.4c0.3-2.5,0.3-4.9-0.7-7.3
			c1.1-2.5,1.1-6.2,5.7-4.8l0.1,0.1c-0.1,0.7,0.5,1,1.1,1c0.2,0.1,0.3,0.2,0.4,0.4c0.2,0.3,0.4,0.7,0.5,1.1
			C419.6,243.2,421,247,419.2,251.3z"/>
		<path class="st5" d="M229.1,168.3c-0.2,1.4,1.1,1.8,1.9,2.5c2.1,1.6,3.2,3.4,1.8,5.9c-9.6-2.1-19.2-4.3-28.7-6.4
			c-0.7-0.2-1.2-0.4-1.1-1.2c0.2-0.8,0.9-0.7,1.5-0.7c4.3,0,8.7,0.1,13,0.1c-0.2,2.2,1.1,3.6,3.1,4.4c2.1,0.9,3.9,0.1,5.5-1.3
			c1.1-1,2-2.1,3-3.2V168.3z"/>
		<path class="st8" d="M435.2,188.4c-0.9,6.3-3.9,14.1-11.4,15.6c-3.8-0.2-3.7-2.6-3.2-5.2c1.4-1.2,2.5-2.7,3.2-4.4
			c3.2-0.4,2.1,3.1,3.8,4c1.8-1.1-0.6-2.7,0.7-3.9c2.2-1.9,3.3-4.6,5-6.9C434,187.8,434.6,188.1,435.2,188.4z"/>
		<path class="st12" d="M321.1,302.1c-3.2-2-4.4-5.7-2.5-8.2c2.1-3,5.6-4,8.1-2.3c3.3,2.2,5.2,5.1,1.8,9.8
			C325.8,298.9,323.4,299.9,321.1,302.1z"/>
		<path class="st9" d="M385.5,124.7c-0.7,0.8-1.7,1.2-2,0c-0.5-1.5-0.8-3.2,0.5-4.5c0.9-0.9,2.1-1.4,3.4-1.3
			c3.3,0.4,6.7,1.1,10.1,0.3c1.3-0.3,0.9,1.2,1.6,1.7c0.8,0.5,0.9,1.2-0.2,1.6c-1.3,0.5-1.1,1.2-0.2,1.8c0.7,0.4,1.7,0.4,1.9-0.4
			c0.5-3,2.2-2,3.8-1.1c2.3,1.4,2.1,3.1,0.3,4.8c-1.1,0.2-2.5-1.6-3.3,0.5c-0.5,0.3-1.1,0.7-1.6,1c-2.3,0.1-1.4-1.9-2-2.9
			c-1.7-2.8-4.7-1.7-7.1-2.4c-0.1-1.9-1.2-3-3.1-2.9C385.1,121.2,385.6,123.2,385.5,124.7z"/>
		<path class="st11" d="M285.1,140.2c1.1,1.5,3.4,0.7,4.5,2.2c0,0.2,0,0.5,0,0.7c0.1,2.7-5.2,6,0.9,8.1c0.1,0.1-0.1,1.4-0.2,2.1
			c-1.6-0.7-3.1-0.6-4.6,0.3c-1.7,1.1-3.6,1.2-5.3,0c0.9-1.3,0.9-2.5,0-3.8c1.1-0.5,2.1-1.6,1.3-2.6c-1.4-1.9,0-3.1,0.5-4.7
			C284.1,142.9,284.7,141.6,285.1,140.2z"/>
		<path class="st11" d="M261.2,271.3c1.4-3.5,2.9-7,4.3-10.5c0.4,1.6,0.4,3.3,1.5,4.6c1.1,1.3,2.2,2.6,4.2,2.6
			c1.1,0.9,2.1-0.6,3.2-0.1c-1.4,3.4-4.4,5.5-7,7.9c-2.5-0.3-6,0.6-5-3.9C262.4,271.7,261.6,271.5,261.2,271.3z"/>
		<path class="st9" d="M257.4,112c0.4,1.8-0.9,3.2-2,4.5c-1.4,1.6-3,2.4-3.9-0.7c-0.2-1-0.4-3.1-2.3-1.1c-0.6,0.6-0.4,2.5-1.8,1.3
			c-1.2-1-2.3-2.5-1.8-4.1c1.4-4.7,5.8-6,10.2-3.4C257.3,109.3,257.5,110.5,257.4,112z"/>
		<path class="st14" d="M381.6,162c-2.2,3.1-0.2,9.1,5.4,12.3c-2,2.2-4.4,3.7-7.7,3.1c-0.9-1.5-0.7-3.2-0.8-4.9
			c-0.2-0.3-0.4-0.7-0.6-1.1l-0.1-0.1c0.3-2.7-2.1-3.2-3.8-4.3c0.2-0.5,0.3-1,0.5-1.5c0.2,0,0.3-0.1,0.3-0.3
			C376.4,162.8,378.7,161.8,381.6,162z"/>
		<path class="st12" d="M221.3,224c2.5,2.2,1.4,4.4-0.3,6.5c-2.3,2.8-5.2,2.8-8.2,1.7c-2.6-1-3.8-2.8-2.9-5.5
			c0.1-0.3,0.1-0.7,0.1-1.1c0.8,1.6,2.6,3.4,3.9,1.6C215.8,224.2,218,223.2,221.3,224z"/>
		<path class="st11" d="M359.8,132.1c0.2,2.5-2.2,3.9-3,5.9c-0.5,1.3-1.5,0.9-2.7,0.1c-2.3-1.4-4.3-3.4-7.2-3.6
			c0.1-0.2,0.1-0.6,0.2-0.7c6.1-2,9.4-8,15.6-10.4c-0.1,1.7-0.2,3.3-0.4,4.9h0c-0.5,0-1,0-1.5,0c-3.5,0.5-4.7,3.7-7.4,5.2
			C356.7,136.2,357.6,132,359.8,132.1z"/>
		<path class="st11" d="M317.9,113.7c-2,0-3.7-1.2-5.7-0.8c0.1-1.9,1.9-1.6,2.3-2.8c0-0.1,0-0.4-0.1-0.5c-1.4-0.5-3.1-0.7-1.1-2.7
			c1.1-1.1,1-2.4,0.1-3.6c2.4-1.9,3.6-4.4,3.1-7.4c0.4,0.2,1.2,0.4,1.2,0.6c0.6,4.5,2.9,8.7,2.6,13.3c-0.4,1.5-2.5,2-2.4,3.8
			L317.9,113.7z"/>
		<path class="st5" d="M404.7,162.5c-1.6-2-4.2-3.4-3.9-6.5c3.3-1.7,6.8-3,10.6-3.1c1.1,1,2.1,2,3.1,3
			C411.2,158,408.5,161.1,404.7,162.5z"/>
		<path class="st3" d="M322.7,249.7c-0.1-0.2-0.1-0.4-0.2-0.6c0-0.5,0.1-1,0.1-1.5c1.9-0.4,2.7,2,4.5,1.5c0.1,0.5,0,1.1,0.2,1.4
			c0.5,0.8,1.1,1.8,2.2,1.7c0.8,0,0.6-0.9,0.7-1.5c0.1-1.5-1-1.8-2.3-1.7c-0.2,0-0.5,0-0.8,0c-1.8-3.1,1.2-1.8,2.3-2.2
			c0.8,0,1.5,0,2.3,0l0.1,0c0.4,1.4,0.1,3.2,2.2,3.8c-0.9,2.5-0.2,5.5-2.8,7.4c-1.9,0-3.7,0-5.6,0l-0.1-0.1c0-1.8-0.1-3.7,0.1-5.5
			C325.9,250.2,324.7,249.6,322.7,249.7z"/>
		<path class="st12" d="M267,265.4c-1.2-1.3-1.2-3-1.5-4.6c1.5-3.3,2.3-6.9,4.9-9.6c1.3,1.1,2.6,0.4,3.9,0c0.1,0.5,0.2,1.1,0.3,1.6
			c0.1,0.6,0.6,0.7,1.2,0.6c0.6,0.1,1.2,0.2,1.8,0.2c-0.2,1.9,1.9,2.6,2.3,4.2c-2.1,0.1-4.2-0.4-6.2-1.1c-2.6-0.8-4.6,1.2-4.3,2.7
			C269.6,262.2,268.2,263.6,267,265.4z"/>
		<path class="st11" d="M300.4,297.1c-1-2.1-2-4.1-4.8-1.6c-0.4,0.4-1.4,0.1-2.2,0.2c-0.1-1.5,0.6-2.2,2-3c3.1-1.7,5.8-3.8,7.9-6.6
			c1.5-0.8,1.9,3.5,3.8,0.8c0.1,3.7-2.4,6.4-4.1,9.4C302.5,297.2,301.4,297.1,300.4,297.1z"/>
		<path class="st12" d="M290.3,153.4c0.1-0.7,0.4-2,0.2-2.1c-6.1-2.1-0.8-5.4-0.9-8.1c0-0.2,0-0.5,0-0.7c3.9,0.7,6.7,3.4,9.9,5.4
			c-2.5,0-3.5,1.8-4.6,3.6c-0.2,0.4-0.4,0.9-0.5,1.3l0,0c-0.8-0.1-1.2,0.4-1.5,1.1C292,153.6,291.1,153.5,290.3,153.4z"/>
		<path class="st2" d="M426.1,226c-0.5,0-1.1,0-1.5,0c-4.1-1.6-2.7-4.8-1.9-7.4c0.8-2.9,3.2-2.9,5.7-2c3.3,5.6,3.1,6.8-1.4,8.9
			C426.7,225.6,426.4,225.8,426.1,226z"/>
		<path class="st8" d="M404.6,216.8c0-0.9,0.5-2.1-0.9-2.5c-4.1-0.9-4.9-3.9-5.2-7.2c4.7,2.1,9.2,4.8,13.5,7.7
			c0.6,0.4,1.6,0.5,1.4,1.5c-0.2,1-1.2,0.8-1.9,0.8C409.1,217,406.8,216.9,404.6,216.8z"/>
		<path class="st5" d="M222.1,202.6c3.3,1.8,6.5,1.1,9.9-0.4c-1.4,6.9-6.3,9.2-13.6,6.9C220.3,207.3,221.9,205.3,222.1,202.6z"/>
		<path class="st15" d="M288.8,242.5c-0.9,0-1.8-0.1-2.4,0.6c-3.5,0.2-7.1-0.4-10.6,0.4c-1,0.2-1.4-0.3-1.6-1.1
			c1.5-5.5,6.5-3.2,10-4.1C287.3,237.6,288.8,239.5,288.8,242.5z"/>
		<path class="st8" d="M415.6,236.9c-4.6-1.3-4.6,2.4-5.7,4.8c-2.4-2.5-5.3-3.6-8.8-3c-1.1,0.2-2.2,0.1-2.4-1.1
			c-0.2-1.1,0.9-1,1.8-1.3C405.7,234.2,410.7,232.8,415.6,236.9z"/>
		<path class="st7" d="M433.4,187.5c-1.7,2.3-2.8,5-5,6.9c-1.4,1.2,1.1,2.8-0.7,3.9c-1.7-1-0.6-4.5-3.8-4c0.4-1.5,1.1-3,0.2-4.5
			c0.6-0.2,1.5,0.2,1.4-1.1c-0.3-2.1,1.2-2.7,3.1-2.8c0.5,0.8,0.5,2.3,1.7,2s0.4-1.7,0.6-2.6C432,185.5,432.9,186.3,433.4,187.5z"/>
		<path class="st9" d="M261.2,271.3c0.4,0.2,1.3,0.5,1.2,0.6c-1,4.5,2.5,3.6,5,3.9c0,1.3-1.1,2-1.9,2.6c-2,1.5-5.7,1.5-5.1,5.4
			c0,0-0.7,0.1-1.1,0.2c-0.7-0.6,0.9-1.7-0.5-2.2c-1.7-0.5-2.3,1.2-3.5,1.6C258.4,279.8,257.7,274.6,261.2,271.3z"/>
		<path class="st15" d="M426,172.4c-0.4,2.3,1.6,5.7-3.1,6.1c-0.3,0-0.7,2.6-2.3,3.3c-2.1-0.1-2.6-2.5-4.5-3.1
			c2.1-0.7,1.9-2.6,2.1-4.2c0.3-0.1,0.6-0.2,0.8-0.3c1.8,0.1,4.5,1.4,3.4-2.5c0-0.1,0.6-0.4,0.8-0.7
			C424.7,170.8,425.5,171.3,426,172.4z"/>
		<path class="st12" d="M229.1,266.9c2.4,0.1,4.6,0.1,4.8-3.1c0-0.7,0.6-1,1.2-1.3c0.9-0.4,6.6,1.5,6.3,2c-1,2.2,2.2,5.7-2.2,6.7
			c-0.2-5.1-0.4-5-5-3c-1.2,0.5-3.9,3.3-5.1-0.5C229.1,267.5,229.1,267.2,229.1,266.9z"/>
		<path class="st14" d="M225.3,308.3c-0.3,0.2-0.6,0.5-0.8,0.7c-0.6,0.3-0.7,0.8-0.6,1.4c-0.4,1.7,1.9,1.8,2,3.5
			c-2.3-0.1-4-1.1-4.3-3.2c-0.3-2.4,1.4-3.7,3.6-4c2-0.3,4-0.1,6.1-0.1c0.6,0,0.9,0.2,1.2,0.7c2.5,4.6-1.1,10.1-6.5,9.9
			c-0.8,0-1.7-0.2-2.6-1.1c1.2,0,2.5,0.1,3.6,0c1.6-0.2,3.5-0.4,2.8-2.8c0-0.5-0.1-1-0.1-1.4c0.2-0.1,0.4-0.3,0.3-0.6
			c0.7-0.8,0.7-1.6-0.1-2.4l0,0C228.6,307.1,227,307.2,225.3,308.3z"/>
		<path class="st10" d="M280.5,149.9c0.9,1.3,0.9,2.5,0,3.8c0,1.4-0.1,2.8-0.1,4.3c-2-0.5-2.1,1.9-3.7,2.1c0.6-1.9,2.6-4-1.6-4.7
			c-1.4-0.2-1.9-2.8-2.1-4.6c2,0.9,2.7,0,2.9-1.8C277.8,147.1,278.8,150.1,280.5,149.9z"/>
		<path class="st11" d="M275.8,149c-0.2,1.8-0.9,2.7-2.9,1.8c-1.9-3.6,0.7-6.9,0.6-10.4c0.5,0,1-0.1,1.5-0.1
			c1.9,0.6,3.6-0.9,5.5-0.6c-0.1,0.6-0.1,1.5-0.5,1.7c-1.7,0.9-4.7,1.6-0.1,2.8c0.7,0.2,0.5,1-0.1,1.5c-1.1,0.9-2.2,1.4-3.7,1.5
			C273.9,147.3,274.1,148.2,275.8,149z"/>
		<path class="st12" d="M371.6,241.6c-1.2,0.2-1.9,1.8-3.3,1.5c-0.9-0.2-2.9,0.9-1.7-1.7c0.4-0.9-0.8-3-1.9-3.7
			c-1.5-1-1.6,1.3-2.6,1.9c-1.2,0.6-2.3,1.5-3.4,2.2c-0.2-2,0.6-4.1-0.9-5.9c2.4,0.1,4.7-0.1,7.1,0.3
			C368.5,236.7,370.3,238.8,371.6,241.6z"/>
		<path class="st11" d="M274.2,274.8c0.7-2.1,2.2-3.6,3.7-5.2c1,0.4,1.3,1.7,2.6,1.6c0,0.7,0,1.5,0,2.2c-0.1,7.5-0.1,7.5-6.9,9.6
			c-0.3-0.2-0.6-0.5-0.8-0.7c0-0.5,0-1,0.1-1.5c2.4,0.3,4.3,0,4.6-2.9C277.5,275.7,276.3,274.8,274.2,274.8z"/>
		<path class="st5" d="M221.3,224c-3.3-0.7-5.4,0.2-7.4,3.1c-1.3,1.8-3,0.1-3.9-1.6c-0.5-2.8,1-4.7,3.6-5
			C216.8,220,220.1,220,221.3,224z"/>
		<path class="st8" d="M428.4,216.5c-2.5-0.9-4.9-0.9-5.7,2c-0.7,2.6-2.2,5.8,1.9,7.4c-1.9,0.4-3.5-0.2-4.6-1.7
			c0-0.7,1.2-1.5,0.3-2.2c-0.3-0.2-1.1,0.2-1.7,0.4c-2.2-3-0.4-5.2,1.9-6.9C423.1,213.6,426.1,213.6,428.4,216.5z"/>
		<path class="st12" d="M252.4,269.1c-0.7-3-2.3-5.5-4.3-7.9c1.5-1.4,3.6-1.4,5.5-1.8c0.4,3.3,3.2,2.7,5.4,2.9
			C256.8,264.6,254.6,266.8,252.4,269.1z"/>
		<path class="st14" d="M383.5,317.5c-0.1-3.4-2-3.5-4.6-3.3c-2.5,0.2-4.7-1-4.7-3.7c0-2.5,1.9-3.6,4.3-3.8c1.6-0.1,3.3,0.1,5,0.1
			c1,0,1.3,0.5,1.3,1.3c0,3,0,6,0,9C384.3,317.2,383.9,317.4,383.5,317.5z M379.8,307.5c-1.7,0.3-3.3,0.8-3.4,2.8
			c0,2,1.5,2.8,3.3,2.8c1.8,0,3.3-0.7,3.3-2.8C383,308.4,381.6,307.7,379.8,307.5z"/>
		<path class="st10" d="M229.1,168.3c-1,1.1-1.9,2.3-3,3.2c-1.5,1.4-3.3,2.2-5.5,1.3c-2-0.8-3.3-2.1-3.1-4.4
			C221.4,167.8,225.2,166.6,229.1,168.3z"/>
		<path class="st6" d="M340.2,150.7c-1.3,0.7-2.7,0.8-2.9-0.9c-0.4-2.7-2.4-5.4-0.2-8.1l0,0.1c0.3-0.3,0.6-0.6,0.8-0.9
			c0.4-1.1,1.3-1.3,2.4-1.3c0.4,0.6,1,0.7,1.7,0.9c-0.4,1.2-2.5,2.2-0.1,3.5c0.2,1,0.5,2,0.7,3C339.4,146.9,340.5,149.2,340.2,150.7
			z"/>
		<path class="st10" d="M222.1,202.6c-0.2,2.7-1.8,4.7-3.7,6.5c-1.3-0.7-3.1-0.6-3.9-2.2c1.2-2.8,2.7-5.5,4.4-8
			C219.9,200.1,220.2,201.9,222.1,202.6z"/>
		<path class="st14" d="M264.4,309.9c0.4-0.9-0.7-3.1,0.8-2.9c2.8,0.4,6.1-2,8.5,0.9c1.4,1.6,0.8,3.7,0.7,5.7c0,0.6-0.6,0.7-1.2,0.6
			c-1.1-0.2-0.9-1-0.9-1.7c-0.2-2,0.6-4.6-2.7-4.7c-3.1,0-3.1,2.3-3,4.5c0,0.7,0.4,1.9-1.1,1.9c-1.3,0-1.2-1.1-1.2-1.9
			C264.4,311.5,264.4,310.7,264.4,309.9z"/>
		<path class="st14" d="M315.5,125c0.6,0,1.7-0.2,1.8,0c1.7,3.7,5.5,2.2,8.2,3.4c0.9,4.6-3.9,4.1-5.8,6.1c-1.4-0.2-1.7-0.5-0.6-1.7
			c1.8-1.9,2-3.3-1.4-3.7C315.4,128.9,314.7,127.2,315.5,125z"/>
		<path class="st12" d="M405.4,145.6c-2.5-1.2-4.9-2.4-5.5-5.4c0.3-0.8,0.8-1.3,1.7-1.6c2.6,0.7,5.9,0,7.4,3.1c0,0.3,0,0.5-0.1,0.8
			c-0.1,0.2-0.2,0.4-0.1,0.6C408.4,145.1,407,145.4,405.4,145.6z"/>
		<path class="st9" d="M272.5,139.6c-1.4,0.1-1.4,1.6-2.2,2.3c-3.3-3.5-2.8-7.4,1.3-9.8c1.1-0.6,2.4-1.2,2.8,0.8
			c0,0.4,0,0.9-0.1,1.3C273.8,136,274.3,138.2,272.5,139.6z"/>
		<path class="st12" d="M414.5,155.9c-1.1-1-2.1-2-3.1-3c4.4-2.5,9.2-3.7,14-5c0.2,0.3,0.4,0.6,0.6,0.9
			C422.2,151.1,418.3,153.5,414.5,155.9z"/>
		<path class="st5" d="M239.6,178.9c2.2-2.4,4.7-4.4,8-5.2c0.6-0.2,0.9-1.7,2-0.5c0.9,0.9,0.5,1.5-0.2,2.5c-1.1,1.6-3.7,2.9-2.1,5.5
			C244.7,180.3,241.9,180.5,239.6,178.9z"/>
		<path class="st12" d="M258,256.5c4.2-3,7.6-6.5,9.6-11.4c-1.1,6.2-3.4,11.8-7.7,16.6C259.6,259.9,261,257.4,258,256.5z"/>
		<path class="st14" d="M404.6,308.6c-1.6-1.7-3.4-0.6-5-1.1c3.3-1.6,5.9-1.2,7.2,1.2c0.7,1.3,1.2,2.7,0.8,4.2
			c-0.6,2.6-2.4,0.5-3.6,0.9c-0.6,0.2-1.2,0.4-1.8,0.4c-1.8,0.1-4,0.2-4.3-2c-0.2-2,1.9-2.3,3.5-2.6
			C402.5,309.4,403.8,309.9,404.6,308.6z M404.7,311.7c0.1-1.3-0.7-1.2-1.5-1.2c-1.3,0-2.8,0-3,1.6c-0.1,1.1,1.1,1.3,1.9,1.2
			C403.4,313.2,404.5,312.9,404.7,311.7z"/>
		<path class="st13" d="M388.5,267.6c-4,0.3-6.9-1.7-9.6-4.6c0.6-1,4.3-0.9,1.5-3.4c-0.5-0.4,0.9-0.9,1.6-1.1
			C384.8,261.1,386.1,264.7,388.5,267.6z"/>
		<path class="st14" d="M318.8,314.1c-3.2,0-6.1,0-9.3,0c0.9-2.8,4-3.4,5.3-5.8c-1.4-1.1-3.2,0-5.4-1.2c3.4,0,6.2,0,9.5,0
			c-2,1.9-3.8,3.5-5.6,5.2C314.8,313.9,317.3,311.9,318.8,314.1z"/>
		<path class="st14" d="M358.6,313.4c-0.8,1.4-2.2,0.8-3.4,0.8c-1.3,0-2.3-0.6-2.5-1.8c-0.2-1.3,0.9-1.8,2-2.4
			c1.4-0.7,3.3,0.1,4.6-1.3c-1.4-2.1-3.5-0.6-5.2-1.4c2.1-0.9,4.3-1.3,6.3-0.1c2.3,1.4,1.5,3.9,1.3,5.8c-0.3,2.6-2.1,0-3.2,0.4
			c0.2-1,1.9-1.8,0.6-2.8c-0.9-0.7-2.2-0.3-3.2,0.2c-0.6,0.2-1.2,0.7-0.9,1.4c0.6,1.3,1.8,1.1,2.9,1
			C358.1,313.3,358.3,313.3,358.6,313.4z"/>
		<path class="st14" d="M337,308.8c-1.1-2.2-3.4-0.6-5-1.5c5.7-1.9,8.1-0.2,7.5,5.2c-0.1,0.9-0.1,2-1.4,1.4
			c-1.2-0.5-1.9,0.2-2.9,0.2c-1.9,0.1-4.4,0.5-4.7-1.8c-0.4-2.4,2.2-2.5,4-2.8C335.4,309.4,336.4,309.6,337,308.8z M334.7,313.3
			c1.1-0.2,2.4-0.3,2.5-1.7c0.2-1.4-1-1.1-1.8-1.1c-1.2,0-2.5,0.2-2.6,1.5C332.6,313.1,333.8,313.2,334.7,313.3z"/>
		<path class="st1" d="M258.4,169.4c-0.7,0.7-1.3,1.6-2.1,2c-2,1.2-4.3,1-6.2-0.1c-1.9-1.1-0.6-2.9-0.4-4.4
			C252.9,167,256.4,165.9,258.4,169.4z"/>
		<path class="st14" d="M294.1,308.6c-1.3-1.9-3.4-0.6-5-1.2c5.1-2.1,7.5-0.7,7.5,4.3c0,1.6,0.1,2.3-2.3,2.2
			c-2.7-0.1-6.7,1.1-7.1-1.7c-0.4-2.5,4-2.4,6.5-3.1C293.8,309.1,293.8,309,294.1,308.6z M292.4,310.4c-1.1,0.2-2.7,0.1-2.6,1.8
			c0,0.9,1.2,1.2,2.1,1.1c1.1-0.1,2.3-0.4,2.4-1.7C294.4,310.2,293.3,310.5,292.4,310.4z"/>
		<path class="st13" d="M274.2,242.5c0.2,0.8,0.6,1.3,1.6,1.1c3.5-0.8,7.1-0.2,10.6-0.4c-0.8,2.6-5.2,5.2-6.9,3.5
			c-3.1-3.3-5-0.5-7.4,0.3C272,245.1,273.3,243.9,274.2,242.5z"/>
		<path class="st13" d="M273.5,256.7c2,0.7,4,1.2,6.2,1.1c0.2,0.1,0.4,0.2,0.6,0.2c0.2,1.1,0.4,2.2,0.6,3.4c-0.7,0.6-1.3,1.2-2,1.8
			c-2.4-1.6-2.7,1.9-4.6,1.6C273.6,262.2,273.6,259.4,273.5,256.7z"/>
		<path class="st12" d="M368.8,266.5c-3.3,0.8-4.2-1.8-5.3-4.1c-1.8,1.4-0.5,3.1-0.9,4.4c-0.8-2.4-2.1-4.6-3.3-6.8
			c-0.4-0.6-2.7-0.3-1.1-1.9c0.9-0.9,1.9-0.3,2.7,0.3C363.9,260.7,367.3,262.7,368.8,266.5z"/>
		<path class="st9" d="M408.9,141.8c-1.5-3.1-4.7-2.5-7.4-3.1c0.5-1.6-1.5-2.1-1.5-3.5c0.5,0,1.1,0,1.6,0c0.5,0.1,1,0.1,1.5,0.2
			c0.2,0.3,0.5,0.9,0.7,1c0.8,0,0.7-0.7,0.8-1.2c0-0.2,0-0.4,0.1-0.6c0.8-0.3,1.5-0.5,2.3-0.8c1.1,0.8,0.5,1.7,0.2,2.6
			c-0.2,0.8-0.2,1.6,0.9,1.5c1.1-0.1,2.4-0.9,2.6,0.9C410.9,140.1,410.7,141.4,408.9,141.8z"/>
		<path class="st13" d="M349.5,163.3c2.8,0.5,4.3,3.1,6.5,4.4c-0.6,1.7-0.1,3.8-1.5,5.3c-0.9-0.3-1.8-0.6-2.7-0.9
			c0.5-3.4-0.6-5.9-4.2-7c-0.2-0.1-0.3-0.6-0.4-1C347.9,163.8,348.7,163.5,349.5,163.3z"/>
		<path class="st10" d="M229.1,266.9c0,0.3,0,0.6,0,0.9c-2.9-2.1-5-4.9-5.9-8.4c0.5,0,1-0.1,1.5-0.1
			C230.5,259.4,231.7,261.5,229.1,266.9z"/>
		<path class="st7" d="M280.3,258c-0.2,0-0.4-0.1-0.6-0.2c-0.4-1.6-2.5-2.4-2.3-4.2c1.8-1.5,4.1-0.2,6.2-1.1c1.5-0.7,0.8,2.4,2,3.3
			c-0.7,0.7-1.4,1.4-2.1,2.1C282.4,257.9,281.3,258,280.3,258z"/>
		<path class="st13" d="M329.6,243.9c0-0.5,0-0.9,0-1.4c2.6-0.4,4.6-3.1,7.7-2.2c-0.9,1.3,0.1,3.3-1.6,4.4c-1.1,0.5-0.8,1.4-0.8,2.3
			l0,0c-1,0-2,0-3.1-0.1l-0.1,0C330.9,245.9,331.5,244,329.6,243.9z"/>
		<path class="st12" d="M403.2,135.3c-0.5-0.1-1-0.1-1.5-0.2c-0.7-1.3-1.3-2.6-2-3.9c0.1-0.7,0.1-1.3,0.1-2c0.5-0.3,1.1-0.7,1.6-1
			c1.1,0.1,2.2,0.1,3.3,0.2c0.3,0.2,0.6,0.5,0.9,0.7c-0.2,1,0.3,1.5,1.2,1.7c0,0.4,0,0.9,0,1.4c-1.4,0.2-2.2,0.9-2.1,2.4
			c-0.1,0.2-0.1,0.4-0.1,0.6C404.1,135.1,403.6,135.2,403.2,135.3z"/>
		<path class="st14" d="M426.9,307.1c-1.8,0.7-3.3,0.5-3.3,2.6c0.1,1.9,0.2,3.6,2.8,4c-3.6,1.1-5.8-0.1-4.7-3.4
			c0.5-1.7-2.6-2-0.6-4.1c1.6-1.6,1.8-2.6,2.9,0C424.2,306.7,425.6,306.8,426.9,307.1z"/>
		<path class="st14" d="M251.9,307.1c-1.3,0.9-3.3,0-3.1,2.1c0.2,1.8-0.9,4.3,2.8,4.4c-3.3,1-5.6,0.4-4.8-2.9
			c0.5-1.7-2.5-2.4-0.6-4.4c1.5-1.6,1.7-2.8,2.9,0C249.4,306.7,250.7,306.7,251.9,307.1z"/>
		<path class="st9" d="M316.5,95.9c0.5,3.1-0.7,5.5-3.1,7.4c-0.5,0-1,0-1.5-0.1c0.4-0.8,0.9-1.5,0.1-2.4c-0.8-0.9-1.1-1.6,0.5-2.1
			c3.2-1,2.8-2.7,0.7-4.5c-0.9-0.8-1.6-1.6-1.4-2.8C314.6,91.8,315.2,94.2,316.5,95.9L316.5,95.9z"/>
		<path class="st14" d="M258,256.5c3,1,1.5,3.4,1.9,5.3c-0.3,0.2-0.6,0.4-0.9,0.6c-2.2-0.2-5,0.4-5.4-2.9l0.1,0
			c0.5,0,0.7-0.2,0.7-0.7C255.6,257.9,256.8,257.2,258,256.5z"/>
		<path class="st12" d="M325.1,106.4c2.3-0.9,3.7-2.7,5.1-4.5c0.9-1.1,1.8-1.6,3.1-1.6c-3.3,3-3.7,7.3-5.1,11.1
			c-0.6-1.2,0.4-4.5-3-2.2C325.1,108.3,325.1,107.4,325.1,106.4z"/>
		<path class="st11" d="M316.5,95.9c-1.3-1.7-1.8-4.2-4.6-4.4c0.6-1.6-1.4-4.4,1.4-4.9c2.8-0.4,2.1,2.7,2.9,4.2
			C317,92.5,317.7,94.1,316.5,95.9z"/>
		<path class="st5" d="M325.1,109.3c3.4-2.4,2.4,1,3,2.2c-0.6,1.8,1.3,3.1,1.1,4.9c-0.1,1.4-0.4,3,0.7,4.3
			C328.9,116.6,324.7,113.9,325.1,109.3z"/>
		<path class="st7" d="M420.6,198.7c-0.5,2.6-0.6,5.1,3.2,5.2c-3.8,1.2-7.8,0-10.8-3.6C415.9,200.4,418.4,199.9,420.6,198.7z"/>
		<path class="st13" d="M378.5,172.5c0.1,1.7-0.1,3.3,0.8,4.9c-1.7-0.7-3.3-1.6-5-2.2c-2-0.7-2-2.2-1.8-3.9c1.7,0,3.5,0,5.2,0
			l0.1,0.1C377.9,171.8,377.8,172.4,378.5,172.5z"/>
		<path class="st10" d="M279.7,169.9c2.7-0.4,3.8,2.8,6.4,2.8c0.6,0,0.6,1.5,0.2,2.3c-0.5,1-1.3,0.3-2,0c-1.1-0.4-2.2-1.2-2.4,0.8
			C280.6,174.1,280.4,171.9,279.7,169.9z"/>
		<path class="st12" d="M274.2,274.8c2.2,0,3.4,0.8,3.2,3.1c-0.2,2.9-2.2,3.2-4.6,2.9C272,278.6,273.5,276.8,274.2,274.8z"/>
		<path class="st7" d="M358.7,243.8c0.2,0.2,0.5,0.5,0.7,0.7c0.9,2.9-0.7,5.8,0,8.7c-2.1-0.2-2.8-1.9-3.9-3.2
			C355.7,247.5,358.8,246.4,358.7,243.8z"/>
		<path class="st9" d="M280.6,139.7c-1.9-0.3-3.6,1.1-5.5,0.6c0.1-0.9-0.2-1.8,0.8-2.3c1.3,0,2.8,0.6,3.2-1.4
			c2.4-0.2,4.6-0.3,5.2,2.7c-0.8,0.2-1.6,0.4-2.4,0.7C281.4,139.9,281,139.8,280.6,139.7z"/>
		<path class="st6" d="M358.7,243.8c0,2.6-3,3.7-3.2,6.2c-3.5-2.5-0.7-5.1-0.1-7.7c1.1,0,2.1,0,3.2,0.1
			C358.7,242.8,358.7,243.3,358.7,243.8z"/>
		<path class="st12" d="M280.5,271.3c-1.3,0.1-1.7-1.2-2.6-1.6c1.1-2.8,3.1-4.7,6.2-6.1C282.9,266.2,281.7,268.7,280.5,271.3z"/>
		<path class="st13" d="M364.1,295.8c-1.1-1.4-1.7-3.6,0.2-3.9c1.8-0.2,4.1-3.5,5.9-0.1C368.5,293.7,366.3,294.8,364.1,295.8z"/>
		<path class="st13" d="M355.7,181.6c-0.5,0-1,0-1.5,0.1c-2.4,0.1-4.4-1.1-4.4-3c-0.1-2.4,2.6-0.8,3.9-1.4
			C353.9,178.9,354.8,180.2,355.7,181.6z"/>
		<path class="st12" d="M321.7,278.1c1.5,0.2,3.1,0.3,4.6,0.5c0.2,2.1-0.8,3.9-1.9,6C322.2,282.7,322.5,280.2,321.7,278.1z"/>
		<path class="st12" d="M307.1,286.7c-1.9,2.8-2.3-1.5-3.8-0.8c0.2-1.8-0.1-3.5-0.8-5.3c1.7-0.2,2.6,0.4,3.3,1.5
			c-0.1,0.6,0,1.2,0.7,1.5C306.8,284.8,307,285.8,307.1,286.7z"/>
		<path class="st10" d="M219,182.4c-0.8,3.4-2.8,5.4-6.6,5.2C213.7,184.9,215.8,183,219,182.4z"/>
		<path class="st12" d="M274.3,264.8c1.9,0.3,2.3-3.2,4.6-1.6c-1,2-2.2,3.9-4.5,4.7c-1.1-0.6-2.1,0.9-3.2,0.1
			C272.3,266.9,273.3,265.8,274.3,264.8z"/>
		<path class="st7" d="M358.7,242.3c-1.1,0-2.1,0-3.2-0.1c0.3-2.3-0.8-5,2.3-6.4c1.5,1.8,0.7,3.9,0.9,5.9
			C358.7,242,358.7,242.2,358.7,242.3z"/>
		<path class="st2" d="M433.4,187.5c-0.5-1.2-1.3-1.9-2.6-2.2c0-0.2,0-0.4,0-0.6c0.7-1.7,2-2.4,3.8-2.4c1.4,1.9,0.9,4,0.7,6
			C434.6,188.1,434,187.8,433.4,187.5z"/>
		<path class="st1" d="M418.3,174.5c-0.2,1.6,0,3.4-2.1,4.2c-1.5-0.4-2.8-1.1-4-2.1C414.4,176.4,415.6,173.4,418.3,174.5z"/>
		<path class="st5" d="M377.8,171.3c-1.7,0-3.5,0-5.2,0c0.7-1.4,0.2-3,1.4-4.3C375.6,168.1,378,168.6,377.8,171.3z"/>
		<path class="st6" d="M321.1,302.1c2.3-2.3,4.7-3.2,7.4-0.7C326.3,303.7,323.7,303,321.1,302.1z"/>
		<path class="st14" d="M238.9,183.3c3.7-1.5,5.4,1,7.7,3.5C243.3,186.4,240.8,185.5,238.9,183.3C239,183.2,238.9,183.3,238.9,183.3
			z"/>
		<path class="st9" d="M366,131.4c-1.3-0.3-3.2,0.4-3.7-1.6c0-0.4,0.1-0.9,0.1-1.3h0c0.5-0.1,1-0.2,1.5-0.3c1-0.2,2.1-1.7,2.9-0.3
			C367.3,128.8,367.8,130.5,366,131.4z"/>
		<path class="st15" d="M294.9,151.4c1.1-1.7,2.1-3.6,4.6-3.6c1.3,0.7,2.5,1.4,3.8,2.2C300.3,149.3,297.8,151.3,294.9,151.4z"/>
		<path class="st14" d="M423.4,171.1c-0.3,0.2-0.9,0.5-0.8,0.7c1.1,3.8-1.7,2.5-3.4,2.5c1.9-1.9,0.4-3.4-0.8-4.9
			C420.2,169.5,422.1,169.7,423.4,171.1z"/>
		<path class="st9" d="M306,110.3c-1.9,1-3.6,1.7-5.4,0.5c-0.9-0.5-1.2-1.3-0.8-2.1c0.5-1.1,1.3-0.9,2.1-0.4
			C303.2,108.9,304.5,109.5,306,110.3z"/>
		<path class="st13" d="M325.6,258c1.9,0,3.7,0,5.6,0c-0.1,1-0.1,1.9-0.2,2.9c-0.8,0.2-2,3.2-2.3-0.4
			C328.7,259.8,325.3,260.6,325.6,258z"/>
		<path class="st9" d="M305.2,121.1c-0.5-2.1-0.8-3.5-1-5c-0.2-1.4,0.9-2.2,2-2.1c1,0.1,0.9,1.6,0.7,2.1
			C306.4,117.5,306.9,119.3,305.2,121.1z"/>
		<path class="st12" d="M385.5,124.7c0.1-1.5-0.3-3.4,2.1-3.6c1.9-0.1,3,1,3.1,2.9C389,124.2,387.2,124.4,385.5,124.7z"/>
		<path class="st12" d="M255.3,283.3c1.2-0.4,1.8-2.2,3.5-1.6c1.4,0.4-0.1,1.6,0.5,2.2c-0.3,2.5-2.4,0.9-3.6,1.4
			c-0.2-0.1-0.4-0.1-0.6-0.2C255.3,284.5,255.3,283.9,255.3,283.3z"/>
		<path class="st5" d="M275.9,138c-1.1,0.5-0.8,1.5-0.8,2.3c-0.5,0-1,0.1-1.5,0.1c-0.4-0.3-0.7-0.6-1.1-0.9c1.8-1.4,1.3-3.5,1.8-5.4
			c0.7,0.4,1.3,1.1,2.3,0.7l0.2,0.1C276.5,136,276.2,137,275.9,138z"/>
		<path class="st1" d="M252.1,182.3c-1-1.4,0.1-2.1,1.1-2.6c1.4-0.7,2.7-0.3,3.4,1.2C255.6,183,253.8,182.3,252.1,182.3z"/>
		<path class="st15" d="M331.9,246.8c1,0,2,0,3.1,0.1c0.1,1.3,0.2,2.7-0.9,3.7C332,250,332.3,248.3,331.9,246.8z"/>
		<path class="st9" d="M349.5,112.9c-0.7,0-1.4-0.1-1.3-0.9c0.2-1,1-1.6,2-1.9c0.7-0.2,1.3,0.2,1.2,0.9
			C351.2,112,350.8,112.8,349.5,112.9z"/>
		<path class="st5" d="M281.9,140c0.8-0.2,1.6-0.4,2.4-0.7c0.3,0.3,0.6,0.6,0.8,1c-0.4,1.4-0.9,2.6-2.8,2.5
			C282.2,141.8,282,140.9,281.9,140z"/>
		<path class="st7" d="M274.2,251.2c-1.3,0.4-2.6,1.1-3.9,0c0.4-0.7,0.7-1.4,1-2C272.6,249.3,274,249.5,274.2,251.2z"/>
		<path class="st12" d="M318,113.6c-0.2-1.8,2-2.3,2.4-3.8c1.4,0.3,1.4,1.4,1.2,2.5C319.9,111.7,319.4,113.8,318,113.6z"/>
		<path class="st12" d="M275.9,138c0.3-1,0.6-1.9,0.9-2.9c0.5,0,0.9,0.1,1.3,0.1c0.2,0.3,0.4,0.5,0.6,0.8c0,0.2,0.1,0.4,0.2,0.6
			C278.7,138.6,277.1,138,275.9,138z"/>
		<path class="st12" d="M280.3,258c1.1,0,2.1-0.1,3.2-0.1c-0.2,1.6-1.1,2.8-2.6,3.5C280.7,260.3,280.5,259.1,280.3,258z"/>
		<path class="st11" d="M399.6,131.2c0.7,1.3,1.3,2.6,2,3.9c-0.5,0-1.1,0-1.6,0c-0.3-0.5-0.6-1-0.8-1.5c-0.2-0.2-0.5-0.5-0.7-0.7
			C398.5,132.1,398.8,131.5,399.6,131.2z"/>
		<path class="st8" d="M366.9,217.5c0-1,0-2-0.1-3c1.9-0.2,2.4,0.9,2.6,2.4C368.6,217,367.8,217.3,366.9,217.5z"/>
		<path class="st9" d="M272.7,282.3c0.3,0.2,0.6,0.5,0.8,0.7c-0.1,0.9,0.4,1.9-0.9,2.7C271.8,284.6,271.7,283.5,272.7,282.3z"/>
		<path class="st9" d="M225.3,308.3c1.7-1.1,3.3-1.1,4.5,0.7C228.3,308.7,226.8,308.5,225.3,308.3z"/>
		<path class="st12" d="M276.6,135c-1,0.3-1.6-0.3-2.3-0.7c0-0.4,0-0.9,0.1-1.3C275.6,133,276.4,133.7,276.6,135z"/>
		<path class="st11" d="M404.7,134.5c0-1.4,0.8-2.1,2.1-2.4c0,0.5,0.1,1,0.1,1.6C406.2,133.9,405.4,134.2,404.7,134.5z"/>
		<path class="st11" d="M346.6,135c0.3,2.4-1.5,1.3-2.6,1.5C344.5,135.4,345.5,135.1,346.6,135z"/>
		<path class="st2" d="M418.5,222.4c0.6-0.1,1.4-0.6,1.7-0.4c0.9,0.7-0.2,1.5-0.3,2.2c-0.2-0.2-0.5-0.4-0.7-0.6
			c-0.2-0.2-0.4-0.3-0.5-0.5C418.6,222.9,418.6,222.7,418.5,222.4z"/>
		<path class="st9" d="M410.3,130.9c-0.4-0.9-0.5-1.8,0.3-2c1.1-0.2,0.6,0.7,0.4,1.2C410.9,130.4,410.6,130.6,410.3,130.9z"/>
		<path class="st11" d="M404.7,128.4c-1.1-0.1-2.2-0.1-3.3-0.2c0.8-2,2.2-0.2,3.3-0.5C404.7,127.9,404.7,128.1,404.7,128.4z"/>
		<path class="st10" d="M283.3,180.9c0.6,0.1,1.4,0.6,1.2,1.1c-0.5,1.1-1.7,0.3-2.6,0.4C282.4,181.9,282.8,181.4,283.3,180.9z"/>
		<path class="st11" d="M406.9,130.7c-1-0.2-1.4-0.7-1.2-1.7C406.6,129.2,407,129.8,406.9,130.7z"/>
		<path class="st9" d="M290.1,291c-0.1,0.2-0.1,0.5-0.3,0.6s-0.4-0.1-0.6-0.2c0.1-0.2,0.1-0.5,0.3-0.6
			C289.6,290.7,289.9,290.9,290.1,291z"/>
		<path class="st12" d="M370.4,268.6c-1.1-0.1-1-1-1.1-1.8C370.2,267.1,370.2,268,370.4,268.6z"/>
		<path class="st12" d="M320.2,274.3c1,0.3,1,1.1,1,1.9C320.1,276,320.3,275.1,320.2,274.3z"/>
		<path class="st5" d="M401.5,164.5c0.4-0.7,0.9-1.1,1.7-1.1C403.1,164.4,402.4,164.6,401.5,164.5z"/>
		<path class="st9" d="M229.8,309c0.8,0.8,0.7,1.6,0.1,2.4C229.8,310.6,229.8,309.8,229.8,309z"/>
		<path class="st15" d="M334.9,246.9c0-0.9-0.3-1.8,0.8-2.3C335.8,245.5,335.8,246.4,334.9,246.9z"/>
		<path class="st10" d="M282.2,178.1c0.2,0.3,0.4,0.6,0.6,0.9C282.2,179,282,178.7,282.2,178.1z"/>
		<path class="st1" d="M259.2,171.3c-0.8-0.2-1.1-0.8-0.9-1.6C259.5,169.8,258.9,170.8,259.2,171.3z"/>
		<path class="st12" d="M319.6,272.7c0.5,0.4,0.6,1,0.5,1.6C319.4,273.9,319.4,273.3,319.6,272.7z"/>
		<path class="st7" d="M359.6,253.4c0.6,0.1,1.1,0.3,1.2,0.9C360.2,254.2,359.8,254,359.6,253.4z"/>
		<path class="st9" d="M295,104.1c-0.1,0.3-0.2,0.6-0.3,1c-0.1-0.1-0.2-0.1-0.3-0.2C294.6,104.6,294.8,104.3,295,104.1L295,104.1z"
			/>
		<path class="st5" d="M403.3,163.4c0.1-0.7,0.6-1,1.3-0.9C404.2,162.8,403.8,163.1,403.3,163.4z"/>
		<path class="st9" d="M223.9,310.4c-0.1-0.6,0-1.1,0.6-1.4C224.2,309.5,224.1,310,223.9,310.4z"/>
		<path class="st11" d="M306.6,283.8c-0.7-0.3-0.8-0.9-0.7-1.5C306.1,282.8,306.3,283.3,306.6,283.8z"/>
		<path class="st9" d="M255.3,285c0.2,0.1,0.4,0.1,0.6,0.2c-0.1,0.3-0.2,0.6-0.3,0.9C254.9,285.9,255.3,285.4,255.3,285z"/>
		<path class="st8" d="M416.8,238c-0.6-0.1-1.2-0.2-1.1-1C416,237.3,416.4,237.7,416.8,238z"/>
		<path class="st9" d="M229.6,312c0,0.5,0.1,1,0.1,1.4C229,313,228.9,312.5,229.6,312z"/>
		<path class="st13" d="M337.9,140.9c-0.3,0.3-0.6,0.6-0.8,0.9C337.4,141.5,337.6,141.2,337.9,140.9z"/>
		<path class="st9" d="M278.8,136c-0.2-0.3-0.4-0.5-0.6-0.8C278.3,135.4,278.5,135.7,278.8,136z"/>
		<path class="st8" d="M418.7,223.1c0.2,0.2,0.4,0.3,0.5,0.5C419.1,223.5,418.9,223.3,418.7,223.1z"/>
		<path class="st10" d="M281.9,175.8c0.6,0.1,0.7,0.3,0.2,0.8C282.1,176.3,282,176.1,281.9,175.8z"/>
		<path class="st8" d="M417.6,239.4c-0.2-0.3-0.4-0.7-0.5-1.1C417.3,238.7,417.5,239.1,417.6,239.4z"/>
		<path class="st5" d="M247.3,181.1c0.3,0.2,0.6,0.3,0.9,0.5C247.9,181.5,247.6,181.3,247.3,181.1z"/>
		<path class="st8" d="M426.1,226c0.3-0.2,0.6-0.3,0.9-0.5C426.9,225.9,426.6,226.1,426.1,226z"/>
		<path class="st12" d="M239.1,271.4v0.3c-0.1-0.1-0.2-0.2-0.3-0.2C238.9,271.5,239,271.4,239.1,271.4z"/>
		<path class="st12" d="M254.3,258.7c0,0.5-0.2,0.7-0.7,0.7C253.9,259.2,254.1,258.9,254.3,258.7z"/>
		<path class="st5" d="M374.7,165.1c0,0.2-0.1,0.3-0.3,0.3v-0.3L374.7,165.1z"/>
		<path class="st5" d="M398.5,156.5c0,0.5-0.2,0.7-0.7,0.4C398,156.8,398.2,156.7,398.5,156.5z"/>
		<path class="st5" d="M396.2,157.1c-0.1,0.2-0.3,0.2-0.5,0.2C395.7,157,395.8,156.8,396.2,157.1z"/>
		<path class="st10" d="M276.5,160.5c0.1,0.1,0.1,0.3,0,0.4c-0.1-0.1-0.1-0.2-0.2-0.3C276.4,160.5,276.4,160.5,276.5,160.5z"/>
		<path class="st12" d="M321.5,277c0.1,0.2,0.2,0.4,0.3,0.6c0,0.1-0.1,0.2-0.1,0.3C321.3,277.7,321.2,277.4,321.5,277z"/>
		<path class="st8" d="M398.1,207h-0.2C398.1,206.6,398.1,206.6,398.1,207z"/>
		<path class="st12" d="M242.8,261.2l-0.3,0l-0.2-0.3C242.5,261,242.7,261,242.8,261.2z"/>
		<path class="st9" d="M398.5,132.9c0.2,0.2,0.5,0.5,0.7,0.7C399,133.4,398.8,133.1,398.5,132.9z"/>
		<path class="st9" d="M408.7,143.2c-0.1-0.2,0-0.4,0.1-0.6C408.8,142.8,408.7,143,408.7,143.2z"/>
		<path class="st8" d="M398.7,254.1c-0.3-0.2-0.7-0.3-1-0.5C398.1,253.7,398.4,253.9,398.7,254.1z"/>
		<path class="st0" d="M334,175.1c1.7,2.1-0.2,4.4,0.2,6.6c-1.2,3.1-2.6,6.1-2.6,9.5c-1.7,2.3-1.9,5.1-2.6,7.7
			c-0.2,0.7-0.4,1.8,0.7,2.2c0.8,0.3,1.4,0.1,2-0.4c1.6-1.3,3.6-2.1,4.7-4c1.4-0.6,2.4-3,4.4-1c-0.1,0.5-0.1,1-0.2,1.5
			c-2.8,6-8.6,8.4-14.3,10.9c-6.9,0.8-9.3-2-8.7-8.8c0.6-6.2,3.3-11.7,4.7-17.6c-0.9-0.3-1.6-0.1-2.3,0.3c-4.7,2.9-7.8,7.1-10,12
			c-1.7,3.8,0.1,8-1.5,11.8c-2.1,1.5-4.9,0.4-6.9,2c-4.3-0.2-1.7-3.7-2.8-5.5c0-0.3,0-0.6,0-0.9c0.4-2.9,0.2-5.8-0.1-8.7
			c1.1-4,2.3-8,3.4-11.9c0.1-0.4,0.3-0.7,0.5-1.1c1.7-1.8,1.9-4.6,4.5-5.7c0.8,0,1.5,0,2.3,0c0.5,0.2,0.6-0.1,0.7-0.5
			c1.5-0.3,3.2-0.3,4.6-1.3c0.8,0.5,1.4,0.8,0.8,2.2c-0.9,2.4-2.3,4.8-1.8,8.1c4.1-3.9,8.1-7.1,12.7-9.6c0.4,0.4,0.3,0.1,0.2-0.1
			l0.2-0.1l0-0.2c2.1-0.1,4.2,0.2,6.2,1C333.3,174.1,333.1,174.9,334,175.1z"/>
		<path class="st10" d="M285.7,189.8c0.1-3.2,3.2-4.7,4.2-7.6c0.5-1.7,0.9-3-0.4-4.3c-2-2.1-1.5-4.6-1.3-7c0.1-1.1,0.6-2.6,1.9-2.4
			c3.8,0.5,5.9-2.4,8.8-3.9c0.9,3.7,4.4,6.8,2.4,11c-2.2,0.8-4.2,1.9-6.8,1.7c-1.3-0.1-2.3,1-2.5,2.3c-0.1,1.1,1.4,1.8,1.6,1.6
			c2.5-2.4,3.4,1,5.2,1.2c-0.1,1.6-0.2,3.2-0.2,4.7c0,1.7-0.7,2.8-2.7,2.6c-1.3-2.2-3.8-1.9-5.4-1.3c-3.4,1.4-0.5,2.9,0.4,4.3
			c-0.7,1.1-2.6-0.8-2.7,1.2c0,1.2-0.8,2.8,1.4,3.2c1.8,0.3,0.6,1.1,0.3,1.8c-0.7,1.8-2,2.9-4.1,3.4c0.3-2.5,1.7-4.9-1-7.1
			c-1.1-0.9,1.2-2.5,1-4l0,0c0.7-0.1,2,0.4,1.9-0.9C287.5,189.7,286.4,189.9,285.7,189.8L285.7,189.8z"/>
		<path class="st14" d="M280.3,158c0-1.4,0.1-2.8,0.1-4.3c1.8,1.2,3.6,1.1,5.3,0c1.5-0.9,3-1.1,4.6-0.3c0.8,0.1,1.6,0.2,2.4,0.3
			c0.1,0.2,0.1,0.4,0.1,0.6c-1.1,2.6-0.6,6.6-5.8,5.3c2.8,1.2,1.9,3.2,1.3,4.8c-0.3,1-1.9,1.9-2.7,1.4c-1.4-0.9-2.7-2.2-1.7-4.3
			C286.2,157.1,282.5,158.2,280.3,158z"/>
		<path class="st14" d="M301.2,175.8c2-4.3-1.5-7.4-2.4-11c2.8-0.8,1.7,3,3.8,3c0.2,3.1,4.7,3.3,4.7,6.5c-2.6,1.1-2.8,4-4.5,5.7
			c-0.1-0.9-0.1-1.8-0.2-2.7C302.7,176.3,302.1,175.9,301.2,175.8z"/>
		<path class="st14" d="M295.9,189.9c2,0.2,2.7-0.9,2.7-2.6c0-1.6,0.2-3.2,0.2-4.7c0.5-0.5,1.1-1,1.6-1.5c0.6,0,1.3,0,1.9-0.1
			c-1.1,4-2.3,8-3.4,11.9C296.8,193,296,191.8,295.9,189.9z"/>
		<path class="st14" d="M292.6,209.8c-0.5,0-0.9,0.1-1.4,0.1c-0.3-3.4,1.7-3.5,4.3-2.7C294.4,208,292.1,207.5,292.6,209.8z"/>
		<path class="st4" d="M292.9,154.3c0-0.2-0.1-0.4-0.1-0.6c0.3-0.6,0.7-1.1,1.5-1.1C294.3,153.5,294,154.3,292.9,154.3z"/>
		<path class="st10" d="M285.8,191.3c-0.6-0.1-1.3-0.1-1.2-0.9c0.1-0.3,0.7-0.4,1.1-0.6l0.1,0.1
			C285.8,190.4,285.8,190.9,285.8,191.3L285.8,191.3z"/>
		<path class="st14" d="M299,201.6c0,0.3,0,0.6,0,0.9c-0.2-0.1-0.5-0.3-0.8-0.4C298.5,201.9,298.8,201.8,299,201.6z"/>
		<path class="st13" d="M340.9,195.8c-2-2-3,0.3-4.4,1c-0.5-2,0-3.8,2.3-4.2c2.2-0.4,3-1.8,3.3-3.9c1.5,0.7,0.8,1.9,1.3,2.7
			c2.3-0.5,3.1-3.5,5.9-3c0.1,0.5,0.2,1,0.2,1.5c-1,0.5-0.7,1.3-0.7,2.2c0,1.9,0.1,4.3-3.2,2.5C343.7,193.4,342.6,195.5,340.9,195.8
			z"/>
		<path class="st8" d="M385.8,214.9c0.1,0,0.2,0.1,0.2,0.1c0,0.1,0,0.2-0.1,0.3c-0.1,0-0.2-0.1-0.2-0.1
			C385.7,215,385.7,214.9,385.8,214.9z"/>
		<path class="st8" d="M396.5,208.1c0.1,0,0.2,0.1,0.2,0.1c0,0.1-0.1,0.2-0.1,0.3c-0.1,0-0.2-0.1-0.2-0.1
			C396.4,208.4,396.5,208.3,396.5,208.1z"/>
		<path class="st15" d="M308.8,206c1.6-3.8-0.2-8,1.5-11.8c2.2-4.9,5.3-9.1,10-12c0.7-0.4,1.3-0.6,2.3-0.3
			c-1.4,5.9-4.2,11.4-4.7,17.6c-0.6,6.8,1.7,9.6,8.7,8.8c0,4.3,1.5,6,5.6,7c1.8,0.4,2.9,2.2,3.6,3.6c0.8,1.6-1.3,1.2-2.2,1.6
			c-1.2,0.6-0.9,1.7-0.9,2.6c0.1,1.3,0.4,2.6,0.6,4c-4.2-0.7-5.2,0-6,4.5c-0.5,2.6-1.5,4.2-4.6,2.9c0-1.5-0.4-2.9-2.2-2.8
			c-3.5,0.1-7.1-0.8-10.5,0.8c-2.6,1.2-4.2,0.4-4.2-2.6c0-2.1-0.9-3.7-3.1-4.6c-1.8-0.8-2.6-2.3-2.5-4.2c0.1-2,1.8-1.8,3.2-2.3
			c2.4-1,5.2-2.2,3.7-5.8c-0.3-0.7-0.1-1.1,0.5-1.6C309,209.7,308.8,207.8,308.8,206z M315.6,205.9c0.2-1.5-0.8-2.2-2.2-2.5
			c-1.4-0.2-2.2,0.5-2.3,1.8c-0.1,1.4,0.6,2.3,2.2,2.4C314.6,207.6,315.7,207.5,315.6,205.9z"/>
		<path class="st15" d="M326.6,173c-4.6,2.5-8.6,5.7-12.7,9.6c-0.5-3.3,0.8-5.7,1.8-8.1c0.6-1.4,0-1.7-0.8-2.2
			c-0.2-1.1-0.7-2.1-0.6-3.2c0.2-1.6-1.1-3.5,1.7-4.5c2.7-1,4.8-2.1,6.8,0.8c1.1,1.6,2.8,2.3,4.5,3c-0.1,1.4-0.1,2.7-0.2,4.1l0,0.2
			l-0.2,0.1C326.8,172.8,326.6,173,326.6,173z"/>
		<path class="st15" d="M347.1,164.1c0.1,0.3,0.2,0.9,0.4,1c3.7,1.1,4.7,3.6,4.2,7c-7.4,1.2-8.8,1-12.1-6.5
			c-2.1-4.7-5.9-6.1-9.9-7.8c-1.6-0.7-3.5-0.7-4.9-2c2.8-3.1,8.4-2.7,11,0.4c1.1,1.3,1.9,3.4,4.3,3.3
			C341.6,162.4,343.6,164.3,347.1,164.1z"/>
		<path class="st14" d="M327.1,172.5c0.1-1.4,0.1-2.7,0.2-4.1c2.1,0.5,4.9-1.6,6.4,1.4c0,0.5,0,0.9-0.1,1.4
			c-0.1,0.7-0.2,1.5-0.4,2.3C331.3,172.7,329.2,172.4,327.1,172.5z"/>
		<path class="st14" d="M310.3,173.7c0,0.4-0.1,0.7-0.7,0.5C309.8,174,310.1,173.8,310.3,173.7z"/>
		<path class="st1" d="M292.6,215.8c0,0.9-0.3,1.7-1.4,1.8c-1.1,0.1-1.6-0.7-1.5-1.6c0-1,0.6-1.6,1.7-1.6
			C292.4,214.3,292.6,215,292.6,215.8z"/>
		<path class="st15" d="M329.6,243.9c1.9,0.2,1.4,2,2.2,2.9c-0.8,0-1.5,0-2.3,0C329.5,245.8,329.5,244.9,329.6,243.9z"/>
		<path class="st13" d="M322.6,247.5c0,0.5-0.1,1-0.1,1.5c-1.1-0.1-1.6-0.6-1.3-1.7C321.7,247.5,322.2,247.5,322.6,247.5z"/>
		<path class="st13" d="M321.2,247.4c-1.2,0.2-1.7-0.3-1.6-1.4C320.5,246,321.1,246.5,321.2,247.4z"/>
		<path class="st8" d="M342.5,146.9c-0.2-1-0.5-2-0.7-3c2.3-0.5,4.6-1.2,6.9-0.2c1.4,0.5,2.1,0,2.5-1.3c1.4,0,2.8-0.1,4.2,0.1
			c1.3,0.2,3-1.4,3.8,0.1c0.8,1.6,0.8,3.5,0.9,5.3c0.1,0.9-0.5,1.8-1.6,1.7c-4.2-0.3-8.3,0.3-12.4,0.6
			C344.3,150.4,343.5,148.3,342.5,146.9z"/>
		<path class="st12" d="M347.1,164.1c-3.6,0.2-5.6-1.7-6.9-4.6c0.8-1.6,1.8-3.2,1.8-5.1c0.2,0,0.4,0,0.6-0.1
			c0.2,0.1,0.5,0.2,0.7,0.4c0,4.3,4,5.8,6.3,8.5C348.7,163.5,347.9,163.8,347.1,164.1z"/>
		<path class="st2" d="M351.2,142.4c-0.4,1.3-1.1,1.8-2.5,1.3c-2.4-0.9-4.6-0.3-6.9,0.2c-2.4-1.2-0.3-2.3,0.1-3.5
			c2.5,0,5-0.1,7.5-0.1c0,1.1,0,2.2,1.7,1.9L351.2,142.4z"/>
		<path class="st9" d="M359.8,132.1c-2.3-0.1-3.1,4-6.3,1.6c2.6-1.6,3.9-4.7,7.4-5.2c0,0.4,0.1,0.8,0.1,1.2
			C360.6,130.5,360.2,131.3,359.8,132.1z"/>
		<path class="st6" d="M342.5,154.4c-0.2,0.1-0.4,0.1-0.6,0.1c-0.3-1.1-0.6-2.1-0.8-3.1c1.9,0.3,2.5,1.4,1.9,3.1
			C342.8,154.4,342.7,154.4,342.5,154.4z"/>
		<path class="st8" d="M351.1,142.3c-1.7,0.2-1.7-0.9-1.7-1.9C350.9,140.2,351,141.3,351.1,142.3z"/>
		<path class="st0" d="M361,129.7c0-0.4-0.1-0.8-0.1-1.2c0.5,0,1,0,1.5,0c0,0.4-0.1,0.9-0.1,1.3C361.9,129.7,361.5,129.7,361,129.7z
			"/>
		<path class="st13" d="M342.5,154.4c0.1,0,0.3,0.1,0.5,0.1l0.2,0.3C342.9,154.6,342.7,154.5,342.5,154.4z"/>
		<path class="st13" d="M322.7,249.7c2-0.1,3.1,0.5,3,2.7c-0.1,1.8-0.1,3.7-0.1,5.5c-3.5-0.2-5.2-3-3.8-6.3
			C322.1,251,322.4,250.3,322.7,249.7z"/>
		<path class="st13" d="M331.6,191.2c0.1-3.4,1.4-6.4,2.6-9.5c1.8,0.3,4.5-0.9,5.2,0.9c0.4,1.1-0.9,3.5-2.7,4.6
			c-1.5,1,0.2,3.5-2.3,4.3C333.3,191.8,332.5,191.6,331.6,191.2z"/>
		<path class="st15" d="M333.2,173.5c0.1-0.7,0.2-1.5,0.4-2.3c1,0.2,2.4-0.2,2.7,1.4c0.4,1.8-1.7,1.5-2.3,2.5
			C333.1,174.9,333.3,174.1,333.2,173.5z"/>
		<path class="st8" d="M361.6,252.5c-0.1-0.2-0.2-0.3-0.4-0.5c0.2-0.1,0.5-0.2,0.7-0.4c0.1,0.2,0.2,0.4,0.2,0.6
			C362.1,252.4,361.8,252.4,361.6,252.5z"/>
		<path class="st8" d="M401.6,258.8c-1,1.5-1.5,2.7-3,2.7c-0.6,0-0.9-0.5-0.7-1C398.4,259.1,399.7,259.2,401.6,258.8z"/>
		<path class="st7" d="M275.6,253.4c-0.5,0.1-1,0-1.2-0.6C275,252.8,275.5,252.8,275.6,253.4z"/>
		<path class="st8" d="M430.7,184.7c0,0.2,0,0.4,0,0.6c-0.2,0.9,0.5,2.3-0.6,2.6c-1.2,0.3-1.2-1.2-1.7-2
			C429,185.1,429.7,184.6,430.7,184.7z"/>
		<path class="st14" d="M281.9,140c0.1,0.9,0.2,1.8,0.4,2.7c-0.5,1.5-1.9,2.8-0.5,4.7c0.8,1-0.2,2-1.3,2.6c-1.7,0.1-2.6-2.9-4.7-0.9
			c-1.6-0.9-1.9-1.8,0.2-1.9c1.5-0.1,2.6-0.6,3.7-1.5c0.6-0.4,0.8-1.3,0.1-1.5c-4.6-1.2-1.6-1.9,0.1-2.8c0.4-0.2,0.4-1.1,0.5-1.7
			C281,139.8,281.4,139.9,281.9,140z"/>
		<path class="st6" d="M274.3,264.8c-1.1,1.1-2.1,2.1-3.1,3.1c-2,0-3.1-1.3-4.2-2.6c1.2-1.8,2.6-3.2,2.1-5.9
			c-0.3-1.6,1.7-3.5,4.3-2.7C273.6,259.4,273.6,262.2,274.3,264.8z"/>
		<path class="st5" d="M378.5,172.5c-0.7-0.1-0.6-0.6-0.6-1.1C378.1,171.8,378.3,172.1,378.5,172.5z"/>
		<path class="st15" d="M327.2,249c0.2,0,0.5,0,0.8,0c1.3,0,2.3,0.2,2.3,1.7c0,0.6,0.1,1.5-0.7,1.5c-1.1,0-1.7-1-2.2-1.7
			C327.2,250.1,327.3,249.6,327.2,249C327.2,249.1,327.2,249,327.2,249z"/>
		<path class="st9" d="M379.8,307.5c1.8,0.2,3.3,0.8,3.2,2.9c0,2-1.5,2.8-3.3,2.8c-1.8,0-3.3-0.7-3.3-2.8
			C376.4,308.4,378,307.8,379.8,307.5z"/>
		<path class="st9" d="M404.7,311.7c-0.3,1.2-1.3,1.6-2.5,1.6c-0.9,0-2.1-0.2-1.9-1.2c0.2-1.5,1.7-1.5,3-1.6
			C404,310.4,404.8,310.4,404.7,311.7z"/>
		<path class="st9" d="M358.6,313.4c-0.2,0-0.5-0.1-0.7-0.1c-1.1,0-2.4,0.2-2.9-1c-0.3-0.6,0.4-1.1,0.9-1.4c1.1-0.4,2.3-0.9,3.2-0.2
			c1.3,1-0.4,1.8-0.6,2.8C358.5,313.4,358.6,313.4,358.6,313.4z"/>
		<path class="st9" d="M334.7,313.3c-0.9-0.1-2.1-0.2-2-1.3c0.1-1.4,1.5-1.5,2.6-1.5c0.8,0,2-0.3,1.8,1.1
			C337,313,335.8,313.1,334.7,313.3z"/>
		<path class="st9" d="M292.4,310.4c0.8,0.1,2-0.3,1.9,1.1c-0.1,1.4-1.3,1.6-2.4,1.7c-0.9,0.1-2-0.2-2.1-1.1
			C289.8,310.6,291.3,310.6,292.4,310.4z"/>
		<path class="st0" d="M403.2,135.3c0.5-0.1,1-0.2,1.5-0.2c-0.1,0.5,0,1.2-0.8,1.2C403.6,136.2,403.4,135.6,403.2,135.3z"/>
		<path class="st10" d="M302.4,181c-0.6,0-1.3,0-1.9,0.1c0-1.7,0-3.3,2.1-3.8c0.1,0.9,0.1,1.8,0.2,2.7
			C302.7,180.2,302.5,180.6,302.4,181z"/>
		<path class="st14" d="M326.6,173l0.2-0.1C326.9,173.1,326.9,173.4,326.6,173z"/>
		<path class="st5" d="M302.6,177.2c-2.1,0.5-2.2,2.1-2.1,3.8c-0.5,0.5-1.1,1-1.6,1.5c-1.8-0.2-2.7-3.6-5.2-1.2
			c-0.2,0.2-1.7-0.5-1.6-1.6c0.1-1.4,1.2-2.5,2.5-2.3c2.5,0.2,4.6-0.9,6.8-1.7C302.1,175.9,302.7,176.3,302.6,177.2z"/>
		<path class="st1" d="M285.8,191.4c0-0.5,0-1,0-1.5c0.7,0.1,1.8-0.2,1.8,0.6C287.7,191.7,286.5,191.2,285.8,191.4z"/>
		<path class="st4" d="M315.6,205.9c0,1.6-1,1.8-2.3,1.7c-1.6-0.1-2.3-1-2.2-2.4c0.1-1.3,0.9-2,2.3-1.8
			C314.8,203.6,315.8,204.3,315.6,205.9z"/>
	</g>
</g>
<text transform="matrix(1 0 0 1 203.0005 363)" class="st16 st17">Nagada Part 1</text>
</svg>
