<?xml version="1.0" encoding="utf-8"?>
<!-- Generator: Adobe Illustrator 21.1.0, SVG Export Plug-In . SVG Version: 6.00 Build 0)  -->
<svg version="1.1" id="Layer_1" xmlns="http://www.w3.org/2000/svg" xmlns:xlink="http://www.w3.org/1999/xlink" x="0px" y="0px"
	 viewBox="0 0 1296 1728" style="enable-background:new 0 0 1296 1728;" xml:space="preserve">
<style type="text/css">
	.st0{fill:#FCFCFD;}
	.st1{fill:#0F3C96;}
	.st2{fill:#C01D2F;}
	.st3{fill:#571F48;}
	.st4{fill:#1B0E57;}
	.st5{fill:#598EDC;}
	.st6{fill:#B02A98;}
	.st7{fill:#DF6E81;}
	.st8{fill:#D63C57;}
	.st9{fill:#F7EEF8;}
	.st10{fill:#2866D0;}
	.st11{fill:#F1BAEE;}
	.st12{fill:#CA95D8;}
	.st13{fill:#762E7C;}
	.st14{fill:#3B58AB;}
	.st15{fill:#463074;}
</style>
<g>
	<g>
		<path class="st0" d="M538.7,864.6c0-37.7,0-75.4-0.1-113c0-2.5,0.5-3,3-2.9c71.5,0.1,143,0.1,214.6,0c2.5,0,3,0.5,2.9,2.9
			c-0.1,75.6-0.1,151.2,0,226.8c0,2.5-0.5,3-2.9,2.9c-71.5-0.1-143-0.1-214.6,0c-2.5,0-3-0.5-3-2.9
			C538.8,940.5,538.7,902.6,538.7,864.6z M727.5,828.1c0.4-0.3,0.8-0.6,1.3-0.9l0,0c3.6-1.4,6.1-4.4,9.2-6.4c3.6-2.3,7.2-4.6,10.8-7
			c-0.2-0.3-0.4-0.6-0.5-0.8c-4.5,1.3-9.1,2.5-13.2,4.9c-3.6,0.1-6.8,1.3-10,3c-0.7,0.2-1.5,0.4-2.2,0.5c-0.2,0.1-0.4,0.3-0.7,0.4
			c-0.5,0.1-1,0.1-1.5,0.2c-0.3-0.3-0.4-0.1-0.5,0.2c-4.4,1.5-8.8,3-13.2,4.5c-2.7-0.2-4.8,0.9-6.4,3l-0.3,0c0,0,0,0.3,0,0.3
			c-0.1,0.5-0.3,1-0.4,1.5c-1.1,1.2-0.7,2.8-1.3,4.1c-0.2,1.6-0.2,3,1.7,3.8c1.6,0.6,3.1,1.5,4.7,2.2c3.1,0.6,5.3-0.8,7.2-3
			c4.9-2.8,9.5-5.8,13.7-9.5C726.7,829.2,727.4,829.1,727.5,828.1l-0.1-0.1C727.4,828,727.5,828.1,727.5,828.1z M649.4,936
			L649.4,936c0.2,0.8,0,1.7,1,2c0.1,0.2,0.2,0.5,0.3,0.7c-0.3,0.4-0.2,0.7,0.2,0.9l0,0.1c0.7,2,0.5,4.5,2.5,6.3c1-2,2-3.7,1.8-5.8
			c0.2-1.5,0.4-3,0.9-4.5c1.4-4.2,2.4-8.5,3.5-12.8c0.1-0.9,0.1-1.9,0.2-2.8c2.4-1.8,1.7-4.8,2.6-7.2c1-1,0.9-2.3,0.8-3.6l0,0
			c0.8-0.5,0.9-1.3,0.7-2.2c1.6-1,0.6-3,1.5-4.2c1.4-5.2,2.9-10.5,4.2-15.7c1.1-4.6,2.7-6,7.5-6.1c5.4-0.1,10.8,0.4,16.1-0.3
			c0.8-0.2,1.6-0.4,2.3-0.7c11,0,22,0,33,0c2.1,0.1,4.3,0.2,6.4,0.3c0.7,0,1.6,0.2,1.8-0.8c0.2-0.9-0.7-1.1-1.3-1.4
			c-4.1-2.8-8.2-5.4-12.7-7.5l-0.2-0.1c0-0.4-0.1-0.4-0.2,0c-0.5-0.3-1-0.6-1.5-0.9c-0.8-1.8-2.9-2-4.3-2.9
			c-10.2-6.5-20.5-12.9-30.8-19.4c-0.9-0.8-1.8-1.5-3-1.5c-0.8-1.3-1.6-2.7-1.9-4.2c0.4-0.6,1.1-1.1,0.7-2c0-0.7,0.1-1.4,0.1-2.2
			c1.3-1.5,0.9-3.5,1.4-5.2c2.3-4,2.2-8.6,3.5-12.9c2.2-7.4,4-14.9,6-22.4c1.6-0.8,1.2-2.5,0.7-3.4c-0.7-1.4-1.8,0.1-2.7,0.3
			c-0.5,0.1-0.9,0.2-1.4,0.3c0.1-1.6,0.2-3.1,0.3-4.8c-5.9,2.4-8.9,8.2-14.7,10.1c-0.1,0-0.1,0.4-0.2,0.7c-0.1,0.1-0.2,0.3-0.4,0.4
			c-1,0.1-1.9,0.4-2.4,1.4c-1.3,0.9-2.9,1.4-3.5,3.1c-1,0-1.9,0.2-2.2,1.3c-0.3,0.3-0.5,0.5-0.8,0.8l0-0.1c-0.7,0.3-1.6,0.6-2.2,1.1
			c-5.3,3.7-10.5,7.4-15.8,11.1c-1.8,1.2-3.5,2.4-5.7,0.9c-2.6-1.7-5.3-3.4-8-5.1c-1.2-0.7-2.4-1.4-3.6-2.1c-3-1.9-5.6-4.5-9.3-5.2
			c-1.1-1.4-3.2-0.6-4.2-2.1c-0.3-0.3-0.5-0.6-0.8-0.9c-0.5-2.9-2.7-2.8-4.9-2.6c-0.1-0.2-0.2-0.4-0.2-0.6c-0.2-0.3-0.4-0.5-0.6-0.8
			c-0.4,0-0.8-0.1-1.3-0.1l-0.2-0.1c-0.2-1.2-0.9-1.9-2.1-2c-0.4-2-1.6-1.4-2.6-0.8c-3.8,2.3-4.2,6.1-1.2,9.5
			c0.8-0.7,0.8-2.1,2.1-2.2c0.3,0.3,0.7,0.6,1,0.8c0.1,3.4-2.4,6.6-0.6,10.1c0.2,1.7,0.7,4.2,2,4.5c4,0.7,2,2.7,1.5,4.6
			c-0.2,0.1-0.2,0.2-0.1,0.4c-0.1,0-0.1,0-0.2,0.1c0.1,0.1,0.1,0.2,0.2,0.3c1,2.9,2,5.8,3,8.8c0.7,1.9,0.9,4.1,2.1,5.8l0,0
			c0.1,0.3,0.2,0.5,0.2,0.8c0,0.5,0,1,0,1.5c-0.2,0.6,0,0.9,0.6,0.9c0.2,0.6,0.3,1.2,0.5,1.8c-0.4,0.5-0.8,1-1.3,1.4
			c-2.2,2.2-4.6,4.2-7.3,5.9c-14.1,10.9-28.1,21.9-42.4,33c9.3,0.6,18.3-0.9,27.3-0.6c2.9-0.3,5.8-0.5,8.7-0.8
			c5.8,0.3,11.6,0.4,17.3-0.7c1.7,0,3.3,0.1,5,0.1c6.3,0,5.9,0.2,8.6,5.9c3.2,6.6,5,13.7,8.6,20.1c2.6,8.6,6.1,16.8,9.6,25
			C648.8,935,648.8,935.6,649.4,936z M742,886.2c0.2,0.2,0.3,0.3,0.5,0.5c0.2,0.2,0.4,0.4,0.6,0.6c1.1,1.5,2.5,2.1,4.4,1.7
			c0.5,0,1,0,1.5,0c0.5,0.1,0.7-0.1,0.8-0.5c4.2-2.1,4.3-3.2,1.3-8.7c-2.2-2.9-4.9-2.8-7.4-0.9c-2.1,1.6-3.8,3.7-1.8,6.7
			C741.9,885.7,742,886,742,886.2z M564.6,969.8c0,0.8,0,1.5,0.1,2.3c0,0.3-0.1,0.5-0.3,0.6c-0.6,0.5-0.5,1,0.1,1.4
			c0.7,2.4-1.1,2.5-2.6,2.8c-1.1,0.2-2.3,0-3.4,0c0.9,0.9,1.7,1,2.5,1.1c5.1,0.2,8.4-5.1,6.1-9.7c-0.2-0.5-0.6-0.7-1.1-0.7
			c-1.9,0-3.8-0.2-5.7,0.1c-2,0.3-3.7,1.6-3.4,3.9c0.3,2.1,1.8,3,4,3.1c0-1.7-2.2-1.8-1.9-3.4c0.2-0.5,0.4-0.9,0.5-1.4
			c0.3-0.2,0.5-0.5,0.8-0.7C561.8,969.3,563.2,969.5,564.6,969.8L564.6,969.8z M723.7,799.1c0.3,0.5,0.5,1,0.8,1.4
			c0,1.4,1.9,1.9,1.4,3.4c-0.8,0.2-1.3,0.8-1.6,1.5c-0.4,0.6-1,1.1-1.2,1.7c-1.7,5-5.6,8.1-9.7,11c-1.2,0.9-3,1-3.8,2.8
			c5.4-1.7,11.2-2.1,16-5.2c1.5-1,5.1-1.6,3.9-5.1c1.5-0.2,2.9-0.5,3.1-2.3c0-0.2,0.1-0.4,0.1-0.6c0-0.3,0-0.5,0.1-0.8
			c1.7-0.4,1.9-1.7,1.7-3.1c-0.3-1.7-1.4-1-2.5-0.9c-1,0.1-1.1-0.7-0.9-1.4c0.3-0.9,0.8-1.8-0.2-2.6c0-0.5-0.1-1-0.1-1.5
			c0-0.4,0-0.9,0-1.3c0.1-0.9-0.2-1.5-1.2-1.6c-0.3-0.2-0.6-0.5-0.8-0.7c0-0.2,0-0.4,0-0.6c1.6-1.7,1.9-3.3-0.3-4.7
			c-1.5-0.9-3.1-1.9-3.6,1c-0.1,0.9-1.1,0.9-1.7,0.4c-0.9-0.6-1.1-1.3,0.2-1.8c1-0.4,0.9-1,0.2-1.5c-0.6-0.5-0.3-1.9-1.5-1.6
			c-3.2,0.7-6.3,0.1-9.5-0.3c-1.3-0.2-2.4,0.4-3.2,1.2c-1.2,1.3-0.9,3-0.5,4.4c0.4,1.1,1.3,0.8,1.9,0c1.6-0.2,3.3-0.5,4.9-0.7
			c2.2,0.7,5-0.4,6.7,2.3c0.6,0.9-0.2,2.9,1.9,2.8c0,0.6-0.1,1.3-0.1,1.9c-0.8,0.3-1.1,0.8-1.1,1.6
			C723.3,798.6,723.5,798.9,723.7,799.1z M589.1,946.6c1.1-0.5,3,1.1,3.3-1.3c0.3-0.1,1-0.2,1-0.2c-0.6-3.7,2.8-3.7,4.7-5.2
			c0.7-0.6,1.8-1.3,1.8-2.5c2.5-2.3,5.2-4.4,6.6-7.6c2.2-0.8,3.3-2.6,4.3-4.6c0.6-0.6,1.2-1.2,1.9-1.7c1.4-0.7,2.2-1.8,2.4-3.4
			c0.7-0.7,1.3-1.4,2-2.1c5.2-5.2,5.8-7.4,3-12.9c0-2.9-1.4-4.7-4.3-4c-3.3,0.9-8-1.4-9.4,4c-0.8,1.4-2.1,2.5-1.9,4.3
			c-0.3,0.7-0.5,1.4-0.8,2.2c-0.3,0.7-0.6,1.3-0.9,2c-2.4,2.7-3.2,6.2-4.5,9.4c-1.4,3.4-2.7,6.8-4.1,10.2c-3.2,3.3-2.6,8.3-5.5,11.7
			c0,0.6,0,1.1,0,1.7c0,0.4-0.3,0.8,0.2,1.1C588.9,947.2,589,946.9,589.1,946.6z M636,943.8c-0.6-1.1-1.5-1.7-3.1-1.5
			c0.6,1.7,1,3.4,0.7,5.1c-1.9,2.8-4.5,4.9-7.4,6.5c-1.4,0.8-2,1.5-1.9,2.9c-0.5,0.1-1.1,0-1.4,0.2c-1.3,1.1-2.6,1.8-4.2,0.8
			c-1.4-1-1.2-2.8-0.8-4c0.7-2.2,0.2-3.1-1.6-4.6c-4.1-3.4-3.8-3.6-8.1-1c-2.4,1.5-2.9,2.4,0.1,3.7c1.1,0.5,3.4,1,0.7,3
			c-1.5,1.2-0.1,2.7,1.1,3.4c1.6,1,3.5,1.4,5.5,1.4c2.2,0,4.3-0.2,6.4,1.5c2,1.6,7.5-0.6,8.7-2.9c1,0,2,0.1,2.5-0.9
			c1.6-2.9,4-5.6,3.9-9.2c-0.2-1-0.4-1.9-0.5-2.9C636.5,944.7,636.3,944.2,636,943.8z M682.7,904.8c-0.6,2.5-3.2,5,0.1,7.5
			c1,1.3,1.7,3,3.7,3.2l0.2,0.2c0.1,0.6,0.6,0.8,1.1,0.9c2.7,3.9,7.1,5.9,10.5,9c5.8,5.4,12.3,10,18.5,14.9c0.7,0.6,1.4,1.5,2.5,0.7
			c1.3-1,0.1-2-0.3-2.7c-2.2-2.8-3.5-6.1-5.3-9c-2.2-2.8-3.4-6.3-6.1-8.8c-0.9-1.1-0.5-2.8-1.9-3.6c-1.8-4.8-5.5-8.4-7.8-12.9
			c-1.2-2.8-2.9-4.8-6.3-5.3c-2.3-0.4-4.5-0.1-6.7-0.3C681.9,900,683,902.6,682.7,904.8z M654.2,775.4c-0.4,4.5,3.5,7.1,4.5,11
			c-1-1.3-0.8-2.8-0.6-4.1c0.2-1.7-1.6-3-1-4.8c1.3-3.7,1.7-7.8,4.8-10.8c2.8-1.2,5.2-3.8,8.7-2.9c3.8,2.1,6.8,4.9,7.8,9.4
			c0.3,1.3,1,1.5,1.9,0.5c4.3-4.4,5.4-10.9-0.5-14.9c-1.2-1.8-2.9-2.9-4.9-3.4c-11.5-3.5-21.8,5-20.8,17.2
			C654.1,773.5,654.1,774.5,654.2,775.4z M587,921.5L587,921.5c-1.9,0.4-3.7,0.4-5.2,1.7c-1.7,0-3.3,0-5,0c-0.1-0.2-0.3-0.2-0.5-0.3
			c-0.5-0.2-1.1-0.4-1.6-0.6c-2.9-0.8-5.8-1.6-7.2-4.6c-2.1-4.8-0.2-8.9,5-11.1c0.8-0.3,1.8-0.4,1.9-1.4c0-1-1.1-1.2-1.8-1.4
			c-2.5-0.8-4.9-0.8-7.3,0.2c-6,2.5-9,10.4-6.8,17.5c0.9,3.4,2.8,6,5.5,8.1c1.2,3.7,3.7,1,4.8,0.5c4.4-2,4.6-2.1,4.7,2.9
			c0,0-0.1,0.1-0.1,0.1c-0.1,0-0.2,0-0.3,0c0.1,0.1,0.2,0.2,0.3,0.2c4.5,1,8.7,0,12.5-2.6c2.1-2.2,4.1-4.3,6.2-6.5
			c0.3-0.2,0.6-0.4,0.9-0.6c4-4.7,6.2-10.1,7.2-16.2c-1.9,4.7-5.1,8.1-9,11c-1.2,0.7-2.3,1.4-3.5,2.2
			C587.5,921,587.2,921.3,587,921.5z M646,762.4c1.2-1.7,0.5-3.3-0.3-5c-0.8-1.5-0.1-4.5-2.7-4.1c-2.6,0.4-0.7,3.1-1.3,4.7
			c-0.2,1.2,0.5,2,1.3,2.8c1.9,1.8,2.3,3.4-0.7,4.4c-1.5,0.5-1.3,1.2-0.5,2.1c0.7,0.8,0.2,1.6-0.1,2.3c-1.2,2.5-1.4,5.2-1.4,7.9
			c-0.1,3.8-0.3,7.6-1.1,11.3c-1.2,5.8,0,9.2,4.8,12.7c2.7,2,4,1.1,5.1-1.5c1.8-2,6.3-1.5,5.5-6c0-5.5-2.1-10.6-3.7-15.7
			c0.2-1.1,0.2-2.1-1.2-2.4c0.2-4.5-1.9-8.6-2.5-12.9C647.1,762.8,646.4,762.6,646,762.4L646,762.4z M591.4,834.3l0.2-0.1l-0.1-0.2
			c-1.9-3.4-5.2-2.3-8.1-2.4c-6.4,1-13,0.1-19.4,1.3l0,0c-3.6-1.7-7.2-0.5-10.8,0.1c-4.1,0-8.1-0.1-12.2-0.1c-0.6,0-1.3-0.1-1.4,0.7
			c-0.2,0.8,0.3,1,1,1.2c9,2.1,18,4.2,27,6.2c1.8,1.6,4.3,1.3,6.4,2.2c2.2,1.6,4.9,1.4,7.3,2.1l0,0c0.3,0.2,0.6,0.3,0.8,0.5
			c1.2,0.2,2.4,0.5,3.7,0.7c1.5,0,3.3,0.6,4.2-1.3c2.1-0.1,2.1-2.4,3.3-3.4c3-2.5,1.7-4.3-0.8-6
			C591.9,835.3,592.5,834.3,591.4,834.3z M685.5,974.1c1-0.5,2.7,2,3-0.4c0.2-1.9,0.9-4.3-1.2-5.6c-1.9-1.2-4-0.8-5.9,0.1
			c1.6,0.7,3.6-0.7,4.9,1.4c-1.2,1.4-3,0.6-4.3,1.2c-1,0.5-2.1,1-1.9,2.3c0.2,1.2,1.2,1.8,2.4,1.8
			C683.5,974.8,684.8,975.4,685.5,974.1L685.5,974.1z M612.2,933.1c1.1-2.5,2.3-5,3.4-7.4c-3,1.3-4.9,3.2-5.8,5.9
			c-1.4,1.5-2.8,3-3.4,5c-0.7,1.9-2,3.6-1.3,5.8c0,0.5,0,1-0.1,1.5c-0.9,1.1-0.9,2.1-0.1,3.3c1.2-0.8,0.7-1.8,0.8-2.7
			c6.4-2.1,6.4-2.1,6.5-9.4C612.2,934.5,612.2,933.8,612.2,933.1z M746.5,835.6c-1.3-1.4-3-1.6-4.8-1.7c-9.3-2.3-17.2,0.5-24.5,6.2
			c-0.7,0.5-1.7,1.1-1.1,1.9c0.7,1,1.7,0.3,2.5-0.3c2.2-1.8,4.9-2.1,7.7-2.3c3.5-0.3,6.5,1.4,9.7,1.7c1.1,1,2.4,1.6,3.7,2.1
			c1.7,0.5,2.2,2.8,4.2,3c0.3,2.9,3.4,4.6,3.1,7.8c0.8,1.5,0.2,2.9-0.2,4.4c-0.6,1.7-1.6,3.1-3,4.3c-2.1,1.1-4.5,1.6-7.1,1.6
			c2.7,3.5,6.6,4.7,10.1,3.5c7-1.4,9.8-9,10.7-15.2c0.2-2,0.6-4-0.7-5.8c-0.9-4.7-3.8-7.7-8-9.7
			C748.4,835.8,747.7,835.2,746.5,835.6z M739.2,899.7L739.2,899.7c-4.7-4-9.4-2.8-14.3-0.6c-0.7,0.3-1.8,0.2-1.6,1.3
			c0.2,1.2,1.1,1.3,2.2,1.1c3.3-0.6,6,0.5,8.3,2.9c1,2.3,1,4.7,0.7,7.1c-1.7,2.7-4,4.6-7.3,4.9c-1.3,0-2.6,0-4,0
			c-0.3-0.2-0.6-0.3-0.9-0.5c-3.2-1.8-7-1.8-10.2-3.7c-3.3-1.9-4.5-5.7-7.9-8.8c0.2,2.6,0.8,3.9,1.3,5.3c2.9,6.9,8.1,11.6,14.1,15.6
			c2.6,1.7,5.1,3.4,8.5,2.9c7.7,0.6,14.6-6,14.4-13.6c1.6-4.1,0.4-7.9-1.5-11.5c-0.2-0.3-0.3-0.7-0.5-1c0-0.2-0.2-0.3-0.3-0.4
			C739.8,900.3,739.5,900,739.2,899.7z M553.9,872.5c6.9,2.3,11.5,0,12.8-6.7c-3.1,1.5-6.2,2.1-9.3,0.4c-1.8-0.6-2-2.4-3-3.6
			c-1.4-4,0.8-9,4.4-11.2c4.5-2.7,9.7-2.7,14.5-4.1c1.7,2.2,4,3.1,7.2,3.5c-2.2-2.4-3.9-4.9-7.3-3.4c0-1.3-0.8-1.4-1.8-1.6
			c-4.1-0.7-8.2-0.7-12.4-0.7c-1.6,0-3.2,0.3-4.5,1.4c-3,0.6-5,2.4-6.3,5.1c-4,7-3.2,14,2,18.7C551,871.9,552.7,871.8,553.9,872.5z
			 M546.1,888.5c0,0.4,0,0.7-0.1,1.1c-0.8,2.7,0.3,4.5,2.7,5.4c2.9,1.1,5.6,1.1,7.7-1.6c1.6-2.1,2.6-4.1,0.3-6.3
			c-1.1-3.8-4.2-3.9-7.2-3.4C547,884,545.6,885.8,546.1,888.5z M657.4,962.4c3.2-4.6,1.4-7.4-1.7-9.5c-2.3-1.6-5.6-0.6-7.6,2.2
			c-1.7,2.5-0.7,6,2.3,8C652.8,963.9,655.3,964.6,657.4,962.4z M625.8,770.3c3.6-2.8,6.1,0.5,9.1,1.8c-1.7-2.2-1.1-4.6-1.7-6.8
			c-0.5-1.6-0.5-2.1-2.4-1.1c-2.2,1.2-4.3,1.3-5.2-2.4c-1-4.4-6.5-5.7-10.5-2.9c-1.5,1-2.1,1.8-0.2,3.1c2.5,1.7,1.1,3.7-0.5,4.5
			c-1.5,0.7-3.3,3.2-5.4,0.5c-0.6-0.8-1.4-0.1-2.1,0.5c-2.1,1.7-2.6,5-1.1,8.5c1.1,2.6,5.4,5.9,7.3,5.6c1.2-0.2,1.3-0.8,0.7-1.8
			c-2.5-4.4-2.2-6.5,1-10.8c1-1.4,1.8-1.6,3.2-1c2.4,1,4.6,2.8,7.4,1.3C625.6,769.7,625.7,770,625.8,770.3c-0.2,0.2-0.4,0.5-0.5,0.8
			c0.1,0.1,0.2,0.1,0.3,0.2C625.7,770.9,625.8,770.6,625.8,770.3z M564,814.9c-1.2-6.2,1-11.4,6.1-13.5c2.4-1,5.1-1.2,7.5-2.3
			c0.9-0.4,2-0.4,2-1.6c0-1.1-0.9-1.6-1.8-2c-3.4-1.8-7.1-2.3-10.7-1.6c-4.3,0.8-8.4,3.2-10,7.3c-3.5,8.8-2.7,17,5.4,23.3
			c5.2,5,20,5.1,23.5,0.2c-2.3-1.4-4.4,0.7-6.8,0.2C572.7,823.3,568.2,819.5,564,814.9z M696.7,930.5c-0.2-0.7-0.1-1.5-1.1-1.7
			c-0.2-0.1-0.3-0.3-0.5-0.4c-1.4-3.6-4.5-5.6-7.4-7.8c-0.7-0.6-1.6-1.2-2.5-0.3c-1.5,1.5,0.7,1.2,1,1.8c1.1,2.2,2.4,4.3,3.1,6.6
			c1.2,5.2,0.8,10.4-0.7,15.4c-0.7,2.3-2.5,4.3-4.9,4.7c-3.5,0.6-6.8,0.1-9.6-3c-2.5-2.7-1.5-5,0.1-7.7c-6.7,2.4-8.4,11-4,16.4
			c5.3,6.5,12.7,5.6,20.7,2.4c2.1-1,4.2-2.1,5.8-3.8c3.2-3.8,4.5-8.2,3.6-13.1C699.4,936.7,698.4,933.5,696.7,930.5z M590.5,778
			c0.1-1.5-0.1-2.6-1.5-3.4c-4.2-2.5-8.2-1.2-9.6,3.3c-0.5,1.6,0.6,3.1,1.7,4c1.4,1.2,1.2-0.7,1.7-1.3c1.8-1.9,1.9,0.1,2.1,1
			c0.8,3,2.3,2.2,3.6,0.7C589.7,781.2,590.9,779.8,590.5,778z M709,978.1c0.4-0.2,0.8-0.3,1.1-0.5c0-2.9,0-5.8,0-8.7
			c0-0.8-0.3-1.3-1.2-1.3c-1.5,0-3.1-0.2-4.6-0.1c-2.2,0.2-4.1,1.3-4,3.7c0,2.7,2.1,3.8,4.4,3.6C707,974.6,708.9,974.7,709,978.1z
			 M597.2,970.6c0,0.9,0,1.6,0,2.3c0,0.8-0.1,1.8,1.1,1.8c1.3,0,1-1.1,1-1.9c-0.1-2.1-0.1-4.4,2.8-4.4c3.1,0,2.4,2.6,2.6,4.6
			c0.1,0.7-0.1,1.5,0.9,1.7c0.5,0.1,1.1,0,1.1-0.6c0.1-1.9,0.7-3.9-0.6-5.5c-2.3-2.7-5.3-0.4-8-0.8
			C596.5,967.6,597.5,969.7,597.2,970.6z M728.7,969.4c-0.7,1.3-1.9,0.8-2.9,1c-1.5,0.3-3.5,0.6-3.3,2.5c0.2,2.1,2.3,2,4,1.9
			c0.6,0,1.2-0.2,1.7-0.4c1.1-0.3,2.9,1.6,3.4-0.9c0.3-1.4-0.1-2.8-0.8-4.1c-1.2-2.3-3.7-2.8-6.8-1.2
			C725.5,968.8,727.2,967.7,728.7,969.4z M648.2,974.7c-1.4-2.1-3.8-0.2-5.2-1.8c1.7-1.6,3.4-3.2,5.3-5c-3.1,0-5.7,0-9,0
			c2,1.1,3.7,0.2,5,1.2c-1.2,2.3-4.1,2.9-4.9,5.6C642.5,974.7,645.2,974.7,648.2,974.7z M665.3,969.6c-0.6,0.8-1.5,0.6-2.3,0.8
			c-1.7,0.3-4.1,0.4-3.8,2.7c0.3,2.2,2.7,1.8,4.5,1.7c0.9-0.1,1.6-0.8,2.7-0.2c1.2,0.6,1.2-0.4,1.3-1.3c0.6-5.3-1.7-7-7.1-5.1
			C662.1,969,664.3,967.4,665.3,969.6z M625,969.4c-0.2,0.3-0.3,0.5-0.3,0.5c-2.3,0.6-6.4,0.5-6.1,3c0.4,2.7,4.1,1.5,6.6,1.6
			c2.3,0.1,2.2-0.5,2.2-2.1c0-4.8-2.3-6.2-7-4.2C621.8,968.9,623.7,967.6,625,969.4z M749.7,968c-1.3-0.4-2.5-0.4-2.7-0.9
			c-1.1-2.5-1.2-1.6-2.7,0c-1.9,2,1.1,2.3,0.6,4c-1,3.2,1.1,4.3,4.4,3.3c-2.4-0.4-2.5-2-2.6-3.9C746.5,968.5,748,968.7,749.7,968z
			 M585.4,967.9c-1.2-0.4-2.4-0.4-2.6-0.8c-1.1-2.7-1.4-1.5-2.7,0c-1.8,2,0.9,2.6,0.5,4.3c-0.8,3.2,1.4,3.8,4.5,2.8
			c-3.5-0.2-2.4-2.5-2.6-4.3C582.3,967.9,584.2,968.8,585.4,967.9z M636.2,776.4c-1.4-0.7-2.7-1.3-3.9-2c-0.8-0.4-1.6-0.7-2,0.4
			c-0.3,0.9,0,1.6,0.8,2.1C632.9,778,634.4,777.3,636.2,776.4z M635.5,786.9c1.6-1.8,1-3.5,1.6-4.9c0.2-0.5,0.3-2-0.7-2.1
			c-1.1-0.1-2.1,0.8-1.9,2.1C634.7,783.5,635.1,784.9,635.5,786.9z M677.1,778.9c1.2,0,1.6-0.9,1.8-1.8c0.1-0.7-0.5-1-1.1-0.9
			c-1,0.2-1.7,0.8-1.9,1.8C675.7,778.8,676.4,778.9,677.1,778.9z M734.1,796.4c0.3-0.3,0.5-0.5,0.7-0.7c0.2-0.5,0.7-1.4-0.4-1.2
			C733.6,794.7,733.7,795.6,734.1,796.4z M621.3,952.3c-0.2-0.1-0.4-0.3-0.6-0.2c-0.1,0.1-0.2,0.4-0.3,0.6c0.2,0.1,0.4,0.3,0.6,0.2
			C621.1,952.8,621.2,952.5,621.3,952.3z"/>
		<path class="st1" d="M617.2,883.3c-5.7,1.2-11.5,1-17.3,0.7c1.2-2.3-0.1-4.5-1.5-5.4c-2.3-1.5,0.1-2.1,0.1-3.1
			c0-1.8,1.2-0.8,2-0.6c0.8,0.2,6-0.9,6.3-1.3c0.8-1.3-0.2-7.7-1.5-9.1c0.9-4,2.2-8,1-12.1c2.7-1.7,5.1-3.6,7.3-5.9
			c0.8-0.1,1.9,0.7,2.4-0.4c0.2-0.4-0.5-0.9-1.1-1c-0.2-0.6-0.3-1.2-0.5-1.8c-0.2-0.3-0.4-0.6-0.6-0.9c0-0.5,0-1,0-1.5
			c0.4-0.4,0.3-0.7-0.2-0.8c0,0,0,0,0,0c0.2-1.9,1.2-1.2,2.2-0.8c0.6,0.2,1.4,0.9,1.8,0c0.4-0.7,0.4-2.2-0.2-2.2
			c-2.5,0-3.5-3.1-6-2.7c-1-2.9-2-5.8-3-8.8c0.1-0.1,0.1-0.3,0-0.4c-0.1-0.2,0-0.3,0.1-0.4c1.5-0.2,1.6-2.6,3.5-2.1
			c2.1,0.2,5.5-0.9,3.4,3.4c-1,2,0.3,3.3,1.6,4.2c0.8,0.5,2.3-0.3,2.6-1.3c0.5-1.6,1.4-3.5-1.3-4.7c4.9,1.3,4.4-2.6,5.4-5.1
			c1,0,1.3-0.7,1.4-1.6l0,0c3.2,0.4,5.1,2.1,6.5,5.2c1.4,3.2,0.9,6.3,1.2,9.4c-2,0-0.9-3.7-3.6-2.9c-2.7,1.4-4.6,4.2-8.2,3.7
			c-1.2-0.2-1.7,1.3-1.8,2.3c-0.2,2.4-0.6,4.8,1.2,6.8c1.2,1.3,0.9,2.5,0.4,4.2c-0.9,2.8-3.8,4.3-3.9,7.4c-0.4,0.2-1,0.3-1.1,0.6
			c-0.2,0.8,0.6,0.8,1.1,0.9c0.2,1.5-2,3.1-1,3.9c2.5,2.1,1.2,4.5,1,6.9c2-0.5,3.2-1.6,3.9-3.4c0.3-0.7,1.4-1.4-0.3-1.7
			c-2-0.4-1.4-1.9-1.3-3.1c0.1-1.9,1.9-0.1,2.5-1.1c-0.8-1.3-3.6-2.8-0.4-4.2c1.6-0.6,3.8-0.9,5.1,1.3c0.1,1.9,0.9,3,2.9,3
			c0.3,2.8,0.4,5.6,0.1,8.5c-0.2,0.1-0.5,0.3-0.7,0.4c0.2,0.1,0.5,0.3,0.7,0.4c1.1,1.7-1.4,5.1,2.6,5.3c0,2.6-2.7-1.3-3.2,1.4
			c-0.5,2.5-3.5,2.5-5.4,0.3c-0.5-2.3,1.7-1.7,2.6-2.5c-2.4-0.8-4.3-0.7-4,2.6c-1.1,1.5-1.9,4.1-3.3,4.4
			C614.5,878.6,616.2,880.9,617.2,883.3z"/>
		<path class="st2" d="M728.7,880.1c-11,0-22,0-33,0c-0.2-1.4-0.7-2.5-2.4-2.3c-1.4-0.6-2.4-1.6-2.7-3.1c-1-4.2-3.5-5.8-7.7-4.7
			c-5,1.3-8-3.5-12.5-4c-0.9-0.1-0.6-1.9-0.6-3c0-0.8,0.7-2-0.9-2.1c0.1-0.5,0.1-1,0.2-1.4c1.5-0.3,2.6-2.3,4.5-1.2
			c3.1,1.7,3-0.6,3-2.5c0-0.9-0.3-1.6,0.6-2.1c0.9-0.3,1.1,1.2,2.1,0.8c2.1-0.8,2.6,1.5,2.4,2.3c-1,3.6,1,3.3,3.3,2.9
			c4.5-0.7,8.3,0.7,12.2,3c2,1.1,3,5.1,6.6,3.1c0.1,0,0.7,1.2,1.2,1.5c1,0.7,1.7,0.2,1.6-1.2c0-0.3-0.2-0.5,0.2-0.8
			c3-2.3,5,0.5,7.2,1.5c1.3,0.6,2.4,2,2.3,3.8c0,0.5-0.9,0.9-0.9,1.4c-0.2,1.5-0.3,3.1,2.1,2.2c0.8-0.3,1.6-0.4,2.4-0.7
			c-2.5-2.7-2.3-3.2,1.2-4c0.5,0.3,1,0.6,1.5,0.9c0,0,0.2,0,0.2,0s0.2,0.1,0.2,0.1c0.3,3.3,1.1,6.2,4.9,7
			C729.2,878,728.7,879.2,728.7,880.1z M711.1,878.1c0,0.1-0.1,0.2-0.1,0.3c0,0,0.1,0.1,0.2,0.1c0-0.1,0.1-0.2,0.1-0.3
			C711.3,878.2,711.2,878.2,711.1,878.1z M721.2,871.6c0,0.1-0.1,0.2-0.1,0.3c0,0,0.2,0.1,0.2,0.1c0-0.1,0.1-0.2,0.1-0.3
			C721.4,871.7,721.3,871.7,721.2,871.6z"/>
		<path class="st3" d="M668.8,861c1.7,0.1,0.9,1.3,0.9,2.1c0,1.1-0.3,2.9,0.6,3c4.5,0.5,7.4,5.3,12.5,4c4.3-1.1,6.7,0.5,7.7,4.7
			c0.4,1.5,1.4,2.4,2.7,3.1c0,1,0,2,0.1,3c-5.4,0.6-10.8,0.2-16.1,0.3c-4.8,0.1-6.4,1.5-7.5,6.1c-1.3,5.3-2.8,10.5-4.2,15.7
			c-2.9-0.9-4.7,1.7-7.2,2.2c-1.9-2-4.2-3.3-7-3.7c-1.8-0.2-2-1-1.1-2.4c0.5-0.7,1-1.3,1.5-2c2.9,1.3,3.9-0.3,4.3-2.8
			c0.7-4.3,1.7-5.1,5.6-4.4c-0.2-1.3-0.5-2.6-0.5-3.8c0-0.9-0.3-2,0.8-2.5c0.8-0.4,2.8-0.1,2.1-1.6c-0.6-1.4-1.7-3.1-3.3-3.5
			c-3.8-0.9-5.3-2.7-5.3-6.8C660.8,869.2,666.2,866.9,668.8,861z"/>
		<path class="st4" d="M633,832.3c-0.3-3.1,0.3-6.2-1.2-9.4c-1.4-3.1-3.3-4.8-6.5-5.2c0.2-0.4,0.3-0.8,0.5-1.2c2.7,0,5.1-2,7.9-1.4
			c2.7,1.7,5.3,3.3,8,5.1c2.3,1.5,4,0.3,5.7-0.9c1.9,1.7,4.1,1.8,6.5,1.5c1.3,1.2,3.1,1.2,4.6,1.9c3.8,1.7,7.3,3,9.3,7.6
			c3.1,7.2,4.5,7.4,11.4,6.3c0.9,0.3,1.7,0.6,2.6,0.9c0,0.7-0.1,1.5-0.1,2.2c-2.1,0-4.3-0.1-6.4-0.1c-2.1-0.1-4.9,0-5.9-1.7
			c-1.8-3-4.3-3.2-7.2-3.3c-1.4-2.9-4-0.9-6-1.4c-1.6-0.7-3.2-1.4-4.2-2.9c-1.9-2.9-3.9-1.7-6.4-0.8c-2.7,1-1.4,2.9-1.6,4.4
			c-0.1,1,0.3,2.1,0.5,3.1c-1.3,1-2.8,1-4.3,1.3c-0.2,0.2-0.4,0.3-0.6,0.5c-0.7,0-1.4,0-2.2,0C637.4,835.4,633.2,835.3,633,832.3z"
			/>
		<path class="st5" d="M606.3,852.4c1.2,4.2-0.1,8.1-1,12.1c-3.3,1.7-5.6,4.1-7.1,7.7c-1.5,3.5-1.8,8.8-8.4,8.5
			c4.1,0.8,0.8,2.9,1.5,4.1c-9-0.3-18,1.2-27.3,0.6C578.2,874.3,592.2,863.4,606.3,852.4z"/>
		<path class="st6" d="M690.7,956.9c-8,3.2-15.4,4.1-20.7-2.4c-4.4-5.4-2.7-14.1,4-16.4c-1.6,2.7-2.6,4.9-0.1,7.7
			c2.8,3.1,6.1,3.6,9.6,3c2.4-0.4,4.3-2.4,4.9-4.7c1.5-5,1.9-10.2,0.7-15.4c0.4-1.3-0.8-3,0.9-4.3c1.1,2.2,1.8,4.7,5,4
			c0.2,0.1,0.3,0.3,0.5,0.4c0.1,0.7,0,1.6,1.1,1.7c1.7,3,2.7,6.2,3.4,9.5c1,4.9-0.3,9.3-3.6,13.1c-1.8-3.3-3.9-0.2-5.6,0.1
			C689.2,953.4,689.7,955.6,690.7,956.9z"/>
		<path class="st4" d="M651.8,897c-0.5,0.7-1.1,1.3-1.5,2c-1,1.4-0.7,2.2,1.1,2.4c2.8,0.3,5.1,1.6,7,3.7c0,0.4,0,0.9,0,1.3
			c0,1-0.1,1.9-0.1,2.9c-1,0.5-3.8-0.9-2.1,2.2l0,0c-1.7,0.4-2.5-1.9-4.3-1.5c-0.4,0-0.9-0.1-1.3-0.1l0,0c-0.1-0.9-0.6-1.3-1.5-1.3
			c-2.6-3.5-4-3.6-6.9-0.8c-0.8,0.7-1.7,1.2-2.6,1.8c-3.6-6.4-5.5-13.5-8.6-20.1c-2.7-5.7-2.3-5.9-8.6-5.9c-1.7,0-3.3-0.1-5-0.1
			c-1-2.3-2.7-4.6,1.8-5.6c1.3-0.3,2.2-2.9,3.3-4.4c0.5,0,0.9-0.1,1.4-0.1c1.9,2.2,4.9,2.2,5.4-0.3c0.5-2.7,3.2,1.1,3.2-1.4
			c1.9-1.6,4.6-0.5,6.5-1.9c0,1.8,0.3,3.6-1.3,5c-0.5,0.4-0.7,0.9-0.4,1.5c1.5,3.4-1.2,4.7-3.4,5.6c-1.3,0.5-2.9,0.4-3,2.3
			c-0.1,1.8,0.7,3.3,2.4,4c2,0.9,2.9,2.4,2.9,4.5c0,2.9,1.4,3.7,3.9,2.5c3.2-1.6,6.6-0.7,9.9-0.8C651.4,894.2,651.8,895.6,651.8,897
			z M623.7,879.1c0-0.8-0.2-1.4-1.2-1.4c-1,0.1-1.5,0.7-1.6,1.6c0,0.9,0.4,1.7,1.5,1.6C623.3,880.8,623.6,880,623.7,879.1z"/>
		<path class="st7" d="M692.6,796.9c-2,7.5-3.8,15-6,22.4c-1.3,4.3-1.2,8.9-3.5,12.9c-2.1-1.3-3.5-3.7-6.1-4.3c-2.2-2.6-6-4.1-6-8.3
			c0,0-0.2-0.3-0.2-0.3c0.6-1.7,0-2.7-1.8-3c-0.3-0.2-0.6-0.4-0.8-0.6c0.3-1.5-0.7-3.7,2.2-3.6c0.9,1.4,1.7,3.4,3.4,3.2
			c3.9-0.3,7.7-0.9,11.6-0.6c1,0.1,1.5-0.8,1.5-1.6c-0.1-1.8-0.2-3.7-0.9-5.2c-0.7-1.5-2.3,0.1-3.6-0.1c-1.3-0.2-2.6-0.1-3.9-0.1
			l-0.1-0.1c-0.1-1-0.1-2-1.6-1.9c-2.3,0-4.7,0.1-7,0.1c-0.6-0.1-1.2-0.2-1.5-0.8c0.6-1.7,2.2-2.2,3.5-3.1c1-0.2,2.7,0.9,2.4-1.4
			c0.1-0.1,0.3-0.2,0.4-0.4c2.7,0.2,4.6,2.1,6.7,3.5c1.1,0.7,2,1.1,2.5-0.1c0.8-2,3-3.3,2.8-5.8c0.4-0.8,0.8-1.6,1.1-2.4
			c0.4,0,0.8,0,1.2,0C689.6,797.2,691.3,796.5,692.6,796.9z"/>
		<path class="st6" d="M639.4,909.4c0.9-0.6,1.9-1,2.6-1.8c2.9-2.8,4.3-2.6,6.9,0.8c0,1.1,0.4,1.5,1.5,1.3c0,0,0,0,0,0
			c-0.2,1,0.2,1.5,1.2,1.6c0.1,0.2,0.1,0.4,0.2,0.6c-0.3,0.6-0.6,1.3-0.8,1.9c-1.3,3.2,0.3,5.9,3.5,6.1l0.1,0.1
			c-0.3,2.6,2.9,1.8,2.9,2.4c0.3,3.5,1.4,0.7,2.2,0.4c-1.1,4.3-2.1,8.6-3.5,12.8c-0.5,1.5-0.8,3-0.9,4.5c-1.4-0.2-2.9-0.3-4.3-0.5
			c0,0,0-0.1,0-0.1c0-0.1,0.1-0.2,0.1-0.3c-0.1-0.2-0.2-0.4-0.3-0.6c-0.1-0.2-0.2-0.5-0.3-0.7c0-0.8,0-1.6-0.9-1.9
			c0,0-0.1-0.1-0.1-0.1c0.1-0.6,0.1-1.1-0.4-1.5C645.6,926.2,642,918,639.4,909.4z"/>
		<path class="st3" d="M662.2,834.4c2.8,0.1,5.4,0.3,7.2,3.3c1,1.7,3.8,1.7,5.9,1.7c2.1,0.1,4.3,0.1,6.4,0.1c0.4,0.9-0.3,1.4-0.7,2
			c-1.2,0.6-3.7-1-3.6,1.4c0.1,1.9,1.9,3.1,4.1,2.9c0.5,0,0.9,0,1.4-0.1c1.2,0.1,2.2,0.8,3,1.5c-1.5,0.3-0.6,2.1-2,2.9
			c-2.3,1.4-4.9,0.8-7,2.1c-2.6-0.6-3.4,2.4-5.5,2.9c-0.4-0.7,0.2-1.9-1.2-2.6c-0.3,2-1,3.4-3.1,3.8c-2.2,0.4-2.6,2.1-2.2,4.1
			c-1,1.8-3,2.6-4.4,3.9c-0.6,0.5-1.2,0.7-1.9,0.4c-1-0.4-0.9-1.5-0.7-2.2c0.6-2.6,0.9-5.3,2.5-7.5c0.9,0.3,1.5,0.6,2.6,0.2
			c2.4-0.7,0.7-3.2,2.2-4.2c1.7-1.1,2.9-3.4,2.5-4.4c-0.7-1.8-3.2-0.6-4.9-0.9c-0.4-2.1,1.4-4.3-0.2-6.4c0.5-1,2.5-0.7,2.1-2.4
			c-0.3-1.5-1.6-1.1-2.6-1.3C662.1,835.3,662.1,834.8,662.2,834.4z"/>
		<path class="st5" d="M576.8,923.3c1.7,0,3.3,0,5,0c1.8,2.3,3.4,4.7,4,7.7c-3.8,2.6-7.9,3.5-12.5,2.6c0,0,0-0.3,0-0.3
			s0.1-0.1,0.1-0.1c4.1-1,1.1-4.4,2.1-6.5c0.2-0.5-5.1-2.4-5.9-2c-0.6,0.3-1.1,0.6-1.1,1.3c-0.2,3.1-2.3,3.1-4.5,3
			c2.4-5.3,1.3-7.3-4.1-7.3c-0.5,0-0.9,0-1.4,0.1c-2.2-7.1,0.9-15,6.8-17.5c2.4-1,4.9-1,7.3-0.2c0.8,0.2,1.9,0.4,1.8,1.4
			c0,0.9-1.1,1.1-1.9,1.4c-5.2,2.2-7.1,6.3-5,11.1c1.4,3.1,4.3,3.8,7.2,4.6c0.6,0.2,1.1,0.4,1.6,0.6c0,0,0.2,0.3,0.2,0.3
			L576.8,923.3z"/>
		<path class="st5" d="M562.4,824.4c-8.1-6.3-8.9-14.5-5.4-23.3c1.6-4.1,5.7-6.4,10-7.3c3.6-0.7,7.3-0.2,10.7,1.6
			c0.9,0.5,1.8,1,1.8,2c0,1.2-1.2,1.2-2,1.6c-2.4,1.1-5.1,1.4-7.5,2.3c-5.1,2.1-7.3,7.3-6.1,13.5c-2.6,1.6-2.6,1.6-0.9,3.7
			c0.2,0.2,0.3,0.8,0.2,0.9C561.5,820.9,563.2,822.8,562.4,824.4z"/>
		<path class="st8" d="M676.8,852.3c2.1-1.3,4.7-0.6,7-2.1c1.4-0.9,0.5-2.6,2-2.9c10.3,6.4,20.6,12.8,30.8,19.4
			c1.4,0.9,3.5,1.1,4.3,2.9c-3.5,0.8-3.7,1.3-1.2,4c-0.9,0.2-1.7,0.4-2.4,0.7c-2.4,0.9-2.4-0.7-2.1-2.2c0.1-0.5,0.9-0.9,0.9-1.4
			c0.2-1.7-0.9-3.1-2.3-3.8c-2.2-1-4.2-3.8-7.2-1.5c-0.4,0.3-0.2,0.4-0.2,0.8c0.1,1.3-0.6,1.9-1.6,1.2c-0.5-0.4-1.1-1.6-1.2-1.5
			c-3.6,2-4.6-1.9-6.6-3.1c-3.9-2.3-7.7-3.7-12.2-3c-2.3,0.4-4.2,0.7-3.3-2.9c0.2-0.8-0.3-3.1-2.4-2.3c-1.1,0.4-1.2-1-2.1-0.8
			C677,853.3,676.9,852.8,676.8,852.3z"/>
		<path class="st6" d="M713.6,929.5c1.8,3,3.1,6.3,5.3,9c0.5,0.6,1.7,1.7,0.3,2.7c-1,0.7-1.7-0.2-2.5-0.7
			c-6.2-4.9-12.7-9.6-18.5-14.9c-3.4-3.1-7.9-5.1-10.5-9c-0.2-0.6-0.6-0.8-1.1-0.9c0,0-0.2-0.2-0.2-0.2c-0.6-2.8,0.9-5.6,0-8.5
			c2.4,0.2,3.6,1.2,3.5,3.9c0,3.4,3.3,6.3,6.8,6.3c2.9,0,5.8,0,8.8-0.1c1.4,0.8,1,2.5,1.9,3.6c-0.7,0.2-1.9,0.7-1.5,1.1
			c2.6,2.4-0.8,2.3-1.4,3.3C707.1,927.8,709.8,929.7,713.6,929.5z M688.4,914.8c0.2-0.1,0.5-0.1,0.5-0.3c0.1-0.1-0.1-0.4-0.2-0.6
			c-0.2,0.1-0.5,0.2-0.7,0.3C688.2,914.5,688.3,914.6,688.4,914.8z"/>
		<path class="st9" d="M625.8,770.3c-0.1-0.3-0.2-0.7-0.4-1c-2.8,1.5-5-0.3-7.4-1.3c-1.4-0.6-2.2-0.3-3.2,1c-3.2,4.3-3.5,6.5-1,10.8
			c0.6,1,0.5,1.6-0.7,1.8c-1.9,0.3-6.2-3.1-7.3-5.6c-1.5-3.5-1-6.7,1.1-8.5c0.7-0.6,1.6-1.2,2.1-0.5c2.1,2.8,3.9,0.3,5.4-0.5
			c1.6-0.8,3-2.9,0.5-4.5c-1.9-1.3-1.4-2.1,0.2-3.1c4-2.7,9.5-1.5,10.5,2.9c0.9,3.6,3,3.5,5.2,2.4c1.9-1,1.9-0.5,2.4,1.1
			c0.7,2.1,0.1,4.6,1.7,6.8C632,770.9,629.4,767.5,625.8,770.3L625.8,770.3z"/>
		<path class="st10" d="M573.8,843.2c-2-1-4.6-0.6-6.4-2.2c1.4-2.5,0.4-4.2-1.6-5.7c-0.8-0.6-2-1-1.8-2.4c6.4-1.2,13-0.3,19.4-1.3
			c-0.2,1.5-1.4,3.2,0.4,4.3c1.8,1.1,3.9,1.3,5.8,0.1c0.8-0.5,1.3-1.3,2-2l0.1,0.2c0,0-0.2,0.1-0.2,0.1c-0.2,0.7,0,1.3,0.8,1.5
			c2.5,1.7,3.8,3.6,0.8,6c-1.2,1-1.2,3.3-3.3,3.4c-0.7-1.5-1.9-1.8-3.2-1.1c-0.9,0.4-2,1.1-1,2.5c-1.2-0.2-2.4-0.5-3.7-0.7
			c-0.3-0.2-0.6-0.3-0.8-0.5c0,0,0,0,0,0c-1.4-2.5,1-3.8,2-5.4c0.6-0.9,1-1.5,0.2-2.4c-1-1.1-1.3,0.4-1.9,0.5
			C578.2,838.9,575.9,840.9,573.8,843.2z"/>
		<path class="st10" d="M723,821.4c0.7-0.2,1.5-0.4,2.2-0.5c-0.3,3,2.1,4.4,3.7,6.4c0,0,0,0,0,0c-0.7-0.1-1.2,0.1-1.3,0.9l-0.1-0.1
			c0,0,0.1,0.1,0.1,0.1c-0.8,0-1.3,0.3-1.6,1c-4.2,3.7-8.9,6.8-13.7,9.5c-5.2-3.1-7.1-8.9-5.1-12c4.4-1.5,8.8-3,13.2-4.5
			c0.2,0,0.4,0,0.5-0.2c0.5-0.1,1-0.1,1.5-0.2C722.8,822.1,723,821.9,723,821.4z"/>
		<path class="st5" d="M573.3,847.3c-4.8,1.4-10,1.3-14.5,4.1c-3.6,2.2-5.8,7.2-4.4,11.2c-1.6,2.5-3,5-4.1,7.8
			c-5.3-4.7-6-11.7-2-18.7c3.6,0.2,5.5-1.8,6.3-5.1c1.3-1.1,2.9-1.4,4.5-1.4c4.1,0,8.3,0,12.4,0.7
			C572.5,846,573.3,846.1,573.3,847.3L573.3,847.3z"/>
		<path class="st11" d="M654.1,772.6c-0.9-12.2,9.3-20.7,20.8-17.2c2,0.6,3.7,1.7,4.9,3.4c-0.2,2.3-1.8,2.1-3.4,2.1
			c-2.4,0-4.8,0.1-5.9,2.9c-3.5-0.9-5.9,1.7-8.7,2.9c-1.2,0-2.1,0.4-2.9,1.5C657.6,769.9,656.2,771.7,654.1,772.6z"/>
		<path class="st2" d="M728.1,927.2c-3.3,0.5-5.9-1.1-8.5-2.9c-6-4.1-11.2-8.8-14.1-15.6c-0.6-1.4-1.1-2.7-1.3-5.3
			c3.4,3.1,4.6,6.9,7.9,8.8c3.2,1.9,7,1.9,10.2,3.7c0.3,0.2,0.6,0.3,0.9,0.5c1.3,0,2.6,0,4,0c0.2,0.5,2.2-0.5,1,1.3
			c-0.6,0.8-2.6,1.4-1,3C729.3,922.6,728.9,924.9,728.1,927.2z M725.9,920.9c-1.7,0.4-3,0.3-3.5,1.6c-0.2,0.4,0.1,1,0.7,1
			C724.5,923.5,725,922.4,725.9,920.9z"/>
		<path class="st12" d="M649,800c-1.1,2.6-2.3,3.5-5.1,1.5c-4.8-3.6-6-6.9-4.8-12.7c0.8-3.7,1-7.5,1.1-11.3c0.1-2.8,0.2-5.4,1.4-7.9
			c0.5,0,1,0,1.4,0.1c0.9,1.2,1,2.5-0.1,3.5c-1.9,1.9-0.4,2.1,1,2.6c0.1,0,0.1,0.4,0.1,0.5c-0.4,1.2-2,0.9-2.2,2.7
			c1.9-0.4,3.5,0.7,5.4,0.7c0.1,1-0.6,1.6-1.1,2.4c-1.5,2.7-3.4,5.4-1.2,8.7c-0.7,2.1-0.1,3.8,2,4c3.3,0.4,3.1,1.7,1.4,3.6
			C647.4,799.5,647.7,799.8,649,800z"/>
		<path class="st8" d="M705.6,917.1c-2.9,0-5.8,0.1-8.8,0.1c-3.5,0-6.9-2.9-6.8-6.3c0-2.7-1.2-3.7-3.5-3.9c-0.2-0.2-0.5-0.5-0.7-0.7
			c0-0.5,0-0.9-0.1-1.4c0-0.2,0-0.3-0.1-0.5c1-0.7,2-1.6,3.2-2.2c1-0.5,1-2.8,2.5-1.8c1,0.7,2.2,2.8,1.8,3.6
			c-1.1,2.6,0.7,1.5,1.6,1.7c1.4,0.3,2-1.2,3.1-1.5C700,908.7,703.7,912.4,705.6,917.1z"/>
		<path class="st9" d="M630.9,958.2c-1.2,2.4-6.7,4.6-8.7,2.9c-2.1-1.7-4.2-1.5-6.4-1.5c-2,0-3.8-0.4-5.5-1.4
			c-1.2-0.7-2.6-2.2-1.1-3.4c2.7-2,0.4-2.6-0.7-3c-3-1.3-2.5-2.2-0.1-3.7c4.3-2.6,4-2.4,8.1,1c1.8,1.5,2.3,2.5,1.6,4.6
			c-0.4,1.2-0.6,3,0.8,4c1.5,1.1,2.9,0.3,4.2-0.8c0.3-0.3,0.9-0.2,1.4-0.2c0.7,0,1.7,0.2,2-0.2C629,954.2,630,956.1,630.9,958.2z"/>
		<path class="st8" d="M728.1,927.2c0.8-2.3,1.2-4.6-0.9-6.6c-1.7-1.6,0.4-2.2,1-3c1.3-1.8-0.8-0.8-1-1.3c3.3-0.4,5.5-2.2,7.3-4.9
			c3-0.5,3.7,1.6,4.3,4.3c1.2-1.3,2.2-2.5,3.7-2.1C742.7,921.2,735.8,927.7,728.1,927.2z"/>
		<path class="st13" d="M668.3,815.7c0.3,0.2,0.6,0.4,0.8,0.6c0.3,1,0.5,2,0.8,3c0.1,1.9-0.9,3.3-1.6,4.9c-2.2,0.1-3.1-2-4.1-3.2
			c-2.4-3-7.7-3.5-10.3-0.4c-2.4,0.3-4.6,0.1-6.5-1.5c5.3-3.7,10.5-7.4,15.8-11.1c0.7-0.5,1.5-0.7,2.2-1.1c-2.1,2.7-0.1,5.3,0.2,7.9
			C665.8,816.5,667.1,816.4,668.3,815.7z"/>
		<path class="st10" d="M735.9,841c-3.3-0.3-6.3-1.9-9.7-1.7c-2.8,0.2-5.4,0.5-7.7,2.3c-0.8,0.6-1.8,1.3-2.5,0.3
			c-0.6-0.8,0.5-1.4,1.1-1.9c7.2-5.7,15.2-8.5,24.5-6.2c1.1,1.5,2.6,2.9,0.7,4.8c-0.3,0.1-0.5,0.2-0.8,0.3
			C739.1,837.8,738,840.7,735.9,841z"/>
		<path class="st10" d="M562.4,824.4c0.7-1.5-0.9-3.5,0.9-4.9c0.1-0.1,0-0.7-0.2-0.9c-1.8-2.2-1.8-2.2,0.9-3.7
			c4.2,4.6,8.7,8.4,15.1,9.8c2.4,0.5,4.6-1.6,6.8-0.2C582.5,829.5,567.7,829.4,562.4,824.4z"/>
		<path class="st6" d="M620,905c2.7,5.5,2.2,7.7-3,12.9c-1.1-0.9-0.4-3.8-1.9-3.2c-2,0.9-4.2-0.4-5.8,1.1c-0.5-0.1-1.1-0.2-1.6-0.2
			c-0.2-0.5-0.6-0.6-1.1-0.6c-0.1-0.5-0.2-1.1-0.3-1.6c-0.2-1.6-1.5-1.8-2.7-2c0.3-0.7,0.5-1.4,0.8-2.2c2.2-0.8,4-3.5,6.9-0.3
			c1.5,1.7,5.7-0.8,6.4-3.4C618.4,905,619.2,905,620,905z"/>
		<path class="st14" d="M591.3,884.8c-0.7-1.2,2.7-3.2-1.5-4.1c6.6,0.3,6.9-5,8.4-8.5c1.6-3.6,3.8-6,7.1-7.7
			c1.2,1.4,2.3,7.8,1.5,9.1c-0.2,0.4-5.5,1.5-6.3,1.3c-0.8-0.2-2-1.2-2,0.6c0,1-2.4,1.6-0.1,3.1c1.4,0.9,2.7,3.1,1.5,5.4
			C597,884.3,594.2,884.5,591.3,884.8z"/>
		<path class="st9" d="M670.5,763.8c1.1-2.8,3.5-2.8,5.9-2.9c1.6,0,3.2,0.1,3.4-2.1c5.9,4,4.7,10.5,0.5,14.9c-1,1-1.6,0.8-1.9-0.5
			C677.2,768.8,674.3,765.9,670.5,763.8z"/>
		<path class="st13" d="M747,853.8c0.3-3.1-2.8-4.9-3.1-7.8c1.5-0.7,1.8-3.2,2.1-3.2c4.4-0.4,2.6-3.7,2.9-5.9c4.2,2,7.1,5.1,8,9.7
			c-1.7,0-2.9,0.7-3.6,2.3c-1-0.2-1.6,0.3-2.1,1.1c-1.7,0.1-3.1,0.7-2.9,2.8C748.4,853.9,747.5,853.5,747,853.8z"/>
		<path class="st5" d="M645.1,790.7c-2.2-3.2-0.3-6,1.2-8.7c0.4-0.8,1.2-1.4,1.1-2.4l0,0c1.3,0.1,1.8-1.9,3.4-1.3
			c1.6,5.2,3.7,10.2,3.7,15.7c-2.5-1.2-6.2,0.3-7.7-3.3C646.7,790.5,645.7,790.7,645.1,790.7z"/>
		<path class="st5" d="M729.5,810.8c1.1,3.5-2.4,4-3.9,5.1c-4.7,3.1-10.6,3.5-16,5.2c0.8-1.8,2.6-1.9,3.8-2.8c4.1-2.9,7.9-6,9.7-11
			c0.2-0.6,0.8-1.2,1.2-1.7C724.9,808.4,727.2,809.6,729.5,810.8z"/>
		<path class="st2" d="M742.5,913.6c-1.6-0.3-2.5,0.8-3.7,2.1c-0.6-2.7-1.3-4.9-4.3-4.3c0.3-2.4,0.3-4.8-0.7-7.1c1-2.4,1-6,5.3-4.7
			c0,0,0.1,0.1,0.1,0.1c-0.1,0.7,0.4,0.9,1,1c0.2,0.1,0.3,0.2,0.3,0.4c0.2,0.3,0.3,0.7,0.5,1C742.9,905.7,744.1,909.5,742.5,913.6z"
			/>
		<path class="st5" d="M564,832.9c-0.2,1.4,1,1.8,1.8,2.4c2,1.6,3,3.3,1.6,5.7c-9-2.1-18-4.2-27-6.2c-0.6-0.1-1.2-0.4-1-1.2
			c0.2-0.8,0.9-0.7,1.4-0.7c4.1,0,8.1,0.1,12.2,0.1c-0.2,2.2,1,3.5,2.9,4.3c2,0.8,3.7,0.1,5.1-1.3C562.2,835.1,563,833.9,564,832.9
			L564,832.9z"/>
		<path class="st8" d="M757.5,852.4c-0.9,6.2-3.7,13.8-10.7,15.2c-3.6-0.2-3.5-2.5-3-5.1c1.4-1.2,2.3-2.6,3-4.3c3-0.4,2,3,3.6,3.9
			c1.7-1-0.6-2.7,0.7-3.8c2.1-1.9,3.1-4.5,4.7-6.7C756.4,851.8,757,852.1,757.5,852.4z"/>
		<path class="st12" d="M650.4,963.1c-3-2-4.1-5.5-2.3-8c2-2.9,5.3-3.8,7.6-2.2c3.1,2.2,4.9,4.9,1.7,9.5
			C654.8,960,652.5,960.9,650.4,963.1z"/>
		<path class="st9" d="M710.8,790.4c-0.6,0.8-1.6,1.1-1.9,0c-0.5-1.4-0.7-3.1,0.5-4.4c0.8-0.9,2-1.4,3.2-1.2
			c3.1,0.4,6.3,1.1,9.5,0.3c1.2-0.3,0.9,1.2,1.5,1.6c0.7,0.5,0.8,1.1-0.2,1.5c-1.2,0.5-1,1.2-0.2,1.8c0.6,0.4,1.6,0.4,1.7-0.4
			c0.5-3,2.1-2,3.6-1c2.2,1.4,1.9,3,0.3,4.7c-1,0.2-2.3-1.5-3.1,0.5c-0.5,0.3-1,0.7-1.5,1c-2.1,0.1-1.3-1.8-1.9-2.8
			c-1.6-2.7-4.4-1.6-6.7-2.3c-0.1-1.8-1.1-2.9-2.9-2.8C710.5,787.1,711,788.9,710.8,790.4z"/>
		<path class="st11" d="M616.6,805.6c1,1.5,3.2,0.7,4.2,2.1c0,0.2,0,0.5,0,0.7c0.1,2.6-4.8,5.9,0.9,7.9c0.1,0.1-0.1,1.3-0.2,2
			c-1.5-0.7-2.9-0.6-4.3,0.3c-1.6,1-3.3,1.2-5,0c0.8-1.2,0.9-2.4,0-3.7c1.1-0.5,2-1.6,1.3-2.5c-1.4-1.8,0-3.1,0.5-4.5
			C615.7,808.1,616.2,806.9,616.6,805.6z"/>
		<path class="st11" d="M594.1,933.1c1.4-3.4,2.7-6.8,4.1-10.2c0.4,1.5,0.3,3.2,1.5,4.5c1,1.2,2.1,2.5,3.9,2.5c1,0.8,2-0.6,3-0.1
			c-1.3,3.3-4.1,5.3-6.6,7.6c-2.4-0.3-5.7,0.6-4.7-3.8C595.3,933.5,594.5,933.2,594.1,933.1z"/>
		<path class="st9" d="M590.5,778c0.4,1.8-0.8,3.1-1.8,4.4c-1.3,1.6-2.9,2.3-3.6-0.7c-0.2-0.9-0.3-3-2.1-1c-0.5,0.6-0.3,2.4-1.7,1.3
			c-1.1-0.9-2.2-2.5-1.7-4c1.4-4.6,5.4-5.8,9.6-3.3C590.4,775.4,590.6,776.6,590.5,778z"/>
		<path class="st14" d="M707.1,826.7c-2.1,3.1-0.2,8.9,5.1,12c-1.9,2.2-4.1,3.6-7.2,3c-0.8-1.5-0.7-3.1-0.8-4.8
			c-0.2-0.3-0.4-0.7-0.5-1l-0.1-0.1c0.3-2.6-2-3.1-3.6-4.2c0.1-0.5,0.3-1,0.4-1.5c0.2,0,0.3-0.1,0.3-0.3
			C702.3,827.5,704.4,826.5,707.1,826.7z"/>
		<path class="st12" d="M556.6,887c2.3,2.2,1.3,4.2-0.3,6.3c-2.1,2.7-4.9,2.7-7.7,1.6c-2.5-0.9-3.5-2.7-2.7-5.4
			c0.1-0.3,0.1-0.7,0.1-1.1c0.8,1.6,2.4,3.3,3.6,1.5C551.6,887.2,553.6,886.3,556.6,887z"/>
		<path class="st11" d="M686.7,797.6c0.2,2.5-2.1,3.7-2.8,5.8c-0.5,1.3-1.4,0.8-2.5,0.1c-2.1-1.4-4-3.3-6.7-3.5
			c0.1-0.2,0.1-0.6,0.2-0.7c5.7-2,8.8-7.8,14.7-10.1c-0.1,1.7-0.2,3.2-0.3,4.8c0,0,0,0,0,0c-0.5,0-0.9,0-1.4,0
			c-3.3,0.5-4.5,3.6-6.9,5.1C683.8,801.6,684.6,797.5,686.7,797.6z"/>
		<path class="st11" d="M647.4,779.7c-1.9,0-3.5-1.2-5.4-0.7c0.1-1.9,1.8-1.6,2.2-2.7c0-0.1,0-0.4-0.1-0.5c-1.4-0.5-2.9-0.7-1-2.6
			c1.1-1,0.9-2.3,0.1-3.5c2.2-1.9,3.4-4.2,2.9-7.2c0.4,0.2,1.1,0.4,1.2,0.6c0.6,4.4,2.7,8.4,2.5,12.9
			C649.3,777.4,647.3,777.9,647.4,779.7L647.4,779.7z"/>
		<path class="st5" d="M728.8,827.2c-1.5-2-4-3.4-3.7-6.4c3.1-1.7,6.4-2.9,10-3c1,1,2,1.9,2.9,2.9
			C734.9,822.8,732.5,825.9,728.8,827.2z"/>
		<path class="st3" d="M651.9,912.1c-0.1-0.2-0.1-0.4-0.2-0.6c0-0.5,0.1-1,0.1-1.5c1.7-0.4,2.5,1.9,4.3,1.5c0.1,0.5,0,1,0.2,1.4
			c0.5,0.8,1,1.7,2,1.7c0.8,0,0.6-0.9,0.6-1.4c0.1-1.5-0.9-1.7-2.1-1.7c-0.2,0-0.5,0-0.7,0c-1.7-3.1,1.2-1.7,2.1-2.2
			c0.7,0,1.4,0,2.2,0l0.1,0c0.4,1.4,0.1,3.1,2,3.7c-0.9,2.4-0.2,5.4-2.6,7.2c-1.8,0-3.5,0-5.3,0c0,0-0.1-0.1-0.1-0.1
			c0-1.8-0.1-3.6,0.1-5.4C654.8,912.6,653.8,911.9,651.9,912.1z"/>
		<path class="st12" d="M599.6,927.3c-1.1-1.3-1.1-2.9-1.5-4.5c1.4-3.2,2.1-6.7,4.5-9.4c1.2,1.1,2.4,0.4,3.6,0
			c0.1,0.5,0.2,1.1,0.3,1.6c0.1,0.6,0.6,0.7,1.1,0.6c0.5,0.1,1.1,0.2,1.6,0.2c-0.2,1.8,1.8,2.5,2.1,4.1c-2,0.1-3.9-0.4-5.8-1.1
			c-2.5-0.8-4.3,1.1-4.1,2.6C602.1,924.2,600.7,925.6,599.6,927.3z"/>
		<path class="st11" d="M630.9,958.2c-0.9-2.1-1.9-4-4.5-1.6c-0.4,0.4-1.4,0.1-2,0.2c-0.1-1.4,0.6-2.2,1.9-2.9
			c2.9-1.6,5.5-3.7,7.4-6.5c1.4-0.8,1.8,3.4,3.6,0.8c0.1,3.6-2.3,6.3-3.9,9.2C632.9,958.3,631.8,958.2,630.9,958.2z"/>
		<path class="st12" d="M621.5,818.3c0.1-0.7,0.4-2,0.2-2c-5.7-2.1-0.8-5.3-0.9-7.9c0-0.2,0-0.5,0-0.7c3.7,0.7,6.3,3.3,9.3,5.2
			c-2.4,0-3.3,1.8-4.3,3.5c-0.2,0.4-0.3,0.8-0.5,1.2c0,0,0,0,0,0c-0.8-0.1-1.2,0.4-1.5,1C623,818.5,622.2,818.4,621.5,818.3z"/>
		<path class="st2" d="M749,889c-0.5,0-1,0-1.5,0c-3.9-1.6-2.5-4.6-1.8-7.2c0.8-2.8,3-2.9,5.4-2c3.1,5.5,2.9,6.6-1.3,8.7
			C749.5,888.6,749.2,888.8,749,889z"/>
		<path class="st8" d="M728.7,880.1c0-0.9,0.4-2.1-0.9-2.4c-3.8-0.9-4.6-3.8-4.9-7c4.5,2.1,8.6,4.7,12.7,7.5
			c0.6,0.4,1.5,0.5,1.3,1.4c-0.2,0.9-1.1,0.8-1.8,0.8C733,880.3,730.9,880.2,728.7,880.1z"/>
		<path class="st5" d="M557.4,866.2c3.1,1.8,6.1,1.1,9.3-0.4c-1.3,6.7-5.9,9-12.8,6.7C555.8,870.8,557.2,868.8,557.4,866.2z"/>
		<path class="st15" d="M620,905c-0.8,0-1.6-0.1-2.2,0.6c-3.3,0.2-6.7-0.4-10,0.4c-1,0.2-1.3-0.3-1.5-1c1.4-5.3,6.1-3.1,9.4-4
			C618.7,900.3,620.1,902.1,620,905z"/>
		<path class="st8" d="M739.1,899.6c-4.3-1.3-4.3,2.3-5.3,4.7c-2.3-2.4-5-3.5-8.3-2.9c-1.1,0.2-2,0.1-2.2-1.1
			c-0.2-1.1,0.9-1,1.6-1.3C729.8,896.9,734.5,895.6,739.1,899.6z"/>
		<path class="st7" d="M755.8,851.5c-1.6,2.2-2.6,4.9-4.7,6.7c-1.3,1.1,1,2.8-0.7,3.8c-1.6-0.9-0.6-4.4-3.6-3.9
			c0.3-1.5,1-2.9,0.2-4.4c0.5-0.2,1.5,0.2,1.3-1.1c-0.3-2.1,1.1-2.6,2.9-2.8c0.4,0.7,0.5,2.2,1.6,2c1.1-0.3,0.4-1.6,0.6-2.5
			C754.5,849.6,755.3,850.4,755.8,851.5z"/>
		<path class="st9" d="M594.1,933.1c0.4,0.2,1.2,0.5,1.2,0.5c-1,4.4,2.3,3.6,4.7,3.8c0,1.2-1.1,1.9-1.8,2.5
			c-1.9,1.5-5.3,1.4-4.7,5.2c0,0-0.6,0.1-1,0.2c-0.6-0.6,0.8-1.7-0.5-2.1c-1.6-0.5-2.2,1.2-3.3,1.6
			C591.5,941.4,590.8,936.3,594.1,933.1z"/>
		<path class="st15" d="M748.9,836.8c-0.3,2.2,1.5,5.5-2.9,5.9c-0.3,0-0.7,2.6-2.1,3.2c-2-0.1-2.5-2.5-4.2-3c2-0.7,1.8-2.5,2-4.1
			c0.3-0.1,0.5-0.2,0.8-0.3c1.7,0.1,4.3,1.3,3.2-2.4c0-0.1,0.5-0.4,0.8-0.7C747.7,835.2,748.4,835.8,748.9,836.8z"/>
		<path class="st12" d="M564,928.8c2.2,0.1,4.4,0.1,4.5-3c0-0.7,0.5-1,1.1-1.3c0.8-0.4,6.2,1.4,5.9,2c-0.9,2.1,2.1,5.5-2.1,6.5
			c-0.2-5-0.4-4.9-4.7-2.9c-1.1,0.5-3.6,3.2-4.8-0.5C564,929.4,564,929.1,564,928.8z"/>
		<path class="st14" d="M560.4,969.1c-0.3,0.2-0.5,0.5-0.8,0.7c-0.6,0.3-0.7,0.8-0.5,1.4c-0.4,1.6,1.8,1.8,1.9,3.4
			c-2.2-0.1-3.7-1-4-3.1c-0.3-2.3,1.3-3.6,3.4-3.9c1.9-0.3,3.8-0.1,5.7-0.1c0.5,0,0.9,0.2,1.1,0.7c2.3,4.5-1,9.8-6.1,9.7
			c-0.8,0-1.6-0.2-2.5-1.1c1.1,0,2.3,0.1,3.4,0c1.5-0.2,3.3-0.4,2.6-2.8c0-0.5-0.1-0.9-0.1-1.4c0.2-0.1,0.3-0.3,0.3-0.6
			c0.6-0.8,0.7-1.6-0.1-2.3c0,0,0,0,0,0C563.5,968,562,968,560.4,969.1z"/>
		<path class="st10" d="M612.2,815c0.9,1.2,0.8,2.4,0,3.7c0,1.4-0.1,2.8-0.1,4.1c-1.9-0.5-2,1.9-3.5,2.1c0.5-1.8,2.5-3.9-1.5-4.6
			c-1.3-0.2-1.8-2.7-2-4.5c1.8,0.9,2.5,0,2.7-1.7C609.7,812.2,610.7,815.1,612.2,815z"/>
		<path class="st11" d="M607.8,814.1c-0.2,1.7-0.9,2.6-2.7,1.7c-1.8-3.5,0.7-6.7,0.6-10.1c0.5,0,0.9-0.1,1.4-0.1
			c1.8,0.5,3.4-0.9,5.2-0.6c-0.1,0.6-0.1,1.4-0.5,1.6c-1.6,0.9-4.4,1.5-0.1,2.7c0.6,0.2,0.4,1-0.1,1.4c-1,0.8-2.1,1.3-3.5,1.4
			C606,812.4,606.3,813.3,607.8,814.1z"/>
		<path class="st12" d="M697.8,904.2c-1.2,0.2-1.7,1.7-3.1,1.5c-0.9-0.2-2.7,0.9-1.6-1.7c0.4-0.8-0.8-2.9-1.8-3.6
			c-1.5-1-1.5,1.3-2.5,1.8c-1.1,0.6-2.1,1.5-3.2,2.2c-0.2-1.9,0.6-4-0.8-5.8c2.2,0.1,4.4-0.1,6.7,0.3
			C694.9,899.4,696.6,901.4,697.8,904.2z"/>
		<path class="st11" d="M606.3,936.6c0.6-2,2.1-3.5,3.4-5c0.9,0.4,1.3,1.6,2.5,1.5c0,0.7,0,1.4,0,2.1c-0.1,7.3-0.1,7.3-6.5,9.4
			c-0.3-0.2-0.5-0.5-0.8-0.7c0-0.5,0-1,0.1-1.5c2.3,0.3,4.1,0,4.3-2.8C609.5,937.4,608.3,936.5,606.3,936.6z"/>
		<path class="st5" d="M556.6,887c-3.1-0.7-5.1,0.2-7,3c-1.2,1.8-2.8,0.1-3.6-1.5c-0.5-2.8,0.9-4.5,3.4-4.9
			C552.4,883.1,555.5,883.2,556.6,887z"/>
		<path class="st8" d="M751.1,879.8c-2.4-0.9-4.6-0.8-5.4,2c-0.7,2.6-2,5.6,1.8,7.2c-1.8,0.4-3.3-0.2-4.4-1.7c0-0.7,1.2-1.4,0.3-2.2
			c-0.3-0.2-1,0.2-1.6,0.4c-2-2.9-0.3-5.1,1.8-6.7C746.2,877,748.9,876.9,751.1,879.8z"/>
		<path class="st12" d="M585.9,930.9c-0.7-2.9-2.2-5.4-4-7.7c1.4-1.3,3.3-1.4,5.1-1.7c0.4,3.3,3,2.6,5.1,2.9
			C590,926.6,587.9,928.8,585.9,930.9z"/>
		<path class="st14" d="M709,978.1c-0.1-3.4-1.9-3.5-4.4-3.3c-2.4,0.2-4.4-0.9-4.4-3.6c0-2.5,1.8-3.5,4-3.7c1.5-0.1,3.1,0.1,4.6,0.1
			c1,0,1.2,0.5,1.2,1.3c0,2.9,0,5.8,0,8.7C709.7,977.8,709.3,977.9,709,978.1z M705.4,968.4c-1.6,0.3-3.1,0.8-3.2,2.8
			c0,2,1.5,2.7,3.1,2.7c1.7,0,3.1-0.7,3.1-2.7C708.5,969.2,707.2,968.5,705.4,968.4z"/>
		<path class="st10" d="M564,832.9c-0.9,1.1-1.8,2.2-2.8,3.2c-1.4,1.3-3.1,2.1-5.1,1.3c-1.9-0.8-3.1-2.1-2.9-4.3
			C556.7,832.4,560.3,831.2,564,832.9z"/>
		<path class="st6" d="M668.3,815.7c-1.2,0.7-2.5,0.8-2.7-0.8c-0.3-2.6-2.2-5.2-0.2-7.9c0,0,0,0.1,0,0.1c0.3-0.3,0.5-0.5,0.8-0.8
			c0.3-1.1,1.2-1.3,2.2-1.3c0.3,0.6,1,0.7,1.5,0.8c-0.4,1.1-2.3,2.2-0.1,3.4c0.2,1,0.4,1.9,0.6,2.9
			C667.6,812,668.6,814.2,668.3,815.7z"/>
		<path class="st10" d="M557.4,866.2c-0.2,2.7-1.6,4.6-3.5,6.3c-1.2-0.7-2.9-0.6-3.6-2.1c1.1-2.8,2.5-5.3,4.1-7.8
			C555.4,863.8,555.6,865.6,557.4,866.2z"/>
		<path class="st14" d="M597.2,970.6c0.3-0.9-0.7-3,0.8-2.8c2.7,0.4,5.7-1.9,8,0.8c1.3,1.6,0.7,3.7,0.6,5.5c0,0.6-0.6,0.7-1.1,0.6
			c-1-0.2-0.8-1-0.9-1.7c-0.2-1.9,0.5-4.5-2.6-4.6c-2.9,0-2.9,2.2-2.8,4.4c0,0.7,0.4,1.9-1,1.9c-1.2,0-1.1-1-1.1-1.8
			C597.1,972.2,597.2,971.5,597.2,970.6z"/>
		<path class="st14" d="M645.1,790.7c0.6,0,1.6-0.2,1.7,0c1.5,3.6,5.2,2.1,7.7,3.3c0.8,4.4-3.7,4-5.5,6c-1.3-0.2-1.6-0.5-0.5-1.7
			c1.7-1.9,1.9-3.2-1.4-3.6C645.1,794.5,644.4,792.8,645.1,790.7z"/>
		<path class="st12" d="M729.5,810.8c-2.3-1.2-4.6-2.3-5.2-5.3c0.3-0.8,0.8-1.3,1.6-1.5c2.5,0.7,5.5,0,6.9,3.1c0,0.3,0,0.5-0.1,0.8
			c-0.1,0.2-0.2,0.4-0.1,0.6C732.4,810.3,731,810.6,729.5,810.8z"/>
		<path class="st9" d="M604.7,804.9c-1.3,0.1-1.3,1.5-2.1,2.2c-3.1-3.4-2.6-7.2,1.2-9.5c1.1-0.6,2.2-1.2,2.6,0.8
			c0,0.4,0,0.9-0.1,1.3C606,801.4,606.4,803.5,604.7,804.9z"/>
		<path class="st12" d="M738.1,820.8c-1-1-2-1.9-2.9-2.9c4.1-2.4,8.7-3.6,13.2-4.9c0.2,0.3,0.4,0.6,0.5,0.8
			C745.3,816.1,741.7,818.5,738.1,820.8z"/>
		<path class="st5" d="M573.8,843.2c2.1-2.3,4.4-4.3,7.5-5.1c0.6-0.2,0.8-1.6,1.9-0.5c0.9,0.9,0.4,1.4-0.2,2.4c-1,1.6-3.4,2.8-2,5.4
			C578.7,844.6,576,844.8,573.8,843.2z"/>
		<path class="st12" d="M591.2,918.7c3.9-2.9,7.1-6.4,9-11c-1,6-3.3,11.5-7.2,16.2C592.6,922,594,919.6,591.2,918.7z"/>
		<path class="st14" d="M728.7,969.4c-1.5-1.7-3.2-0.6-4.6-1.1c3.1-1.6,5.6-1.1,6.8,1.2c0.7,1.3,1.1,2.7,0.8,4.1
			c-0.5,2.5-2.3,0.5-3.4,0.9c-0.6,0.2-1.1,0.4-1.7,0.4c-1.7,0.1-3.8,0.2-4-1.9c-0.2-1.9,1.7-2.2,3.3-2.5
			C726.8,970.2,728,970.6,728.7,969.4z M728.9,972.4c0.1-1.3-0.7-1.2-1.4-1.2c-1.2,0-2.6,0-2.8,1.5c-0.1,1,1,1.3,1.8,1.2
			C727.6,973.9,728.6,973.6,728.9,972.4z"/>
		<path class="st13" d="M713.6,929.5c-3.8,0.2-6.5-1.7-9-4.4c0.6-0.9,4-0.9,1.4-3.3c-0.4-0.4,0.8-0.9,1.5-1.1
			C710.2,923.2,711.4,926.6,713.6,929.5z"/>
		<path class="st14" d="M648.2,974.7c-3,0-5.7,0-8.8,0c0.8-2.7,3.7-3.3,4.9-5.6c-1.4-1-3.1,0-5-1.2c3.2,0,5.8,0,9,0
			c-1.9,1.8-3.6,3.4-5.3,5C644.4,974.5,646.8,972.6,648.2,974.7z"/>
		<path class="st14" d="M685.6,974.1c-0.8,1.4-2.1,0.8-3.2,0.8c-1.2,0-2.2-0.6-2.4-1.8c-0.2-1.3,0.9-1.8,1.9-2.3
			c1.4-0.7,3.1,0.1,4.3-1.2c-1.3-2.1-3.3-0.6-4.9-1.4c1.9-0.8,4-1.2,5.9-0.1c2.1,1.3,1.4,3.7,1.2,5.6
			C688.2,976.2,686.5,973.6,685.6,974.1c0.1-0.9,1.7-1.7,0.5-2.6c-0.8-0.7-2-0.3-3,0.2c-0.5,0.2-1.1,0.7-0.9,1.3
			c0.5,1.2,1.7,1,2.7,1C685.1,973.9,685.3,974,685.6,974.1z"/>
		<path class="st14" d="M665.3,969.6c-1.1-2.2-3.2-0.6-4.7-1.4c5.3-1.9,7.6-0.2,7.1,5.1c-0.1,0.9-0.1,1.9-1.3,1.3
			c-1.1-0.5-1.8,0.2-2.7,0.2c-1.8,0.1-4.1,0.5-4.5-1.7c-0.4-2.4,2.1-2.4,3.8-2.7C663.8,970.2,664.7,970.4,665.3,969.6z M663.1,974
			c1-0.2,2.2-0.3,2.4-1.7c0.2-1.4-1-1.1-1.7-1.1c-1.1,0-2.3,0.2-2.5,1.5C661.2,973.8,662.2,973.9,663.1,974z"/>
		<path class="st1" d="M591.5,833.9c-0.6,0.7-1.2,1.5-2,2c-1.9,1.1-4,0.9-5.8-0.1c-1.8-1.1-0.6-2.8-0.4-4.3
			C586.3,831.6,589.6,830.5,591.5,833.9z"/>
		<path class="st14" d="M625,969.4c-1.3-1.9-3.2-0.6-4.7-1.2c4.8-2.1,7.1-0.7,7,4.2c0,1.6,0.1,2.2-2.2,2.1c-2.6-0.1-6.3,1-6.6-1.6
			c-0.3-2.5,3.8-2.4,6.1-3C624.7,969.9,624.8,969.8,625,969.4z M623.5,971.2c-1.1,0.2-2.5,0.1-2.5,1.7c0,0.9,1.1,1.1,1.9,1.1
			c1.1-0.1,2.2-0.4,2.3-1.7C625.3,970.9,624.3,971.3,623.5,971.2z"/>
		<path class="st13" d="M606.3,905c0.2,0.8,0.5,1.3,1.5,1c3.3-0.8,6.6-0.2,10-0.4c-0.7,2.5-4.9,5.1-6.4,3.4
			c-2.9-3.3-4.7-0.5-6.9,0.3C604.3,907.5,605.5,906.4,606.3,905z"/>
		<path class="st13" d="M605.6,918.9c1.9,0.7,3.8,1.1,5.8,1.1c0.2,0.1,0.4,0.2,0.6,0.2c0.2,1.1,0.4,2.2,0.6,3.3
			c-0.6,0.6-1.2,1.2-1.9,1.7c-2.2-1.6-2.6,1.9-4.3,1.6C605.8,924.2,605.7,921.6,605.6,918.9z"/>
		<path class="st12" d="M695.1,928.4c-3.1,0.8-3.9-1.7-5-4c-1.7,1.3-0.5,3-0.9,4.3c-0.7-2.3-2-4.4-3.1-6.6c-0.3-0.6-2.5-0.3-1-1.8
			c0.9-0.9,1.8-0.3,2.5,0.3C690.6,922.8,693.7,924.8,695.1,928.4z"/>
		<path class="st9" d="M732.8,807.1c-1.4-3-4.5-2.4-6.9-3.1c0.5-1.5-1.4-2.1-1.4-3.4c0.5,0,1,0,1.5,0c0.5,0.1,0.9,0.1,1.4,0.2
			c0.2,0.3,0.4,0.9,0.6,0.9c0.7,0,0.6-0.7,0.7-1.2c0-0.2,0-0.4,0.1-0.6c0.7-0.3,1.4-0.5,2.1-0.8c1,0.8,0.5,1.7,0.2,2.6
			c-0.2,0.7-0.2,1.6,0.9,1.4c1-0.1,2.2-0.9,2.5,0.9C734.7,805.4,734.5,806.6,732.8,807.1z"/>
		<path class="st13" d="M677,827.9c2.7,0.5,4,3,6.1,4.3c-0.5,1.7-0.1,3.7-1.4,5.2c-0.9-0.3-1.7-0.6-2.6-0.9c0.5-3.3-0.6-5.7-4-6.8
			c-0.2-0.1-0.3-0.6-0.4-0.9C675.5,828.5,676.3,828.2,677,827.9z"/>
		<path class="st10" d="M564,928.8c0,0.3,0,0.6,0,0.9c-2.7-2.1-4.7-4.7-5.5-8.1c0.5,0,0.9-0.1,1.4-0.1
			C565.3,921.5,566.4,923.5,564,928.8z"/>
		<path class="st7" d="M612,920.2c-0.2,0-0.4-0.1-0.6-0.2c-0.3-1.6-2.3-2.3-2.1-4.1c1.7-1.4,3.8-0.2,5.8-1.1
			c1.4-0.7,0.7,2.3,1.9,3.2c-0.7,0.7-1.3,1.4-2,2.1C614,920.1,613,920.1,612,920.2z"/>
		<path class="st13" d="M658.3,906.4c0-0.4,0-0.9,0-1.3c2.5-0.4,4.3-3,7.2-2.2c-0.9,1.3,0.1,3.2-1.5,4.3c-1,0.5-0.7,1.4-0.7,2.2
			c0,0,0,0,0,0c-1,0-1.9,0-2.9-0.1c0,0-0.1,0-0.1,0C659.6,908.3,660.1,906.6,658.3,906.4z"/>
		<path class="st12" d="M727.4,800.7c-0.5-0.1-0.9-0.1-1.4-0.2c-0.6-1.3-1.2-2.5-1.9-3.8c0-0.6,0.1-1.3,0.1-1.9c0.5-0.3,1-0.7,1.5-1
			c1,0.1,2.1,0.1,3.1,0.2c0.3,0.2,0.6,0.5,0.8,0.7c-0.2,0.9,0.3,1.5,1.2,1.6c0,0.4,0,0.9,0,1.3c-1.3,0.2-2,0.9-2,2.3
			c-0.1,0.2-0.1,0.4-0.1,0.6C728.3,800.6,727.9,800.7,727.4,800.7z"/>
		<path class="st14" d="M749.7,968c-1.7,0.7-3.1,0.5-3.1,2.5c0.1,1.9,0.2,3.5,2.6,3.9c-3.3,1-5.4-0.1-4.4-3.3c0.5-1.7-2.4-2-0.6-4
			c1.5-1.6,1.6-2.5,2.7,0C747.2,967.6,748.4,967.6,749.7,968z"/>
		<path class="st14" d="M585.4,967.9c-1.3,0.9-3.1,0-2.9,2c0.2,1.8-0.9,4.1,2.6,4.3c-3.1,1-5.3,0.4-4.5-2.8c0.4-1.7-2.3-2.3-0.5-4.3
			c1.4-1.5,1.6-2.7,2.7,0C583,967.5,584.2,967.6,585.4,967.9z"/>
		<path class="st9" d="M646,762.4c0.5,3-0.7,5.3-2.9,7.2c-0.5,0-1,0-1.4-0.1c0.3-0.7,0.9-1.5,0.1-2.3c-0.8-0.9-1-1.6,0.5-2.1
			c3-1,2.6-2.6,0.7-4.4c-0.8-0.8-1.5-1.5-1.3-2.8C644.3,758.4,644.8,760.8,646,762.4L646,762.4z"/>
		<path class="st14" d="M591.2,918.7c2.8,0.9,1.4,3.3,1.8,5.1c-0.3,0.2-0.6,0.4-0.9,0.6c-2.1-0.2-4.7,0.4-5.1-2.9c0,0,0.1,0,0.1,0
			c0.5,0,0.7-0.2,0.7-0.7C588.8,920.1,590,919.4,591.2,918.7z"/>
		<path class="st12" d="M654.1,772.6c2.1-0.9,3.5-2.6,4.8-4.4c0.8-1.1,1.7-1.5,2.9-1.5c-3.1,2.9-3.5,7.1-4.8,10.8
			c-0.6-1.2,0.3-4.4-2.8-2.1C654.1,774.5,654.1,773.5,654.1,772.6z"/>
		<path class="st11" d="M646,762.4c-1.2-1.7-1.7-4-4.3-4.3c0.6-1.6-1.3-4.3,1.3-4.7c2.7-0.4,2,2.6,2.7,4.1
			C646.5,759.1,647.2,760.7,646,762.4z"/>
		<path class="st5" d="M654.2,775.4c3.2-2.3,2.3,0.9,2.8,2.1c-0.5,1.8,1.2,3,1,4.8c-0.1,1.4-0.4,2.9,0.6,4.1
			C657.7,782.5,653.7,779.9,654.2,775.4z"/>
		<path class="st7" d="M743.8,862.5c-0.5,2.6-0.6,4.9,3,5.1c-3.5,1.2-7.4,0-10.1-3.5C739.4,864.1,741.7,863.6,743.8,862.5z"/>
		<path class="st13" d="M704.2,836.9c0.1,1.6-0.1,3.3,0.8,4.8c-1.6-0.7-3.1-1.5-4.7-2.2c-1.9-0.7-1.8-2.2-1.7-3.8c1.6,0,3.3,0,4.9,0
			c0,0,0.1,0.1,0.1,0.1C703.7,836.3,703.6,836.8,704.2,836.9z"/>
		<path class="st10" d="M611.5,834.4c2.6-0.4,3.5,2.7,6,2.7c0.5,0,0.6,1.5,0.2,2.2c-0.5,0.9-1.2,0.3-1.8,0c-1-0.4-2.1-1.1-2.2,0.8
			C612.4,838.4,612.2,836.3,611.5,834.4z"/>
		<path class="st12" d="M606.3,936.6c2,0,3.2,0.8,3,3c-0.2,2.8-2.1,3.1-4.3,2.8C604.3,940.2,605.6,938.4,606.3,936.6z"/>
		<path class="st7" d="M685.7,906.3c0.2,0.2,0.5,0.5,0.7,0.7c0.8,2.8-0.6,5.6,0,8.5c-2-0.2-2.6-1.9-3.7-3.2
			C682.9,909.9,685.8,908.8,685.7,906.3z"/>
		<path class="st9" d="M612.3,805.1c-1.8-0.3-3.4,1.1-5.2,0.6c0.1-0.8-0.2-1.8,0.8-2.3c1.2,0,2.7,0.6,3-1.4c2.2-0.2,4.4-0.3,4.9,2.6
			c-0.7,0.2-1.5,0.4-2.2,0.7C613.1,805.2,612.7,805.1,612.3,805.1z"/>
		<path class="st6" d="M685.7,906.3c0,2.5-2.8,3.6-3,6c-3.3-2.5-0.6-5-0.1-7.5c1,0,2,0,3,0.1C685.7,905.4,685.7,905.8,685.7,906.3z"
			/>
		<path class="st12" d="M612.2,933.1c-1.2,0.1-1.5-1.2-2.5-1.5c1-2.7,2.9-4.6,5.8-5.9C614.5,928.1,613.4,930.6,612.2,933.1z"/>
		<path class="st13" d="M690.7,956.9c-1-1.4-1.6-3.5,0.2-3.8c1.7-0.2,3.8-3.4,5.6-0.1C694.9,954.9,692.8,956,690.7,956.9z"/>
		<path class="st13" d="M682.8,845.8c-0.5,0-0.9,0-1.4,0.1c-2.2,0.1-4.1-1-4.1-2.9c-0.1-2.3,2.4-0.8,3.6-1.4
			C681.2,843.1,682,844.4,682.8,845.8z"/>
		<path class="st12" d="M650.9,939.7c1.4,0.2,2.9,0.3,4.3,0.5c0.2,2.1-0.8,3.8-1.8,5.8C651.4,944.1,651.7,941.7,650.9,939.7z"/>
		<path class="st12" d="M637.3,948.1c-1.8,2.7-2.2-1.5-3.6-0.8c0.2-1.7-0.1-3.4-0.7-5.1c1.6-0.2,2.5,0.4,3.1,1.5
			c-0.1,0.6,0,1.2,0.7,1.5C636.9,946.2,637.1,947.2,637.3,948.1z"/>
		<path class="st10" d="M554.5,846.6c-0.8,3.3-2.6,5.3-6.3,5.1C549.5,849,551.5,847.1,554.5,846.6z"/>
		<path class="st12" d="M606.4,926.8c1.7,0.3,2.1-3.2,4.3-1.6c-0.9,2-2.1,3.7-4.3,4.6c-1-0.6-2,0.9-3,0.1
			C604.5,928.8,605.5,927.8,606.4,926.8z"/>
		<path class="st7" d="M685.7,904.9c-1,0-2,0-3-0.1c0.3-2.2-0.7-4.9,2.1-6.2c1.4,1.8,0.7,3.8,0.8,5.8
			C685.6,904.6,685.6,904.7,685.7,904.9z"/>
		<path class="st2" d="M755.8,851.5c-0.5-1.1-1.3-1.9-2.5-2.1c0-0.2,0-0.4,0-0.6c0.7-1.6,1.9-2.3,3.6-2.3c1.3,1.8,0.9,3.8,0.7,5.8
			C757,852.1,756.4,851.8,755.8,851.5z"/>
		<path class="st1" d="M741.7,838.9c-0.2,1.6,0,3.4-2,4.1c-1.4-0.4-2.7-1-3.7-2.1C738,840.7,739.1,837.8,741.7,838.9z"/>
		<path class="st5" d="M703.6,835.7c-1.6,0-3.3,0-4.9,0c0.6-1.3,0.2-3,1.3-4.1C701.6,832.6,703.8,833.1,703.6,835.7z"/>
		<path class="st6" d="M650.4,963.1c2.1-2.2,4.4-3.1,7-0.7C655.3,964.6,652.8,963.9,650.4,963.1z"/>
		<path class="st14" d="M573.2,847.4c3.4-1.4,5,1,7.3,3.4C577.3,850.5,575,849.6,573.2,847.4C573.3,847.3,573.2,847.4,573.2,847.4z"
			/>
		<path class="st9" d="M692.6,796.9c-1.3-0.3-3,0.4-3.5-1.6c0-0.4,0.1-0.8,0.1-1.2c0,0,0,0,0,0c0.5-0.1,0.9-0.2,1.4-0.3
			c0.9-0.2,2-1.7,2.7-0.3C693.8,794.4,694.2,796,692.6,796.9z"/>
		<path class="st15" d="M625.8,816.3c1-1.7,2-3.5,4.3-3.5c1.2,0.7,2.4,1.4,3.6,2.1C630.9,814.4,628.5,816.3,625.8,816.3z"/>
		<path class="st14" d="M746.5,835.6c-0.3,0.2-0.8,0.5-0.8,0.7c1,3.7-1.5,2.4-3.2,2.4c1.8-1.9,0.4-3.3-0.7-4.8
			C743.4,834,745.2,834.2,746.5,835.6z"/>
		<path class="st9" d="M636.2,776.4c-1.8,0.9-3.3,1.6-5.1,0.5c-0.8-0.5-1.1-1.2-0.8-2.1c0.4-1.1,1.2-0.8,2-0.4
			C633.6,775,634.8,775.7,636.2,776.4z"/>
		<path class="st13" d="M654.6,920.2c1.8,0,3.5,0,5.3,0c-0.1,0.9-0.1,1.9-0.2,2.8c-0.7,0.2-1.9,3.1-2.2-0.4
			C657.5,921.9,654.3,922.7,654.6,920.2z"/>
		<path class="st9" d="M635.5,786.9c-0.4-2.1-0.8-3.4-1-4.8c-0.2-1.4,0.9-2.2,1.9-2.1c1,0.1,0.9,1.5,0.7,2.1
			C636.5,783.4,637.1,785.1,635.5,786.9z"/>
		<path class="st12" d="M710.8,790.4c0.1-1.5-0.3-3.3,2-3.5c1.8-0.1,2.8,0.9,2.9,2.8C714.1,789.9,712.5,790.2,710.8,790.4z"/>
		<path class="st12" d="M588.6,944.8c1.2-0.4,1.7-2.1,3.3-1.6c1.3,0.4-0.1,1.5,0.5,2.1c-0.3,2.4-2.2,0.8-3.3,1.3
			c-0.2-0.1-0.4-0.1-0.5-0.2C588.6,945.9,588.6,945.4,588.6,944.8z"/>
		<path class="st5" d="M607.9,803.3c-1,0.5-0.7,1.4-0.8,2.3c-0.5,0-0.9,0.1-1.4,0.1c-0.3-0.3-0.7-0.6-1-0.8c1.7-1.4,1.3-3.4,1.7-5.2
			c0.7,0.4,1.3,1,2.2,0.7c0,0,0.2,0.1,0.2,0.1C608.5,801.4,608.2,802.4,607.9,803.3z"/>
		<path class="st1" d="M585.6,846.5c-1-1.3,0.1-2,1-2.5c1.3-0.7,2.5-0.3,3.2,1.1C588.9,847.1,587.1,846.5,585.6,846.5z"/>
		<path class="st15" d="M660.5,909.3c1,0,1.9,0,2.9,0.1c0.1,1.3,0.2,2.6-0.8,3.6C660.6,912.4,660.8,910.7,660.5,909.3z"/>
		<path class="st9" d="M677.1,778.9c-0.6,0-1.3-0.1-1.2-0.9c0.1-1,0.9-1.6,1.9-1.8c0.7-0.2,1.3,0.1,1.1,0.9
			C678.7,778,678.2,778.9,677.1,778.9z"/>
		<path class="st5" d="M613.6,805.3c0.7-0.2,1.5-0.4,2.2-0.7c0.3,0.3,0.5,0.6,0.8,0.9c-0.4,1.3-0.9,2.5-2.6,2.4
			C613.8,807,613.7,806.2,613.6,805.3z"/>
		<path class="st7" d="M606.3,913.5c-1.2,0.4-2.4,1.1-3.6,0c0.3-0.7,0.6-1.3,0.9-2C604.9,911.7,606.1,911.9,606.3,913.5z"/>
		<path class="st12" d="M647.4,779.6c-0.2-1.8,1.9-2.3,2.2-3.7c1.3,0.3,1.4,1.3,1.2,2.4C649.3,777.7,648.8,779.8,647.4,779.6z"/>
		<path class="st12" d="M607.9,803.3c0.3-0.9,0.6-1.9,0.9-2.8c0.4,0,0.8,0.1,1.3,0.1c0.2,0.3,0.4,0.5,0.6,0.8c0,0.2,0.1,0.4,0.2,0.6
			C610.5,803.9,609.1,803.4,607.9,803.3z"/>
		<path class="st12" d="M612,920.2c1,0,2-0.1,3-0.1c-0.2,1.6-1,2.7-2.4,3.4C612.4,922.4,612.2,921.3,612,920.2z"/>
		<path class="st11" d="M724.1,796.8c0.6,1.3,1.2,2.5,1.9,3.8c-0.5,0-1,0-1.5,0c-0.3-0.5-0.5-1-0.8-1.4c-0.2-0.2-0.4-0.5-0.7-0.7
			C723.1,797.6,723.4,797,724.1,796.8z"/>
		<path class="st8" d="M693.4,880.7c0-1,0-2-0.1-3c1.7-0.2,2.2,0.9,2.4,2.3C695,880.3,694.2,880.5,693.4,880.7z"/>
		<path class="st9" d="M604.9,943.9c0.3,0.2,0.5,0.5,0.8,0.7c-0.1,0.8,0.4,1.9-0.8,2.7C604,946,604,945,604.9,943.9z"/>
		<path class="st9" d="M560.4,969.1c1.6-1.1,3.1-1.1,4.3,0.7C563.2,969.5,561.8,969.3,560.4,969.1z"/>
		<path class="st12" d="M608.5,800.4c-0.9,0.3-1.5-0.3-2.2-0.7c0-0.4,0-0.9,0.1-1.3C607.7,798.5,608.4,799.1,608.5,800.4z"/>
		<path class="st11" d="M728.9,799.9c0-1.4,0.7-2.1,2-2.3c0,0.5,0.1,1,0.1,1.5C730.3,799.4,729.6,799.6,728.9,799.9z"/>
		<path class="st11" d="M674.3,800.4c0.3,2.3-1.4,1.3-2.4,1.4C672.4,800.8,673.3,800.5,674.3,800.4z"/>
		<path class="st2" d="M741.8,885.5c0.5-0.1,1.3-0.6,1.6-0.4c0.9,0.7-0.2,1.4-0.3,2.2c-0.2-0.2-0.4-0.4-0.6-0.6
			c-0.2-0.2-0.3-0.3-0.5-0.5C742,886,741.9,885.7,741.8,885.5z"/>
		<path class="st9" d="M734.1,796.4c-0.4-0.8-0.5-1.8,0.3-1.9c1.1-0.2,0.6,0.7,0.4,1.2C734.7,795.9,734.4,796.1,734.1,796.4z"/>
		<path class="st11" d="M728.9,794c-1-0.1-2.1-0.1-3.1-0.2c0.8-2,2.1-0.2,3.1-0.5C728.9,793.6,728.9,793.8,728.9,794z"/>
		<path class="st10" d="M614.9,845.1c0.6,0.1,1.3,0.6,1.1,1c-0.5,1.1-1.6,0.3-2.4,0.4C614,846.1,614.4,845.6,614.9,845.1z"/>
		<path class="st11" d="M730.9,796.3c-0.9-0.2-1.3-0.7-1.2-1.6C730.7,794.8,731,795.4,730.9,796.3z"/>
		<path class="st9" d="M621.3,952.3c-0.1,0.2-0.1,0.5-0.3,0.6c-0.1,0.1-0.4-0.1-0.6-0.2c0.1-0.2,0.1-0.5,0.3-0.6
			C620.8,952,621.1,952.2,621.3,952.3z"/>
		<path class="st12" d="M696.7,930.5c-1-0.1-1-1-1.1-1.7C696.5,929,696.5,929.9,696.7,930.5z"/>
		<path class="st12" d="M649.5,936.1c0.9,0.3,0.9,1.1,0.9,1.9C649.4,937.7,649.6,936.8,649.5,936.1z"/>
		<path class="st5" d="M725.9,829.1c0.3-0.7,0.9-1,1.6-1C727.4,829.1,726.7,829.2,725.9,829.1z"/>
		<path class="st9" d="M564.6,969.8c0.7,0.8,0.7,1.5,0.1,2.3C564.7,971.3,564.7,970.5,564.6,969.8z"/>
		<path class="st15" d="M663.3,909.4c0-0.8-0.3-1.7,0.7-2.2C664.2,908,664.1,908.8,663.3,909.4z"/>
		<path class="st10" d="M613.8,842.4c0.2,0.3,0.4,0.6,0.6,0.9C613.8,843.3,613.6,843,613.8,842.4z"/>
		<path class="st1" d="M592.2,835.8c-0.8-0.2-1-0.8-0.8-1.5C592.5,834.3,591.9,835.3,592.2,835.8z"/>
		<path class="st12" d="M649,934.4c0.5,0.4,0.6,1,0.4,1.5C648.8,935.6,648.8,935,649,934.4z"/>
		<path class="st7" d="M686.6,915.7c0.5,0.1,1,0.3,1.1,0.9C687.1,916.5,686.7,916.3,686.6,915.7z"/>
		<path class="st9" d="M625.8,770.3c-0.1,0.3-0.2,0.6-0.3,0.9c-0.1-0.1-0.2-0.1-0.3-0.2C625.5,770.8,625.7,770.6,625.8,770.3
			C625.8,770.3,625.8,770.3,625.8,770.3z"/>
		<path class="st5" d="M727.5,828.1c0.1-0.7,0.6-1,1.3-0.9C728.4,827.5,728,827.8,727.5,828.1z"/>
		<path class="st9" d="M559.1,971.2c-0.1-0.6,0-1.1,0.5-1.4C559.4,970.2,559.2,970.7,559.1,971.2z"/>
		<path class="st11" d="M636.7,945.2c-0.7-0.3-0.8-0.8-0.7-1.5C636.3,944.2,636.5,944.7,636.7,945.2z"/>
		<path class="st9" d="M588.6,946.5c0.2,0.1,0.4,0.1,0.5,0.2c-0.1,0.3-0.2,0.6-0.3,0.9C588.2,947.3,588.6,946.8,588.6,946.5z"/>
		<path class="st8" d="M740.2,900.7c-0.6-0.1-1.1-0.2-1-1C739.5,900,739.8,900.3,740.2,900.7z"/>
		<path class="st9" d="M564.4,972.7c0,0.5,0.1,0.9,0.1,1.4C563.9,973.7,563.8,973.2,564.4,972.7z"/>
		<path class="st13" d="M666.1,806.2c-0.3,0.3-0.5,0.5-0.8,0.8C665.6,806.8,665.9,806.5,666.1,806.2z"/>
		<path class="st9" d="M610.6,801.4c-0.2-0.3-0.4-0.5-0.6-0.8C610.2,800.9,610.4,801.1,610.6,801.4z"/>
		<path class="st8" d="M742,886.2c0.2,0.2,0.3,0.3,0.5,0.5C742.3,886.6,742.2,886.4,742,886.2z"/>
		<path class="st10" d="M613.6,840.1c0.5,0.1,0.7,0.3,0.2,0.8C613.8,840.7,613.7,840.4,613.6,840.1z"/>
		<path class="st8" d="M741,902.1c-0.2-0.3-0.3-0.7-0.5-1C740.7,901.4,740.9,901.7,741,902.1z"/>
		<path class="st5" d="M581.1,845.3c0.3,0.2,0.6,0.3,0.8,0.5C581.6,845.6,581.4,845.5,581.1,845.3z"/>
		<path class="st8" d="M749,889c0.3-0.2,0.6-0.3,0.8-0.5C749.7,888.9,749.4,889.1,749,889z"/>
		<path class="st12" d="M573.4,933.2c0,0,0,0.3,0,0.3c-0.1-0.1-0.2-0.2-0.3-0.2C573.2,933.3,573.3,933.2,573.4,933.2z"/>
		<path class="st12" d="M587.7,920.8c0,0.5-0.2,0.7-0.7,0.7C587.2,921.3,587.5,921,587.7,920.8z"/>
		<path class="st5" d="M700.7,829.7c0,0.2-0.1,0.3-0.3,0.3c0,0,0-0.3,0-0.3L700.7,829.7z"/>
		<path class="st5" d="M723,821.4c0,0.5-0.2,0.7-0.7,0.4C722.6,821.7,722.8,821.5,723,821.4z"/>
		<path class="st5" d="M720.8,822c-0.1,0.2-0.3,0.2-0.5,0.2C720.4,821.9,720.5,821.7,720.8,822z"/>
		<path class="st10" d="M608.5,825.2c0.1,0.1,0.1,0.3,0,0.4c-0.1-0.1-0.1-0.2-0.2-0.3C608.4,825.3,608.4,825.3,608.5,825.2z"/>
		<path class="st12" d="M650.7,938.7c0.1,0.2,0.2,0.4,0.3,0.6c0,0.1-0.1,0.2-0.1,0.3C650.5,939.3,650.5,939,650.7,938.7z"/>
		<path class="st8" d="M722.7,870.5c0,0-0.2,0-0.2,0C722.6,870.2,722.7,870.1,722.7,870.5z"/>
		<path class="st12" d="M576.8,923.3l-0.3,0c0,0-0.2-0.3-0.2-0.3C576.6,923,576.7,923.1,576.8,923.3z"/>
		<path class="st9" d="M723,798.4c0.2,0.2,0.4,0.5,0.7,0.7C723.5,798.9,723.3,798.6,723,798.4z"/>
		<path class="st9" d="M732.6,808.5c-0.1-0.2,0-0.4,0.1-0.6C732.7,808.1,732.7,808.3,732.6,808.5z"/>
		<path class="st8" d="M723.3,916.3c-0.3-0.2-0.6-0.3-0.9-0.5C722.6,916,722.9,916.2,723.3,916.3z"/>
		<path class="st0" d="M662.5,839.5c1.6,2.1-0.2,4.3,0.2,6.4c-1.1,3-2.4,6-2.5,9.3c-1.5,2.3-1.8,5-2.5,7.5c-0.2,0.7-0.4,1.7,0.7,2.2
			c0.7,0.3,1.3,0.1,1.9-0.4c1.5-1.3,3.4-2.1,4.4-3.9c1.3-0.6,2.2-2.9,4.1-0.9c-0.1,0.5-0.1,1-0.2,1.4c-2.6,5.9-8.1,8.2-13.4,10.6
			c-6.5,0.8-8.7-1.9-8.1-8.5c0.5-6,3.1-11.4,4.5-17.1c-0.9-0.3-1.5-0.1-2.2,0.3c-4.4,2.9-7.3,6.9-9.4,11.7
			c-1.6,3.7,0.1,7.8-1.4,11.5c-1.9,1.4-4.6,0.4-6.5,1.9c-4-0.2-1.6-3.6-2.6-5.3c0-0.3,0-0.6,0-0.9c0.3-2.8,0.2-5.7-0.1-8.5
			c1.1-3.9,2.1-7.8,3.2-11.6c0.1-0.4,0.3-0.7,0.4-1.1c1.6-1.7,1.8-4.5,4.2-5.5c0.7,0,1.4,0,2.2,0c0.5,0.2,0.6-0.1,0.6-0.5
			c1.5-0.3,3-0.3,4.3-1.3c0.8,0.5,1.3,0.8,0.8,2.1c-0.9,2.3-2.1,4.6-1.7,7.9c3.8-3.8,7.6-6.9,11.9-9.3c0.3,0.4,0.3,0.1,0.2-0.1
			l0.2-0.1l0-0.2c2-0.1,3.9,0.2,5.8,1C661.9,838.5,661.7,839.3,662.5,839.5z"/>
		<path class="st10" d="M617.2,853.8c0.1-3.1,3.1-4.6,3.9-7.4c0.5-1.7,0.8-2.9-0.4-4.2c-1.9-2-1.4-4.5-1.2-6.8
			c0.1-1.1,0.6-2.5,1.8-2.3c3.6,0.5,5.5-2.4,8.2-3.7c0.8,3.6,4.2,6.6,2.2,10.8c-2,0.8-3.9,1.9-6.3,1.6c-1.2-0.1-2.2,0.9-2.3,2.3
			c-0.1,1,1.3,1.7,1.5,1.6c2.3-2.3,3.2,1,4.9,1.1c-0.1,1.5-0.2,3.1-0.2,4.6c0,1.7-0.7,2.7-2.6,2.5c-1.3-2.1-3.5-1.9-5.1-1.3
			c-3.2,1.3-0.5,2.8,0.4,4.2c-0.6,1-2.4-0.8-2.5,1.1c0,1.2-0.7,2.8,1.3,3.1c1.7,0.3,0.6,1,0.3,1.7c-0.7,1.8-1.9,2.8-3.9,3.4
			c0.3-2.4,1.6-4.8-1-6.9c-1-0.9,1.1-2.4,1-3.9l0,0c0.7-0.1,1.9,0.4,1.8-0.9C618.9,853.7,617.9,853.9,617.2,853.8L617.2,853.8z"/>
		<path class="st14" d="M612.1,822.8c0-1.4,0.1-2.8,0.1-4.1c1.7,1.2,3.4,1,5,0c1.4-0.9,2.8-1,4.3-0.3c0.8,0.1,1.5,0.2,2.3,0.3
			c0.1,0.2,0.1,0.4,0.1,0.6c-1,2.5-0.6,6.4-5.4,5.1c2.6,1.2,1.7,3.1,1.3,4.7c-0.3,1-1.8,1.9-2.6,1.3c-1.3-0.9-2.6-2.2-1.6-4.2
			C617.6,821.9,614.2,823,612.1,822.8z"/>
		<path class="st14" d="M631.7,840.1c1.9-4.1-1.4-7.2-2.2-10.8c2.6-0.8,1.5,2.9,3.6,2.9c0.2,3,4.4,3.2,4.4,6.3
			c-2.5,1.1-2.6,3.8-4.2,5.5c-0.1-0.9-0.1-1.7-0.2-2.6C633.1,840.6,632.5,840.2,631.7,840.1z"/>
		<path class="st14" d="M626.7,853.9c1.9,0.2,2.5-0.8,2.6-2.5c0-1.5,0.2-3.1,0.2-4.6c0.5-0.5,1-1,1.5-1.5c0.6,0,1.2,0,1.8-0.1
			c-1.1,3.9-2.1,7.8-3.2,11.6C627.6,856.9,626.8,855.7,626.7,853.9z"/>
		<path class="st14" d="M623.6,873.2c-0.5,0-0.9,0.1-1.4,0.1c-0.3-3.4,1.5-3.4,4-2.6C625.3,871.5,623.1,870.9,623.6,873.2z"/>
		<path class="st4" d="M623.9,819.2c0-0.2-0.1-0.4-0.1-0.6c0.3-0.6,0.7-1.1,1.5-1C625.2,818.5,624.9,819.2,623.9,819.2z"/>
		<path class="st10" d="M617.2,855.3c-0.6-0.1-1.3-0.1-1.1-0.9c0-0.3,0.7-0.4,1.1-0.6c0,0,0.1,0.1,0.1,0.1
			C617.2,854.3,617.2,854.8,617.2,855.3L617.2,855.3z"/>
		<path class="st14" d="M629.6,865.3c0,0.3,0,0.6,0,0.9c-0.2-0.1-0.5-0.3-0.7-0.4C629.2,865.6,629.4,865.4,629.6,865.3z"/>
		<path class="st13" d="M669,859.6c-1.9-2-2.8,0.3-4.1,0.9c-0.4-2,0-3.7,2.2-4.1c2.1-0.4,2.8-1.8,3.1-3.8c1.4,0.7,0.8,1.8,1.2,2.6
			c2.1-0.5,2.9-3.4,5.5-2.9c0.1,0.5,0.2,1,0.2,1.5c-0.9,0.5-0.6,1.3-0.6,2.1c0,1.8,0.1,4.2-3,2.5C671.6,857.3,670.5,859.3,669,859.6
			z"/>
		<path class="st8" d="M711.1,878.1c0.1,0,0.2,0.1,0.2,0.1c0,0.1,0,0.2-0.1,0.3c-0.1,0-0.2-0.1-0.2-0.1
			C711,878.3,711.1,878.2,711.1,878.1z"/>
		<path class="st8" d="M721.2,871.6c0.1,0,0.2,0.1,0.2,0.1c0,0.1-0.1,0.2-0.1,0.3c-0.1,0-0.2-0.1-0.2-0.1
			C721.1,871.8,721.1,871.7,721.2,871.6z"/>
		<path class="st15" d="M638.8,869.6c1.5-3.7-0.2-7.8,1.4-11.5c2.1-4.8,4.9-8.8,9.4-11.7c0.7-0.4,1.3-0.6,2.2-0.3
			c-1.3,5.7-3.9,11.1-4.5,17.1c-0.6,6.6,1.6,9.3,8.1,8.5c0,4.2,1.5,5.9,5.3,6.8c1.7,0.4,2.7,2.1,3.3,3.5c0.7,1.5-1.2,1.2-2.1,1.6
			c-1.1,0.6-0.9,1.6-0.8,2.5c0.1,1.3,0.4,2.5,0.5,3.8c-3.9-0.7-4.9,0-5.6,4.4c-0.4,2.5-1.4,4.1-4.3,2.8c0-1.4-0.3-2.8-2.1-2.8
			c-3.3,0.1-6.7-0.8-9.9,0.8c-2.5,1.2-3.9,0.4-3.9-2.5c0-2.1-0.9-3.6-2.9-4.5c-1.7-0.8-2.5-2.2-2.4-4c0.1-1.9,1.7-1.7,3-2.3
			c2.3-0.9,4.9-2.2,3.4-5.6c-0.3-0.7-0.1-1.1,0.4-1.5C639,873.2,638.8,871.3,638.8,869.6z M645.2,869.4c0.2-1.5-0.8-2.2-2-2.4
			c-1.3-0.2-2.1,0.5-2.2,1.7c-0.1,1.4,0.6,2.3,2.1,2.3C644.3,871.1,645.3,871,645.2,869.4z"/>
		<path class="st15" d="M655.5,837.4c-4.3,2.4-8.1,5.6-11.9,9.3c-0.5-3.2,0.8-5.6,1.7-7.9c0.5-1.3,0-1.6-0.8-2.1
			c-0.2-1-0.6-2.1-0.5-3.1c0.2-1.5-1.1-3.4,1.6-4.4c2.5-0.9,4.5-2.1,6.4,0.8c1,1.5,2.6,2.2,4.2,2.9c-0.1,1.3-0.1,2.6-0.2,4l0,0.2
			c0,0-0.2,0.1-0.2,0.1C655.8,837.3,655.5,837.4,655.5,837.4z"/>
		<path class="st15" d="M674.8,828.8c0.1,0.3,0.2,0.9,0.4,0.9c3.4,1.1,4.4,3.5,4,6.8c-6.9,1.1-8.3,0.9-11.4-6.3
			c-2-4.6-5.5-5.9-9.3-7.6c-1.5-0.7-3.3-0.7-4.6-1.9c2.6-3,7.9-2.6,10.3,0.4c1,1.3,1.8,3.3,4.1,3.2
			C669.6,827.1,671.5,829,674.8,828.8z"/>
		<path class="st14" d="M656,837c0.1-1.3,0.1-2.6,0.2-4c2,0.5,4.6-1.6,6,1.4c0,0.4,0,0.9-0.1,1.3c-0.1,0.7-0.2,1.5-0.3,2.2
			C659.9,837.1,658,836.8,656,837z"/>
		<path class="st14" d="M640.2,838.1c0,0.4-0.1,0.7-0.6,0.5C639.8,838.4,640,838.2,640.2,838.1z"/>
		<path class="st1" d="M623.7,879.1c0,0.9-0.3,1.7-1.3,1.8c-1,0.1-1.5-0.7-1.5-1.6c0-0.9,0.6-1.5,1.6-1.6
			C623.4,877.7,623.6,878.3,623.7,879.1z"/>
		<path class="st15" d="M658.3,906.4c1.8,0.2,1.3,1.9,2.1,2.8c-0.7,0-1.4,0-2.2,0C658.3,908.3,658.3,907.3,658.3,906.4z"/>
		<path class="st13" d="M651.8,910c0,0.5-0.1,1-0.1,1.5c-1-0.1-1.5-0.6-1.2-1.6C650.9,909.9,651.4,909.9,651.8,910z"/>
		<path class="st13" d="M650.4,909.8c-1.1,0.2-1.5-0.3-1.5-1.3C649.8,908.5,650.4,908.9,650.4,909.8z"/>
		<path class="st8" d="M670.5,812.1c-0.2-1-0.4-1.9-0.6-2.9c2.1-0.5,4.3-1.1,6.5-0.2c1.3,0.5,2,0,2.3-1.3c1.3,0,2.6-0.1,3.9,0.1
			c1.2,0.2,2.8-1.4,3.6,0.1c0.7,1.5,0.7,3.4,0.9,5.2c0.1,0.9-0.4,1.7-1.5,1.6c-3.9-0.3-7.8,0.3-11.6,0.6
			C672.2,815.4,671.4,813.4,670.5,812.1z"/>
		<path class="st12" d="M674.8,828.8c-3.3,0.2-5.2-1.7-6.5-4.4c0.7-1.6,1.7-3.1,1.6-4.9c0.2,0,0.4,0,0.5-0.1
			c0.2,0.1,0.4,0.2,0.6,0.4c0,4.2,3.8,5.7,6,8.3C676.3,828.2,675.5,828.5,674.8,828.8z"/>
		<path class="st2" d="M678.6,807.7c-0.3,1.2-1,1.8-2.3,1.3c-2.2-0.9-4.3-0.3-6.5,0.2c-2.2-1.2-0.3-2.3,0.1-3.4c2.3,0,4.7-0.1,7-0.1
			c0,1.1,0,2.1,1.6,1.9L678.6,807.7z"/>
		<path class="st9" d="M686.7,797.6c-2.1-0.1-2.9,3.9-5.9,1.5c2.5-1.5,3.6-4.6,6.9-5.1c0,0.4,0.1,0.8,0.1,1.2
			C687.5,796.1,687.1,796.8,686.7,797.6z"/>
		<path class="st6" d="M670.5,819.3c-0.2,0.1-0.3,0.1-0.5,0.1c-0.3-1-0.5-2-0.8-3c1.8,0.3,2.3,1.3,1.8,3
			C670.7,819.3,670.6,819.3,670.5,819.3z"/>
		<path class="st8" d="M678.5,807.6c-1.6,0.2-1.6-0.8-1.6-1.9C678.4,805.5,678.4,806.6,678.5,807.6z"/>
		<path class="st0" d="M687.9,795.3c0-0.4-0.1-0.8-0.1-1.2c0.5,0,0.9,0,1.4,0c0,0.4-0.1,0.8-0.1,1.2
			C688.7,795.3,688.3,795.3,687.9,795.3z"/>
		<path class="st13" d="M670.5,819.3c0.1,0,0.3,0.1,0.4,0.1c0,0,0.2,0.3,0.2,0.3C670.9,819.5,670.7,819.4,670.5,819.3z"/>
		<path class="st13" d="M651.9,912.1c1.9-0.1,2.9,0.5,2.8,2.6c-0.1,1.8-0.1,3.6-0.1,5.4c-3.3-0.2-4.9-2.9-3.5-6.1
			C651.3,913.3,651.6,912.7,651.9,912.1z"/>
		<path class="st13" d="M660.3,855.2c0.1-3.3,1.4-6.2,2.5-9.3c1.7,0.3,4.2-0.9,4.9,0.9c0.4,1.1-0.9,3.4-2.5,4.4
			c-1.5,0.9,0.2,3.4-2.2,4.2C661.8,855.7,661.1,855.5,660.3,855.2z"/>
		<path class="st15" d="M661.8,837.9c0.1-0.7,0.2-1.5,0.3-2.2c1,0.2,2.3-0.2,2.6,1.3c0.3,1.7-1.6,1.5-2.1,2.4
			C661.7,839.3,661.9,838.5,661.8,837.9z"/>
		<path class="st8" d="M688.4,914.8c-0.1-0.2-0.2-0.3-0.3-0.5c0.2-0.1,0.5-0.2,0.7-0.3c0.1,0.2,0.2,0.4,0.2,0.6
			C688.8,914.7,688.6,914.7,688.4,914.8z"/>
		<path class="st8" d="M725.9,920.9c-1,1.5-1.4,2.6-2.8,2.6c-0.5,0-0.8-0.5-0.7-1C723,921.3,724.2,921.3,725.9,920.9z"/>
		<path class="st7" d="M607.7,915.7c-0.5,0.1-1,0-1.1-0.6C607.1,915.1,607.5,915.1,607.7,915.7z"/>
		<path class="st8" d="M753.3,848.8c0,0.2,0,0.4,0,0.6c-0.2,0.9,0.5,2.2-0.6,2.5c-1.1,0.3-1.1-1.2-1.6-2
			C751.7,849.2,752.3,848.7,753.3,848.8z"/>
		<path class="st14" d="M613.6,805.3c0.1,0.9,0.2,1.8,0.4,2.6c-0.4,1.5-1.8,2.7-0.5,4.5c0.7,1-0.2,2-1.3,2.5
			c-1.5,0.1-2.5-2.8-4.4-0.9c-1.5-0.8-1.8-1.7,0.2-1.8c1.4-0.1,2.5-0.6,3.5-1.4c0.5-0.4,0.8-1.2,0.1-1.4c-4.3-1.2-1.5-1.8,0.1-2.7
			c0.4-0.2,0.3-1.1,0.5-1.6C612.7,805.1,613.1,805.2,613.6,805.3z"/>
		<path class="st6" d="M606.4,926.8c-1,1-2,2-2.9,3.1c-1.8,0-2.9-1.2-3.9-2.5c1.1-1.7,2.5-3.1,2-5.8c-0.3-1.5,1.6-3.4,4.1-2.6
			C605.7,921.6,605.8,924.2,606.4,926.8z"/>
		<path class="st5" d="M704.2,836.9c-0.7-0.1-0.5-0.6-0.5-1C703.9,836.2,704,836.6,704.2,836.9z"/>
		<path class="st15" d="M656.1,911.4c0.2,0,0.5,0,0.7,0c1.2,0,2.2,0.2,2.1,1.7c0,0.6,0.1,1.4-0.6,1.4c-1,0-1.6-0.9-2-1.7
			C656,912.5,656.1,911.9,656.1,911.4C656.1,911.5,656.1,911.4,656.1,911.4z"/>
		<path class="st9" d="M705.4,968.4c1.7,0.2,3.1,0.8,3,2.8c0,2-1.4,2.7-3.1,2.7c-1.7,0-3.1-0.7-3.1-2.7
			C702.3,969.2,703.8,968.7,705.4,968.4z"/>
		<path class="st9" d="M728.9,972.4c-0.2,1.2-1.3,1.5-2.4,1.6c-0.9,0-2-0.2-1.8-1.2c0.2-1.5,1.6-1.5,2.8-1.5
			C728.2,971.2,729,971.1,728.9,972.4z"/>
		<path class="st9" d="M685.6,974.1c-0.2,0-0.5-0.1-0.7-0.1c-1.1,0-2.2,0.2-2.7-1c-0.3-0.6,0.3-1.1,0.9-1.3c1-0.4,2.2-0.8,3-0.2
			C687.2,972.4,685.6,973.2,685.6,974.1C685.5,974.1,685.6,974.1,685.6,974.1z"/>
		<path class="st9" d="M663.1,974c-0.9-0.1-2-0.2-1.8-1.3c0.1-1.3,1.4-1.5,2.5-1.5c0.8,0,1.9-0.3,1.7,1.1
			C665.3,973.6,664.2,973.8,663.1,974z"/>
		<path class="st9" d="M623.5,971.2c0.8,0.1,1.9-0.3,1.7,1.1c-0.1,1.3-1.2,1.6-2.3,1.7c-0.9,0.1-1.9-0.2-1.9-1.1
			C620.9,971.3,622.4,971.4,623.5,971.2z"/>
		<path class="st0" d="M727.4,800.7c0.5-0.1,0.9-0.2,1.4-0.2c-0.1,0.5,0,1.2-0.7,1.2C727.8,801.6,727.6,801.1,727.4,800.7z"/>
		<path class="st10" d="M632.8,845.2c-0.6,0-1.2,0-1.8,0.1c0-1.6,0-3.2,2-3.7c0.1,0.9,0.1,1.7,0.2,2.6
			C633.1,844.5,632.9,844.8,632.8,845.2z"/>
		<path class="st14" d="M655.5,837.4c0,0,0.2-0.1,0.2-0.1C655.8,837.5,655.9,837.8,655.5,837.4z"/>
		<path class="st5" d="M633,841.5c-2,0.5-2.1,2.1-2,3.7c-0.5,0.5-1,1-1.5,1.5c-1.6-0.2-2.5-3.5-4.9-1.1c-0.2,0.2-1.6-0.5-1.5-1.6
			c0.1-1.3,1.1-2.4,2.3-2.3c2.4,0.2,4.3-0.9,6.3-1.6C632.5,840.2,633.1,840.6,633,841.5z"/>
		<path class="st1" d="M617.2,855.3c0-0.5,0-1,0-1.4c0.6,0.1,1.7-0.2,1.7,0.6C619,855.7,617.9,855.2,617.2,855.3z"/>
		<path class="st4" d="M645.2,869.4c0,1.6-1,1.7-2.1,1.7c-1.5-0.1-2.2-0.9-2.1-2.3c0.1-1.3,0.9-2,2.2-1.7
			C644.4,867.2,645.4,867.9,645.2,869.4z"/>
	</g>
</g>
</svg>
